<svg width="204" height="51" viewBox="0 0 204 51" fill="none" xmlns="http://www.w3.org/2000/svg">
<g clip-path="url(#clip0_1_1521)">
<path d="M0.918579 19.4866L7.4815 18.9324C7.69038 19.5808 8.1008 20.1457 8.653 20.5448C9.23917 20.9033 9.91902 21.0788 10.6055 21.0486C11.3341 21.0947 12.0571 20.8951 12.6588 20.4818C12.8338 20.3665 12.9774 20.2093 13.0764 20.0246C13.1753 19.8398 13.2266 19.6333 13.2256 19.4236C13.2267 19.1873 13.1564 18.9562 13.0237 18.7606C12.8911 18.565 12.7024 18.4141 12.4824 18.3277C11.5484 18.0021 10.5808 17.7824 9.59776 17.6727C7.99359 17.4248 6.41333 17.0413 4.87397 16.5264C3.97246 16.1792 3.18978 15.5801 2.61914 14.8006C2.00942 14.0067 1.68543 13.0303 1.69958 12.0293C1.67305 10.964 2.02572 9.92381 2.69473 9.09428C3.39363 8.24164 4.31944 7.60406 5.36524 7.25515C6.87501 6.79764 8.44924 6.58917 10.0261 6.63791C11.5611 6.57908 13.0967 6.74027 14.5861 7.11658C15.5076 7.39714 16.3466 7.89879 17.0299 8.57781C17.778 9.34351 18.3573 10.2575 18.7304 11.2609L12.432 11.8656C12.3245 11.362 12.0381 10.9145 11.6258 10.6059C11.0495 10.2471 10.3763 10.0755 9.69854 10.1146C9.12898 10.0667 8.55914 10.2036 8.07355 10.5051C7.91978 10.6173 7.79343 10.7628 7.70397 10.9308C7.61452 11.0988 7.5643 11.2849 7.55708 11.4751C7.55788 11.6819 7.62074 11.8837 7.73752 12.0544C7.85431 12.2251 8.01964 12.3568 8.21212 12.4324C9.12228 12.7518 10.0714 12.9467 11.0338 13.0119C12.7045 13.1459 14.3513 13.4931 15.9339 14.0448C16.9418 14.4186 17.8178 15.08 18.4533 15.9469C19.0183 16.7363 19.3182 17.6846 19.3099 18.6552C19.2972 19.687 18.9866 20.6931 18.4155 21.5525C17.7182 22.5764 16.725 23.3631 15.5686 23.8073C13.8766 24.4284 12.079 24.7109 10.278 24.6387C7.12879 24.6387 4.88657 24.1894 3.55131 23.2909C2.2051 22.4209 1.25844 21.053 0.918579 19.4866Z" fill="#CF2027"/>
<path d="M22.5095 7.02701H28.6819V9.54637C29.4066 8.63123 30.3058 7.86908 31.3273 7.30414C32.3543 6.83622 33.4742 6.60793 34.6024 6.63651C35.7398 6.58314 36.8707 6.83542 37.8776 7.36712C38.7198 7.89989 39.3995 8.65372 39.8427 9.54637C40.6365 8.61741 41.5926 7.84057 42.6644 7.25375C43.6602 6.81853 44.7397 6.6078 45.8261 6.63651C46.6239 6.59139 47.4221 6.71503 48.1688 6.99938C48.9155 7.28373 49.5938 7.72238 50.1594 8.28669C51.3155 9.74827 51.8737 11.5941 51.7214 13.4514V24.272H45.0829V14.4465C45.1281 13.8368 44.9685 13.2295 44.6295 12.7208C44.4508 12.4459 44.2063 12.22 43.918 12.0638C43.6298 11.9076 43.3071 11.826 42.9793 11.8264C42.6224 11.8121 42.2671 11.8808 41.9414 12.0273C41.6157 12.1738 41.3284 12.3939 41.1024 12.6704C40.5539 13.4615 40.2999 14.4197 40.3843 15.3787V24.272H33.7584V14.774C33.7841 14.2585 33.7417 13.7417 33.6325 13.2372C33.5038 12.8211 33.2483 12.4556 32.9019 12.1917C32.5407 11.9167 32.0959 11.7744 31.6422 11.7886C31.285 11.7805 30.9306 11.8534 30.6055 12.0017C30.2805 12.1501 29.9932 12.3701 29.7653 12.6452C29.2032 13.4779 28.9452 14.4788 29.0346 15.4795V24.2972H22.5095V7.02701Z" fill="#CF2027"/>
<path d="M61.6729 12.6326L55.3745 11.965C55.5353 11.0359 55.8824 10.149 56.3948 9.35747C56.9108 8.67007 57.5735 8.10633 58.3347 7.7073C59.1297 7.31995 59.9794 7.05656 60.8541 6.9263C61.9908 6.73929 63.141 6.6466 64.293 6.64917C65.8914 6.61982 67.4891 6.73364 69.0672 6.98928C70.1775 7.17052 71.218 7.64938 72.0778 8.37493C72.6822 8.94408 73.1365 9.65373 73.4005 10.4408C73.7086 11.2459 73.8748 12.0983 73.8918 12.9602V20.5182C73.8769 21.1558 73.9275 21.7932 74.0429 22.4203C74.2004 23.0326 74.4287 23.6245 74.7231 24.1839H68.4877C68.3023 23.8609 68.1422 23.524 68.0091 23.1761C67.9079 22.8166 67.8321 22.4504 67.7823 22.0802C67.0579 22.821 66.2041 23.423 65.263 23.8564C63.9621 24.3586 62.5758 24.6025 61.1816 24.5744C59.4979 24.6909 57.83 24.1843 56.4956 23.151C55.9871 22.7159 55.5803 22.1746 55.3038 21.5651C55.0274 20.9557 54.8881 20.293 54.8958 19.6239C54.8522 18.4398 55.2673 17.2845 56.0547 16.3991C57.2562 15.385 58.7357 14.7572 60.2998 14.5977C62.8192 14.1065 64.3812 13.7538 65.1118 13.5522C65.9074 13.333 66.6897 13.0681 67.4548 12.7586C67.4873 12.4559 67.4594 12.1498 67.373 11.8579C67.2865 11.566 67.143 11.2942 66.9509 11.058C66.4422 10.6759 65.8076 10.5003 65.1748 10.5668C64.3309 10.5123 63.4886 10.6956 62.7436 11.0958C62.2229 11.472 61.8453 12.0138 61.6729 12.6326ZM67.4044 16.1093C66.4974 16.4243 65.5527 16.714 64.5575 16.9659C63.6513 17.1328 62.7918 17.4937 62.0382 18.0241C61.8606 18.1818 61.7191 18.376 61.6235 18.5934C61.5278 18.8108 61.4802 19.0463 61.4839 19.2837C61.4818 19.5198 61.5289 19.7537 61.6222 19.9706C61.7154 20.1875 61.8528 20.3825 62.0256 20.5434C62.4791 20.9007 63.0495 21.0759 63.6254 21.0347C64.3461 21.0421 65.0554 20.855 65.6787 20.493C66.2419 20.2146 66.7107 19.7765 67.0265 19.2334C67.3178 18.6027 67.4559 17.9121 67.4296 17.2179L67.4044 16.1093Z" fill="#CF2027"/>
<path d="M77.9353 7.02708H84.1203V9.86136C84.5308 8.89091 85.1602 8.02862 85.9595 7.342C86.6463 6.86639 87.4675 6.62355 88.3025 6.64918C89.4164 6.70921 90.5 7.03302 91.4643 7.59394L89.4236 12.2547C88.8399 11.9858 88.2127 11.8237 87.5719 11.7761C87.1714 11.7617 86.7743 11.8531 86.4205 12.0411C86.0667 12.2291 85.7686 12.507 85.5564 12.8468C84.8761 13.8545 84.536 15.7315 84.536 18.4902V24.2721H77.9353V7.02708Z" fill="#CF2027"/>
<path d="M102.184 0.477295V7.02762H105.825V11.8648H102.184V17.9742C102.144 18.4712 102.217 18.9708 102.398 19.4355C102.522 19.6194 102.692 19.7675 102.891 19.8648C103.09 19.9621 103.311 20.0052 103.532 19.9897C104.254 19.9553 104.967 19.8153 105.648 19.574L106.127 24.1341C104.626 24.4713 103.093 24.6487 101.554 24.6631C100.308 24.7378 99.0621 24.5222 97.9137 24.0333C97.1297 23.6139 96.5186 22.9314 96.188 22.106C95.7181 20.7682 95.5086 19.3529 95.5707 17.9364V11.8648H93.127V7.02762H95.5707V3.81544L102.184 0.477295Z" fill="#CF2027"/>
<path d="M109.503 0.476889H120.437C122.213 0.394532 123.987 0.673073 125.652 1.29568C126.937 1.85475 128.066 2.71967 128.94 3.81504C129.821 4.93262 130.464 6.21868 130.829 7.59407C131.225 9.09859 131.42 10.6489 131.409 12.2045C131.494 14.2151 131.199 16.2237 130.539 18.125C130.003 19.4577 129.182 20.6572 128.133 21.6395C127.202 22.5359 126.064 23.1892 124.821 23.5416C123.393 23.9435 121.92 24.1594 120.437 24.184H109.503V0.476889ZM116.859 5.86831V18.9312H118.661C119.781 19.0029 120.904 18.8266 121.948 18.4147C122.647 18.0166 123.185 17.389 123.473 16.6386C123.911 15.3074 124.099 13.9065 124.027 12.5068C124.027 9.98746 123.611 8.2491 122.767 7.31694C122.221 6.81015 121.574 6.42467 120.869 6.18585C120.163 5.94703 119.415 5.86028 118.673 5.9313L116.859 5.86831Z" fill="#CF2027"/>
<path d="M140.919 12.6335L134.621 11.9659C134.786 11.0359 135.137 10.1489 135.654 9.35838C136.167 8.66799 136.83 8.10363 137.594 7.7082C138.387 7.31764 139.238 7.05409 140.113 6.9272C141.212 6.74258 142.324 6.6457 143.439 6.63748C145.037 6.60759 146.635 6.72142 148.213 6.97759C149.324 7.15638 150.365 7.63553 151.223 8.36324C151.836 8.9282 152.295 9.63887 152.559 10.4291C152.857 11.2364 153.019 12.0879 153.037 12.9485V20.5065C153.022 21.1441 153.073 21.7815 153.189 22.4086C153.351 23.0192 153.579 23.6104 153.869 24.1722H147.671C147.478 23.8516 147.313 23.5143 147.18 23.1645C147.079 22.8049 147.003 22.4387 146.953 22.0685C146.229 22.8093 145.375 23.4113 144.434 23.8447C143.133 24.3469 141.747 24.5908 140.352 24.5627C138.672 24.6809 137.008 24.1739 135.679 23.1393C135.168 22.7059 134.76 22.1649 134.484 21.5551C134.207 20.9452 134.069 20.2817 134.079 19.6122C134.032 18.4298 134.443 17.2748 135.226 16.3874C136.421 15.3412 137.905 14.6823 139.483 14.4979C142.003 14.0066 143.565 13.6539 144.308 13.4523C145.099 13.231 145.877 12.9661 146.638 12.6587C146.671 12.3561 146.643 12.0499 146.556 11.7581C146.47 11.4662 146.326 11.1943 146.134 10.9582C145.629 10.5791 144.999 10.4037 144.371 10.4669C143.523 10.4114 142.676 10.5947 141.927 10.996C141.411 11.4077 141.054 11.9869 140.919 12.6335ZM146.651 16.1103C145.744 16.4252 144.799 16.7149 143.817 16.9668C142.911 17.1359 142.052 17.4967 141.297 18.025C141.12 18.1827 140.978 18.3769 140.882 18.5943C140.787 18.8117 140.739 19.0472 140.743 19.2846C140.74 19.522 140.788 19.7572 140.884 19.9745C140.979 20.1918 141.12 20.3861 141.297 20.5443C141.749 20.9038 142.321 21.0793 142.897 21.0356C143.617 21.04 144.326 20.8531 144.95 20.4939C145.511 20.2119 145.979 19.7746 146.298 19.2343C146.585 18.6024 146.718 17.9119 146.689 17.2188L146.651 16.1103Z" fill="#CF2027"/>
<path d="M164.425 0.477295V7.02762H168.053V11.8648H164.425V17.9742C164.383 18.4702 164.451 18.9694 164.626 19.4355C164.751 19.6213 164.923 19.7707 165.124 19.8681C165.326 19.9655 165.55 20.0075 165.773 19.9897C166.469 19.9479 167.156 19.808 167.813 19.574L168.305 24.1341C166.799 24.472 165.262 24.6494 163.719 24.6631C162.478 24.7381 161.235 24.5225 160.091 24.0333C159.309 23.6086 158.695 22.9284 158.353 22.106C157.912 20.7623 157.724 19.3486 157.799 17.9364V11.8648H155.355V7.02762H157.799V3.81544L164.425 0.477295Z" fill="#CF2027"/>
<path d="M177.236 12.6325L170.937 11.9649C171.102 11.0349 171.453 10.1478 171.97 9.35735C172.486 8.66994 173.149 8.1062 173.91 7.70717C174.704 7.31621 175.554 7.05265 176.429 6.92617C177.566 6.73916 178.716 6.64647 179.868 6.64904C181.467 6.62016 183.064 6.73398 184.643 6.98915C185.75 7.16828 186.787 7.64753 187.641 8.3748C188.253 8.93976 188.712 9.65044 188.976 10.4407C189.284 11.2457 189.45 12.0982 189.467 12.96V20.5181C189.452 21.1556 189.503 21.793 189.618 22.4202C189.776 23.0305 190 23.6219 190.286 24.1838H184.088C183.895 23.8631 183.731 23.5259 183.597 23.176C183.496 22.8165 183.42 22.4503 183.37 22.0801C182.646 22.8209 181.792 23.4229 180.851 23.8562C179.554 24.3584 178.172 24.6023 176.782 24.5743C175.098 24.6932 173.43 24.1863 172.096 23.1508C171.586 22.7175 171.177 22.1765 170.901 21.5666C170.624 20.9568 170.486 20.2933 170.496 19.6237C170.449 18.4413 170.86 17.2863 171.643 16.3989C172.838 15.3527 174.323 14.6938 175.9 14.5094C178.42 14.0182 179.994 13.6654 180.725 13.4639C181.519 13.2408 182.302 12.9759 183.068 12.6703C183.127 12.0596 182.946 11.4499 182.564 10.9697C182.055 10.5875 181.421 10.412 180.788 10.4785C179.944 10.4227 179.101 10.606 178.357 11.0075C177.792 11.3888 177.392 11.9691 177.236 12.6325ZM182.967 16.1092C182.048 16.4241 181.103 16.7139 180.12 16.9658C179.213 17.1299 178.353 17.4911 177.601 18.0239C177.421 18.1794 177.277 18.3732 177.181 18.5911C177.086 18.8091 177.04 19.0456 177.047 19.2836C177.042 19.52 177.088 19.7547 177.182 19.9719C177.275 20.1891 177.414 20.3839 177.588 20.5433C178.042 20.9006 178.612 21.0758 179.188 21.0346C179.909 21.0402 180.618 20.8532 181.241 20.4929C181.802 20.2108 182.27 19.7736 182.589 19.2332C182.881 18.6025 183.019 17.9119 182.992 17.2177L182.967 16.1092Z" fill="#CF2027"/>
<path d="M190.273 30.6458H0.918579V31.2H190.273V30.6458Z" fill="#CF2027"/>
<path d="M1.96399 50.3224V38.6451H10.4164V40.0308H3.51339V43.6083H9.97554V44.9687H3.51339V48.9493H10.681V50.3224H1.96399Z" fill="#CF2027"/>
<path d="M20.4686 50.3224V38.6451H22.0558L28.1904 47.8156V38.6451H29.6768V50.3224H28.0896L21.955 41.1519V50.3224H20.4686Z" fill="#CF2027"/>
<path d="M42.9161 50.3224V40.0308H39.0614V38.6451H48.3201V40.0308H44.4529V50.3224H42.9161Z" fill="#CF2027"/>
<path d="M57.604 50.3224V38.6451H66.0565V40.0308H59.1534V43.6083H65.6156V44.9687H59.1534V48.9493H66.321V50.3224H57.604Z" fill="#CF2027"/>
<path d="M76.1591 50.324V38.6467H81.3363C82.1382 38.6107 82.94 38.7173 83.7045 38.9617C84.2388 39.1764 84.6833 39.5676 84.9642 40.0702C85.291 40.5999 85.4613 41.2113 85.4555 41.8337C85.4725 42.6097 85.1829 43.3611 84.6493 43.9248C83.9637 44.572 83.0713 44.9558 82.1299 45.0081C82.4667 45.1612 82.7804 45.3605 83.0621 45.6002C83.5441 46.0629 83.9672 46.5833 84.3218 47.1496L86.3625 50.324H84.4981L82.9739 47.9054C82.5204 47.2126 82.1425 46.6457 81.8528 46.3056C81.6395 46.0021 81.3753 45.7379 81.0718 45.5246C80.8557 45.3813 80.6173 45.2749 80.3664 45.2097C80.0773 45.1834 79.7863 45.1834 79.4972 45.2097H77.6959V50.3869L76.1591 50.324ZM77.6959 43.7988H81.0214C81.5838 43.823 82.1462 43.7506 82.6842 43.5847C83.0545 43.4532 83.3726 43.2058 83.5912 42.8793C83.791 42.5673 83.896 42.2042 83.8935 41.8337C83.9004 41.5775 83.851 41.3228 83.7487 41.0877C83.6464 40.8526 83.4937 40.6429 83.3014 40.4733C82.7503 40.0767 82.0761 39.8892 81.3993 39.9442H77.6959V43.7988Z" fill="#CF2027"/>
<path d="M95.5706 50.3219V38.6447H99.9794C100.574 38.6325 101.168 38.6704 101.756 38.7581C102.267 38.8356 102.756 39.0202 103.192 39.2997C103.598 39.5874 103.92 39.9789 104.124 40.4334C104.369 40.9264 104.494 41.4702 104.489 42.0206C104.509 42.9529 104.166 43.8564 103.532 44.54C103.061 44.9362 102.514 45.2322 101.925 45.4098C101.336 45.5874 100.717 45.6429 100.105 45.5729H97.1326V50.3219H95.5706ZM97.12 44.1999H100.131C100.883 44.2703 101.637 44.0742 102.259 43.6456C102.473 43.4447 102.639 43.1997 102.748 42.9278C102.857 42.6558 102.905 42.3635 102.889 42.071C102.9 41.6236 102.772 41.1838 102.524 40.8113C102.283 40.4794 101.937 40.2394 101.541 40.1311C101.068 40.0427 100.586 40.0089 100.105 40.0303H97.1326L97.12 44.1999Z" fill="#CF2027"/>
<path d="M114.151 50.324V38.6467H119.341C120.143 38.6107 120.944 38.7173 121.709 38.9617C122.238 39.1839 122.681 39.5732 122.969 40.0702C123.295 40.5999 123.466 41.2113 123.46 41.8337C123.477 42.6097 123.187 43.3611 122.654 43.9248C121.968 44.572 121.076 44.9558 120.134 45.0081C120.474 45.1551 120.789 45.3549 121.067 45.6002C121.552 46.0598 121.975 46.5807 122.326 47.1496L124.367 50.324H122.503L120.966 47.9054C120.512 47.2126 120.134 46.6457 119.845 46.3056C119.631 46.0021 119.367 45.7379 119.064 45.5246C118.846 45.384 118.608 45.2778 118.358 45.2097C118.069 45.1834 117.778 45.1834 117.489 45.2097H115.725V50.3869L114.151 50.324ZM115.725 43.7988H119.051C119.609 43.8241 120.168 43.7516 120.701 43.5847C121.077 43.4573 121.4 43.2093 121.621 42.8793C121.821 42.5673 121.926 42.2042 121.923 41.8337C121.93 41.5762 121.88 41.3204 121.775 41.085C121.67 40.8495 121.514 40.6405 121.318 40.4733C120.773 40.0745 120.102 39.8866 119.429 39.9442H115.725V43.7988Z" fill="#CF2027"/>
<path d="M133.852 50.3224V38.6451H135.389V50.3224H133.852Z" fill="#CF2027"/>
<path d="M145.265 46.569L146.714 46.443C146.761 46.9637 146.934 47.4652 147.217 47.9042C147.513 48.3151 147.919 48.6339 148.389 48.8238C148.956 49.0573 149.565 49.173 150.178 49.1639C150.71 49.1751 151.24 49.0854 151.74 48.8994C152.139 48.7637 152.489 48.5141 152.747 48.1813C152.967 47.896 153.087 47.5463 153.088 47.1862C153.093 46.8348 152.978 46.4921 152.76 46.2162C152.48 45.8982 152.119 45.663 151.714 45.536C151.032 45.307 150.338 45.1136 149.636 44.9566C148.86 44.8027 148.103 44.5618 147.381 44.2385C146.868 43.9965 146.432 43.6172 146.122 43.1426C145.845 42.7106 145.7 42.2071 145.706 41.694C145.702 41.1055 145.878 40.5299 146.21 40.0438C146.564 39.512 147.075 39.1028 147.671 38.8723C148.355 38.5975 149.087 38.4606 149.825 38.4692C150.605 38.4542 151.38 38.5956 152.105 38.8849C152.729 39.1406 153.261 39.5799 153.629 40.1446C153.993 40.6901 154.194 41.3281 154.209 41.9837L152.722 42.0971C152.708 41.7779 152.629 41.4649 152.49 41.177C152.352 40.8891 152.157 40.6322 151.916 40.4217C151.326 40.0028 150.609 39.8024 149.888 39.8549C149.165 39.7969 148.444 39.9784 147.835 40.3713C147.635 40.5145 147.472 40.7037 147.36 40.9229C147.248 41.1421 147.191 41.385 147.192 41.631C147.188 41.8258 147.226 42.0193 147.305 42.1977C147.383 42.3762 147.499 42.5353 147.646 42.6639C148.366 43.0895 149.161 43.3719 149.989 43.4953C150.847 43.6738 151.69 43.9223 152.508 44.2385C153.12 44.5024 153.642 44.9405 154.007 45.4982C154.337 45.9848 154.508 46.5609 154.498 47.1484C154.499 47.7774 154.311 48.392 153.957 48.912C153.584 49.473 153.054 49.9113 152.433 50.1716C151.722 50.4825 150.953 50.6371 150.178 50.6251C149.269 50.6541 148.364 50.4954 147.52 50.159C146.833 49.8786 146.249 49.3951 145.844 48.7734C145.429 48.1157 145.227 47.3459 145.265 46.569Z" fill="#CF2027"/>
<path d="M164.374 50.3224V38.6451H172.814V40.0308H165.911V43.6083H172.411V44.9687H165.949V48.9493H173.129V50.3224H164.374Z" fill="#CF2027"/>
<path d="M182.362 46.569L183.824 46.443C183.861 46.9541 184.026 47.4478 184.302 47.8791C184.598 48.29 185.004 48.6088 185.474 48.7986C186.045 49.0321 186.658 49.1478 187.275 49.1387C187.808 49.1488 188.338 49.059 188.837 48.8742C189.234 48.7354 189.584 48.4863 189.845 48.1562C190.055 47.8668 190.17 47.5188 190.172 47.161C190.182 46.8112 190.071 46.4687 189.858 46.1911C189.573 45.8731 189.207 45.6381 188.799 45.5109C188.117 45.2818 187.423 45.0884 186.721 44.9314C185.945 44.7776 185.188 44.5367 184.466 44.2134C183.958 43.964 183.524 43.5863 183.206 43.1175C182.933 42.6844 182.793 42.1807 182.803 41.6688C182.801 41.0824 182.972 40.5082 183.295 40.0187C183.654 39.4865 184.169 39.0775 184.768 38.8472C185.449 38.5737 186.177 38.4367 186.91 38.4441C187.694 38.4291 188.473 38.5704 189.203 38.8598C189.825 39.1188 190.355 39.5574 190.727 40.1194C191.081 40.6687 191.277 41.3051 191.294 41.9586L189.82 42.0719C189.774 41.4311 189.486 40.8318 189.014 40.3966C188.418 39.9796 187.698 39.7795 186.973 39.8297C186.28 39.7892 185.591 39.9701 185.008 40.3462C184.808 40.4894 184.645 40.6785 184.533 40.8977C184.421 41.117 184.364 41.3598 184.365 41.6059C184.361 41.8007 184.399 41.9941 184.478 42.1726C184.556 42.351 184.672 42.5102 184.819 42.6388C185.533 43.0673 186.325 43.3499 187.149 43.4702C188.008 43.6468 188.851 43.8954 189.669 44.2134C190.282 44.4814 190.806 44.9183 191.18 45.4731C191.5 45.9634 191.667 46.5379 191.659 47.1233C191.658 47.7501 191.474 48.3632 191.13 48.8868C190.752 49.4483 190.218 49.8863 189.593 50.1465C188.883 50.4584 188.114 50.6131 187.338 50.6C186.43 50.6279 185.525 50.4692 184.68 50.1339C183.996 49.85 183.412 49.3673 183.005 48.7482C182.586 48.0987 182.362 47.3421 182.362 46.569Z" fill="#CF2027"/>
<path d="M190.752 10.1148V3.07318H188.132V2.12842H194.43V3.07318H191.81V10.1148H190.752Z" fill="#231F20"/>
<path d="M195.463 10.1148V2.12842H197.05L198.927 7.74658C199.087 8.27565 199.213 8.66615 199.305 8.91808L199.721 7.65841L201.623 2.14101H203.034V10.1148H202.026V3.42589L199.721 10.1148H198.776L196.484 3.31252V10.1148H195.463Z" fill="#231F20"/>
</g>
<defs>
<clipPath id="clip0_1_1521">
<rect width="202.115" height="50.047" fill="white" transform="translate(0.91861 0.47644)"/>
</clipPath>
</defs>
</svg>
