<svg width="171" height="33" viewBox="0 0 171 33" fill="none" xmlns="http://www.w3.org/2000/svg">
<g clip-path="url(#clip0_1_1549)">
<mask id="mask0_1_1549" style="mask-type:luminance" maskUnits="userSpaceOnUse" x="0" y="0" width="171" height="33">
<path d="M170.974 0H0.973999V32.2105H170.974V0Z" fill="white"/>
</mask>
<g mask="url(#mask0_1_1549)">
<path d="M34.3176 21.0817C34.7938 21.2553 35.2919 21.4028 35.8074 21.533C36.3273 21.6631 36.9652 21.7282 37.7122 21.7282C38.8918 21.7282 39.7743 21.4896 40.3597 21.008C40.9408 20.5264 41.2335 19.8756 41.2335 19.0599C41.2335 18.6607 41.1723 18.3136 41.05 18.0273C40.9277 17.7409 40.7442 17.4936 40.4995 17.2854C40.2549 17.0771 39.9491 16.8905 39.5821 16.717C39.2107 16.5434 38.7826 16.3569 38.2933 16.1573L37.0656 15.6627C36.6462 15.4891 36.2661 15.2982 35.9166 15.0943C35.5715 14.8861 35.2744 14.6301 35.021 14.3307C34.7676 14.027 34.571 13.6799 34.4269 13.2851C34.2827 12.8903 34.2084 12.4217 34.2084 11.875C34.2084 10.5691 34.654 9.54946 35.5497 8.81188C36.4409 8.0743 37.6991 7.70117 39.3112 7.70117C40.0015 7.70117 40.6568 7.76191 41.2772 7.87472C41.8976 7.98753 42.4437 8.13504 42.9199 8.30425C42.85 8.90733 42.6927 9.50173 42.4437 10.0918C42.0548 9.94862 41.6049 9.81846 41.0937 9.70131C40.5826 9.58851 40.0059 9.5321 39.3549 9.5321C38.4462 9.5321 37.7472 9.70999 37.2579 10.0788C36.7686 10.4432 36.5239 10.9942 36.5239 11.7231C36.5239 12.0269 36.5851 12.2915 36.7074 12.5301C36.8297 12.7688 36.9914 12.977 37.1923 13.1549C37.3933 13.3328 37.6336 13.4977 37.9045 13.6365C38.1797 13.784 38.468 13.9099 38.7695 14.027L39.9797 14.4999C40.5563 14.7299 41.0675 14.9685 41.5131 15.2201C41.9587 15.4718 42.3432 15.7668 42.6621 16.1009C42.9767 16.4393 43.217 16.8385 43.3873 17.2984C43.5534 17.7583 43.632 18.2963 43.632 18.9124C43.632 20.3875 43.1208 21.5546 42.0985 22.4094C41.0762 23.2598 39.6433 23.685 37.7996 23.685C37.354 23.685 36.9477 23.6719 36.5894 23.6459C36.2312 23.6155 35.8948 23.5721 35.5846 23.5157C35.2744 23.4593 34.973 23.3856 34.689 23.3031C34.4007 23.2164 34.1036 23.1209 33.8021 23.0211C33.8283 22.7044 33.8982 22.3833 33.9987 22.0536C34.0948 21.7195 34.2041 21.3985 34.3176 21.0817Z" fill="black"/>
<path d="M46.1146 12.3914C46.2763 12.361 46.4554 12.3393 46.6564 12.322C46.8617 12.309 47.0321 12.3046 47.1763 12.3046C47.3379 12.3046 47.5127 12.309 47.7136 12.322C47.919 12.3393 48.0981 12.361 48.2554 12.3914V18.4352C48.2554 19.1251 48.3209 19.6934 48.4476 20.1447C48.5786 20.6002 48.7752 20.9517 49.033 21.212C49.2951 21.468 49.6097 21.6459 49.9854 21.7456C50.3611 21.8454 50.7936 21.8975 51.283 21.8975C52.0169 21.8975 52.646 21.8151 53.1616 21.6589V12.3871C53.3232 12.361 53.498 12.3393 53.6946 12.322C53.8868 12.309 54.0615 12.3003 54.2232 12.3003C54.3805 12.3003 54.5596 12.309 54.7518 12.322C54.9484 12.335 55.1232 12.3567 55.2804 12.3871V23.0776C54.778 23.2251 54.1751 23.3596 53.4761 23.4898C52.7771 23.6156 52.0519 23.6807 51.3048 23.6807C50.6014 23.6807 49.933 23.62 49.3039 23.4985C48.6791 23.377 48.1287 23.1297 47.6525 22.7566C47.1763 22.3834 46.8005 21.8628 46.5297 21.186C46.2544 20.5135 46.119 19.624 46.119 18.5177V12.3914H46.1146Z" fill="black"/>
<path d="M72.8708 18.435C72.897 19.6368 73.2116 20.5219 73.8101 21.0816C74.4086 21.6413 75.2911 21.919 76.4576 21.919C77.4799 21.919 78.4542 21.7411 79.376 21.381C79.4896 21.5979 79.5857 21.8582 79.6556 22.1663C79.7299 22.4743 79.7692 22.7824 79.7866 23.0817C79.3104 23.2813 78.7862 23.4332 78.2182 23.533C77.6503 23.6328 77.0168 23.6848 76.3265 23.6848C75.3173 23.6848 74.4523 23.546 73.7315 23.264C73.015 22.9863 72.4164 22.5915 71.9533 22.0838C71.4815 21.5719 71.1407 20.9731 70.9223 20.2746C70.7082 19.5804 70.599 18.8168 70.599 17.9838C70.599 17.1681 70.7082 16.4045 70.9136 15.6929C71.1233 14.9814 71.4466 14.3653 71.8747 13.8403C72.3072 13.3197 72.8533 12.9031 73.5086 12.5908C74.164 12.2827 74.9372 12.1309 75.8329 12.1309C76.5974 12.1309 77.2658 12.2567 77.8425 12.517C78.4192 12.7773 78.8998 13.1331 79.2886 13.58C79.6818 14.0355 79.9745 14.5735 80.1755 15.194C80.3764 15.8188 80.4813 16.4956 80.4813 17.2288C80.4813 17.4284 80.4726 17.641 80.4594 17.8623C80.442 18.0836 80.4289 18.2745 80.4158 18.4307H72.8708V18.435ZM78.358 16.8427C78.358 16.4392 78.3056 16.0574 78.1964 15.6929C78.0915 15.3241 77.9299 15.0074 77.7202 14.7341C77.5149 14.4607 77.244 14.2438 76.9207 14.0789C76.5974 13.9141 76.2129 13.8316 75.7673 13.8316C74.8848 13.8316 74.212 14.0963 73.7446 14.6256C73.2771 15.1593 72.9931 15.8969 72.8926 16.8427H78.358Z" fill="black"/>
<path d="M83.2318 12.3915C83.3891 12.3611 83.5376 12.3394 83.6862 12.322C83.826 12.309 83.9789 12.3047 84.1405 12.3047C84.2978 12.3047 84.4551 12.309 84.6167 12.322C84.774 12.3394 84.9182 12.3611 85.0449 12.3915C85.0886 12.6041 85.1323 12.8904 85.1759 13.2375C85.2196 13.5933 85.2415 13.8883 85.2415 14.1313C85.5429 13.6453 85.9449 13.2245 86.4429 12.8644C86.9409 12.5043 87.5788 12.322 88.3564 12.322C88.47 12.322 88.588 12.3307 88.7103 12.3351C88.8327 12.3437 88.9375 12.3524 89.0249 12.3698C89.0555 12.4956 89.0773 12.6344 89.0904 12.7776C89.1079 12.9208 89.1123 13.0726 89.1123 13.2288C89.1123 13.4024 89.0991 13.5803 89.0817 13.7668C89.0598 13.9534 89.0336 14.1313 89.003 14.3048C88.8894 14.2788 88.7715 14.2658 88.6492 14.2658C88.5268 14.2658 88.4263 14.2658 88.3564 14.2658C87.9676 14.2658 87.5963 14.3178 87.2424 14.4263C86.8885 14.5304 86.574 14.7257 86.29 14.9947C86.0104 15.268 85.7876 15.6411 85.6216 16.1141C85.4555 16.587 85.3725 17.1944 85.3725 17.9407V23.4248C85.2153 23.4552 85.0361 23.4725 84.8439 23.4899C84.6473 23.5029 84.4726 23.5116 84.3109 23.5116C84.1536 23.5116 83.9789 23.5029 83.7823 23.4899C83.5901 23.4768 83.4066 23.4552 83.2318 23.4248V12.3915Z" fill="black"/>
<path d="M90.7689 21.4243C91.1577 21.5848 91.5859 21.7063 92.0534 21.8018C92.5252 21.8929 92.9883 21.9406 93.4514 21.9406C93.779 21.9406 94.098 21.9059 94.3994 21.8321C94.7052 21.7627 94.9674 21.6543 95.1902 21.5111C95.413 21.3679 95.5921 21.19 95.7275 20.9818C95.863 20.7735 95.9373 20.5435 95.9373 20.2832C95.9373 19.9969 95.8805 19.7582 95.7712 19.5717C95.6664 19.3851 95.5222 19.2289 95.3431 19.0988C95.1596 18.9729 94.9543 18.8601 94.714 18.7647C94.4781 18.6736 94.2203 18.5825 93.9494 18.4957L93.1936 18.218C92.2718 17.8709 91.599 17.4848 91.184 17.0552C90.7646 16.6257 90.5548 16.0443 90.5548 15.3111C90.5548 14.3349 90.9044 13.5626 91.6034 12.9899C92.3024 12.4128 93.3291 12.1265 94.6834 12.1265C95.247 12.1265 95.7974 12.1829 96.3392 12.287C96.8765 12.3955 97.3528 12.5213 97.7547 12.6645C97.7285 12.9508 97.6717 13.2372 97.593 13.5279C97.5144 13.8142 97.4183 14.0789 97.3003 14.3218C96.9858 14.209 96.6057 14.0962 96.1688 13.9878C95.7275 13.8793 95.2557 13.8272 94.7489 13.8272C94.2203 13.8272 93.7441 13.9183 93.3334 14.1049C92.9228 14.2958 92.7174 14.6212 92.7174 15.0985C92.7174 15.3414 92.7655 15.5497 92.866 15.7189C92.9708 15.8925 93.1062 16.04 93.2766 16.1615C93.4514 16.2829 93.648 16.3871 93.8708 16.4738C94.0936 16.5606 94.3339 16.6474 94.596 16.7342L95.5484 17.0552C95.8936 17.168 96.2212 17.3069 96.5314 17.4631C96.8416 17.6236 97.1081 17.8188 97.3309 18.0531C97.5537 18.2918 97.7328 18.5781 97.8683 18.9165C98.0037 19.2506 98.078 19.6585 98.078 20.1314C98.078 20.6607 97.9688 21.1466 97.7503 21.5848C97.5362 22.0187 97.2304 22.3918 96.8329 22.6999C96.4353 23.0079 95.9591 23.2509 95.3955 23.4244C94.8319 23.5937 94.2159 23.6804 93.5344 23.6804C92.8441 23.6804 92.2412 23.6327 91.7213 23.5416C91.2014 23.4461 90.7209 23.3203 90.2709 23.1641C90.3015 22.8778 90.3626 22.5871 90.4544 22.2964C90.5505 22.0014 90.651 21.7107 90.7689 21.4243Z" fill="black"/>
<path d="M105.236 23.6848C104.367 23.6848 103.615 23.5373 102.964 23.2423C102.313 22.9472 101.776 22.5437 101.343 22.0274C100.911 21.5111 100.592 20.9037 100.382 20.2008C100.173 19.498 100.068 18.7344 100.068 17.9187C100.068 17.103 100.173 16.3394 100.382 15.6365C100.592 14.9337 100.911 14.3262 101.343 13.8099C101.776 13.2936 102.318 12.8858 102.964 12.5864C103.611 12.2827 104.367 12.1309 105.236 12.1309C106.101 12.1309 106.853 12.2827 107.504 12.5864C108.15 12.8858 108.692 13.2936 109.124 13.8099C109.557 14.3262 109.876 14.9337 110.085 15.6365C110.295 16.3394 110.4 17.103 110.4 17.9187C110.4 18.7344 110.295 19.498 110.085 20.2008C109.876 20.9037 109.557 21.5111 109.124 22.0274C108.692 22.5437 108.15 22.9472 107.504 23.2423C106.857 23.5373 106.097 23.6848 105.236 23.6848ZM105.236 21.9841C106.228 21.9841 106.962 21.6283 107.438 20.9081C107.914 20.1922 108.15 19.1943 108.15 17.9187C108.15 16.6431 107.914 15.6495 107.438 14.938C106.962 14.2265 106.228 13.875 105.236 13.875C104.24 13.875 103.506 14.2265 103.039 14.938C102.571 15.6495 102.335 16.6431 102.335 17.9187C102.335 19.1943 102.571 20.1922 103.039 20.9081C103.506 21.6239 104.24 21.9841 105.236 21.9841Z" fill="black"/>
<path d="M113.005 12.3914C113.167 12.361 113.346 12.3393 113.547 12.322C113.748 12.309 113.923 12.3046 114.067 12.3046C114.224 12.3046 114.403 12.309 114.604 12.322C114.81 12.3393 114.989 12.361 115.146 12.3914V18.4352C115.146 19.1251 115.212 19.6934 115.338 20.1447C115.469 20.6002 115.661 20.9517 115.924 21.212C116.186 21.468 116.5 21.6459 116.876 21.7456C117.252 21.8454 117.684 21.8975 118.174 21.8975C118.908 21.8975 119.537 21.8151 120.052 21.6589V12.3871C120.214 12.361 120.389 12.3393 120.581 12.322C120.777 12.309 120.952 12.3003 121.114 12.3003C121.271 12.3003 121.45 12.309 121.642 12.322C121.839 12.335 122.014 12.3567 122.171 12.3871V23.0776C121.669 23.2251 121.066 23.3596 120.367 23.4898C119.668 23.6156 118.942 23.6807 118.195 23.6807C117.492 23.6807 116.824 23.62 116.194 23.4985C115.57 23.377 115.019 23.1297 114.543 22.7566C114.067 22.3834 113.691 21.8628 113.42 21.186C113.145 20.5135 113.01 19.624 113.01 18.5177V12.3914H113.005Z" fill="black"/>
<path d="M125.482 12.3915C125.639 12.3611 125.788 12.3394 125.936 12.322C126.076 12.309 126.229 12.3047 126.391 12.3047C126.548 12.3047 126.705 12.309 126.867 12.322C127.024 12.3394 127.168 12.3611 127.299 12.3915C127.339 12.6041 127.382 12.8904 127.426 13.2375C127.47 13.5933 127.491 13.8883 127.491 14.1313C127.793 13.6453 128.195 13.2245 128.693 12.8644C129.191 12.5043 129.829 12.322 130.606 12.322C130.72 12.322 130.842 12.3307 130.96 12.3351C131.083 12.3437 131.192 12.3524 131.275 12.3698C131.305 12.4956 131.327 12.6344 131.34 12.7776C131.358 12.9208 131.362 13.0726 131.362 13.2288C131.362 13.4024 131.354 13.5803 131.332 13.7668C131.31 13.9534 131.284 14.1313 131.257 14.3048C131.139 14.2788 131.022 14.2658 130.899 14.2658C130.777 14.2658 130.681 14.2658 130.606 14.2658C130.218 14.2658 129.851 14.3178 129.492 14.4263C129.139 14.5304 128.824 14.7257 128.544 14.9947C128.26 15.268 128.038 15.6411 127.872 16.1141C127.706 16.587 127.623 17.1944 127.623 17.9407V23.4248C127.465 23.4552 127.286 23.4725 127.094 23.4899C126.897 23.5029 126.723 23.5116 126.565 23.5116C126.404 23.5116 126.229 23.5029 126.032 23.4899C125.84 23.4768 125.657 23.4552 125.482 23.4248V12.3915Z" fill="black"/>
<path d="M140.525 21.5111C140.638 21.7107 140.739 21.9624 140.826 22.2661C140.914 22.5654 140.962 22.8735 140.975 23.1902C140.123 23.52 139.153 23.6848 138.061 23.6848C136.213 23.6848 134.824 23.1642 133.889 22.1229C132.949 21.0859 132.482 19.6845 132.482 17.9187C132.482 17.103 132.6 16.3394 132.831 15.6365C133.058 14.9337 133.404 14.3262 133.858 13.8099C134.312 13.2936 134.876 12.8858 135.553 12.5864C136.23 12.2827 137.017 12.1309 137.912 12.1309C138.515 12.1309 139.048 12.1656 139.511 12.2393C139.974 12.3131 140.411 12.4259 140.826 12.5821C140.826 12.8294 140.796 13.1114 140.73 13.4325C140.665 13.7535 140.573 14.0399 140.459 14.2829C139.756 14.0399 138.948 13.9141 138.039 13.9141C136.929 13.9141 136.099 14.2829 135.553 15.0118C135.007 15.745 134.732 16.7125 134.732 17.9143C134.732 19.2941 135.042 20.3006 135.662 20.9384C136.283 21.5806 137.135 21.8973 138.214 21.8973C138.646 21.8973 139.048 21.8669 139.415 21.8105C139.778 21.7541 140.149 21.6543 140.525 21.5111Z" fill="black"/>
<path d="M143.938 11.0725C143.907 10.899 143.89 10.7124 143.881 10.5128C143.877 10.3133 143.872 10.131 143.872 9.97484C143.872 9.81865 143.872 9.64076 143.881 9.44118C143.89 9.23726 143.907 9.05937 143.938 8.90318C144.126 8.87281 144.327 8.85545 144.541 8.8381C144.759 8.82508 144.943 8.81641 145.104 8.81641C145.262 8.81641 145.45 8.82508 145.668 8.8381C145.882 8.85112 146.079 8.87281 146.249 8.90318C146.28 9.05937 146.297 9.23726 146.306 9.44118C146.31 9.64076 146.315 9.81865 146.315 9.97484C146.315 10.1354 146.31 10.3133 146.306 10.5128C146.297 10.7124 146.28 10.899 146.249 11.0725C146.079 11.1029 145.886 11.1246 145.677 11.1376C145.471 11.1506 145.284 11.1593 145.126 11.1593C144.956 11.1593 144.759 11.1506 144.545 11.1376C144.322 11.1246 144.121 11.1029 143.938 11.0725Z" fill="black"/>
<path d="M149.556 12.3912C149.714 12.3608 149.871 12.3391 150.02 12.3218C150.168 12.3087 150.325 12.3044 150.483 12.3044C150.644 12.3044 150.789 12.3087 150.928 12.3218C151.064 12.3391 151.212 12.3608 151.37 12.3912C151.413 12.6038 151.457 12.8945 151.501 13.2589C151.54 13.6277 151.566 13.9314 151.566 14.1744C151.706 13.9314 151.894 13.6885 152.117 13.4455C152.339 13.2025 152.593 12.9812 152.881 12.7903C153.17 12.5951 153.502 12.4346 153.877 12.3131C154.253 12.1916 154.664 12.1309 155.109 12.1309C156.376 12.1309 157.311 12.4953 157.918 13.2199C158.521 13.9401 158.823 15.0161 158.823 16.4349V23.4288C158.666 23.4549 158.486 23.4766 158.285 23.4939C158.084 23.5069 157.901 23.5156 157.744 23.5156C157.586 23.5156 157.412 23.5069 157.215 23.4939C157.023 23.4766 156.844 23.4592 156.686 23.4288V17.0162C156.686 15.9966 156.525 15.2504 156.21 14.7688C155.891 14.2872 155.389 14.0486 154.699 14.0486C154.292 14.0486 153.912 14.118 153.55 14.2612C153.191 14.4043 152.872 14.6256 152.597 14.9293C152.322 15.2287 152.104 15.6192 151.938 16.1008C151.771 16.5824 151.693 17.1594 151.693 17.8319V23.4245C151.531 23.4549 151.356 23.4722 151.16 23.4896C150.968 23.5026 150.789 23.5113 150.631 23.5113C150.47 23.5113 150.295 23.5026 150.094 23.4896C149.889 23.4766 149.709 23.4549 149.552 23.4245V12.3912H149.556Z" fill="black"/>
<path d="M161.318 17.7538C161.318 16.0009 161.724 14.6039 162.537 13.5669C163.354 12.53 164.433 12.0137 165.778 12.0137C167.155 12.0137 168.234 12.4996 169.003 13.4715L169.099 12.2219H170.864V23.2032C170.864 24.661 170.427 25.8064 169.562 26.6438C168.692 27.4811 167.53 27.902 166.067 27.902C165.254 27.902 164.455 27.7285 163.677 27.3814C162.895 27.0343 162.301 26.5613 161.89 25.9583L162.891 24.8042C163.721 25.8238 164.734 26.3314 165.931 26.3314C166.871 26.3314 167.604 26.0711 168.129 25.5417C168.657 25.0124 168.92 24.2748 168.92 23.316V22.3528C168.146 23.2379 167.089 23.6804 165.752 23.6804C164.433 23.6804 163.358 23.1511 162.541 22.0881C161.724 21.0295 161.318 19.5847 161.318 17.7538ZM163.258 17.9707C163.258 19.2376 163.52 20.2355 164.04 20.9601C164.564 21.6846 165.298 22.0448 166.233 22.0448C167.452 22.0448 168.347 21.4937 168.92 20.3917V15.259C168.33 14.183 167.438 13.645 166.255 13.645C165.315 13.645 164.581 14.0095 164.053 14.7384C163.524 15.4673 163.258 16.5433 163.258 17.9707Z" fill="black"/>
<path d="M68.1277 15.1766C67.9049 14.4824 67.5947 13.9054 67.1971 13.4542C66.7996 13.0029 66.3234 12.6732 65.7729 12.4563C65.218 12.2393 64.6151 12.1309 63.9642 12.1309C63.536 12.1309 63.1428 12.1829 62.789 12.2827C62.4351 12.3825 62.1205 12.517 61.8366 12.6906C61.557 12.8641 61.3123 13.055 61.1113 13.2719C60.9104 13.4845 60.7356 13.7101 60.5958 13.9401C60.5958 13.8967 60.5827 13.7969 60.5609 13.6364C60.539 13.4802 60.5172 13.3153 60.4953 13.1418C60.4735 12.9726 60.4516 12.8077 60.4298 12.6602C60.408 12.5127 60.3905 12.4216 60.3774 12.3912C60.2288 12.3651 60.0803 12.3435 59.923 12.3261C59.7614 12.3131 59.6128 12.3044 59.4643 12.3044C59.307 12.3044 59.1541 12.3131 59.0012 12.3261C58.8526 12.3391 58.7041 12.3608 58.5599 12.3912V28.5008L60.7007 27.7806V23.4462C60.9453 23.52 61.2337 23.5764 61.5657 23.6197C61.8977 23.6588 62.221 23.6848 62.5399 23.6848C64.4273 23.6848 65.8821 23.1512 66.9175 22.0795C67.9442 21.0122 68.4597 19.5327 68.4597 17.6367C68.4597 16.6908 68.3505 15.8708 68.1277 15.1766ZM65.9433 19.5848C65.7641 20.1097 65.5195 20.5436 65.2093 20.8864C64.8991 21.2335 64.5278 21.4894 64.0952 21.65C63.6627 21.8148 63.1865 21.8973 62.671 21.8973C62.2079 21.8973 61.8366 21.8756 61.5482 21.8322C61.2599 21.7888 60.9759 21.7194 60.705 21.6196V17.1421C60.705 16.5997 60.7837 16.1268 60.941 15.732C61.1026 15.3415 61.3079 15.0118 61.5657 14.7558C61.8278 14.4955 62.1249 14.3045 62.4526 14.1744C62.7846 14.0486 63.1297 13.9791 63.488 13.9791C64.4579 13.9791 65.1481 14.3176 65.5763 14.9901C66.0001 15.6669 66.2141 16.578 66.2141 17.7234C66.2141 18.4437 66.1224 19.0641 65.9433 19.5848Z" fill="black"/>
<path d="M144.044 12.799V23.4288C144.206 23.4549 144.381 23.4766 144.577 23.4939C144.77 23.5069 144.94 23.5156 145.084 23.5156C145.246 23.5156 145.421 23.5069 145.613 23.4939C145.809 23.4766 145.984 23.4592 146.146 23.4288V12.0918L144.044 12.799Z" fill="black"/>
<path d="M27.8232 21.5765L27.8276 21.5722L24.9835 18.8302L24.9791 18.8345L24.8437 18.6957L15.6123 9.7666L8.65279 20.084L2.16945 29.6552C1.4748 30.6791 2.49711 32.3018 3.60679 31.9287L27.5305 23.863C28.4174 23.568 28.4742 22.2751 27.8232 21.5765Z" fill="url(#paint0_linear_1_1549)"/>
<path d="M19.5722 13.6064L13.849 22.0539L27.0822 23.9065C28.2399 24.0714 28.7118 22.4227 27.7681 21.5116L19.5722 13.6064Z" fill="url(#paint1_linear_1_1549)"/>
<path d="M1.63872 10.287L13.8452 22.0535L27.2095 2.32978C27.9041 1.30584 26.8862 -0.312493 25.7765 0.0519581L1.879 7.9267C1.0096 8.21306 0.87417 9.54938 1.63872 10.287Z" fill="url(#paint2_linear_1_1549)"/>
</g>
</g>
<defs>
<linearGradient id="paint0_linear_1_1549" x1="16.3988" y1="23.031" x2="-8.77409" y2="53.016" gradientUnits="userSpaceOnUse">
<stop offset="0.00186302" stop-color="#0096E3"/>
<stop offset="0.2137" stop-color="#00A8FF"/>
<stop offset="0.3791" stop-color="#24B4FF"/>
<stop offset="0.5807" stop-color="#4CC2FF"/>
</linearGradient>
<linearGradient id="paint1_linear_1_1549" x1="18.5815" y1="4.98474" x2="26.8705" y2="63.5513" gradientUnits="userSpaceOnUse">
<stop offset="0.013" stop-color="#26B2FA"/>
<stop offset="0.4657" stop-color="#36B5F7"/>
</linearGradient>
<linearGradient id="paint2_linear_1_1549" x1="3.50334" y1="11.0082" x2="36.3665" y2="7.42246" gradientUnits="userSpaceOnUse">
<stop stop-color="#21A7EB"/>
<stop offset="1" stop-color="#18AAF5"/>
</linearGradient>
<clipPath id="clip0_1_1549">
<rect width="170" height="33" fill="white" transform="translate(0.973999)"/>
</clipPath>
</defs>
</svg>
