<svg width="487" height="430" viewBox="0 0 487 430" fill="none" xmlns="http://www.w3.org/2000/svg">
<path d="M240.412 429.595C373.188 429.595 480.824 422.785 480.824 414.384C480.824 405.984 373.188 399.173 240.412 399.173C107.636 399.173 0 405.984 0 414.384C0 422.785 107.636 429.595 240.412 429.595Z" fill="#DBE6F7"/>
<path d="M147.474 45.5257C147.474 46.6623 147.011 47.6978 146.257 48.4475C145.511 49.2016 144.476 49.6656 143.339 49.6656H54.8437C52.5706 49.6656 50.7082 47.8032 50.7082 45.5257C50.7082 44.3891 51.1711 43.3536 51.9262 42.6039C52.6706 41.8487 53.7072 41.3858 54.8437 41.3858H59.026C60.6776 37.5469 64.4926 34.8642 68.9334 34.8642C71.9226 34.8642 74.625 36.0811 76.583 38.0435C79.1897 33.6222 83.9978 30.6526 89.5035 30.6526C91.0171 30.6526 92.4732 30.8818 93.8488 31.2969C96.7282 25.8825 102.42 22.1968 108.981 22.1968C116.859 22.1968 123.486 27.5156 125.487 34.7544C126.938 34.0286 128.576 33.6135 130.315 33.6135C135.228 33.6135 139.372 36.8939 140.676 41.3869H143.34C145.611 41.3858 147.474 43.2482 147.474 45.5257Z" fill="#DBE6F7"/>
<path d="M486.999 100.517C486.999 101.654 486.537 102.689 485.781 103.439C485.036 104.193 484 104.657 482.864 104.657H394.368C392.095 104.657 390.233 102.795 390.233 100.517C390.233 99.3806 390.696 98.3451 391.451 97.5953C392.195 96.8412 393.232 96.3773 394.368 96.3773H398.551C400.202 92.5384 404.017 89.8545 408.458 89.8545C411.447 89.8545 414.15 91.0715 416.108 93.0338C418.714 88.6125 423.522 85.6429 429.028 85.6429C430.542 85.6429 431.998 85.8722 433.373 86.2873C436.253 80.8728 441.944 77.186 448.505 77.186C456.384 77.186 463.011 82.5049 465.011 89.7437C466.463 89.0178 468.101 88.6028 469.839 88.6028C474.753 88.6028 478.897 91.8832 480.201 96.3762H482.865C485.137 96.3773 486.999 98.2397 486.999 100.517Z" fill="#DBE6F7"/>
<path d="M324.466 55.9202C324.466 57.0568 324.003 58.0934 323.248 58.842C322.503 59.5972 321.467 60.0601 320.331 60.0601H231.835C229.562 60.0601 227.701 58.1977 227.701 55.9202C227.701 54.7837 228.164 53.7481 228.919 52.9984C229.663 52.2432 230.7 51.7803 231.836 51.7803H236.019C237.671 47.9414 241.486 45.2576 245.927 45.2576C248.916 45.2576 251.618 46.4746 253.576 48.4369C256.183 44.0156 260.991 41.046 266.497 41.046C268.011 41.046 269.467 41.2753 270.842 41.6903C273.722 36.2759 279.413 32.5891 285.974 32.5891C293.853 32.5891 300.48 37.909 302.48 45.1467C303.932 44.4209 305.569 44.0058 307.308 44.0058C312.222 44.0058 316.366 47.2862 317.67 51.7793H320.334C322.604 51.7803 324.466 53.6427 324.466 55.9202Z" fill="#DBE6F7"/>
<path d="M41.1643 153.428C44.7533 165.492 56.8024 165.116 56.546 174.91C56.2895 184.703 62.4439 192.138 70.9019 190.344C79.3631 188.548 85.4882 186.754 89.3488 196.496C93.2062 206.239 105.513 211.109 110.383 203.417C111.597 201.503 112.907 199.429 114.188 197.393C114.538 196.837 114.888 196.283 115.231 195.738C115.312 195.612 115.392 195.486 115.47 195.36C120.627 187.172 118.925 176.323 111.322 170.338C108.243 167.916 104.562 166.555 100.386 167.783C87.3115 171.628 92.0229 158.478 84.2332 152.915C75.2613 146.504 67.565 153.76 61.4182 148.299C52.8668 140.705 37.5764 141.363 41.1643 153.428Z" fill="#BBD4F2"/>
<path d="M56.7616 158.643L114.186 197.394C114.536 196.838 114.886 196.285 115.23 195.739L57.8569 157.023C57.4092 156.721 56.8008 156.838 56.4998 157.286C56.1966 157.733 56.314 158.341 56.7616 158.643Z" fill="#A4C8F2"/>
<path d="M325.246 95.3136C338.766 89.6808 350.53 81.8552 344.003 77.1666C337.471 72.4726 317.482 86.3222 308.231 102.637L303.756 107.434C310.706 95.6624 312.74 78.6541 306.728 75.4248C300.754 72.2151 300.428 83.659 301.873 94.1619C302.974 102.156 301.861 107.642 301.021 110.367L279.889 133.026C290.841 114.352 294.025 87.5033 284.512 82.3931C275.032 77.3003 274.515 95.4592 276.808 112.123C278.541 124.717 276.814 133.392 275.485 137.747L271.272 142.265C271.94 143.118 272.614 143.968 273.293 144.813L298.433 117.856C301.442 117.094 305.789 116.468 311.452 116.849C322.03 117.559 333.423 116.437 329.806 110.701C326.667 105.723 313.722 107.427 302.998 112.962L311.692 103.639C314.874 101.215 319.41 97.7443 325.246 95.3136Z" fill="#DBE6F7"/>
<path d="M56.3574 104.731C54.9438 116.398 65.4032 120.556 61.5415 128.849C57.6809 137.14 60.1855 145.797 68.0969 147.405C76.0105 149.013 81.9236 149.754 81.6064 159.532C81.2869 169.31 90.0143 178.057 97.0456 173.281C98.7972 172.093 100.69 170.803 102.545 169.537C103.051 169.191 103.556 168.847 104.053 168.507C104.169 168.429 104.284 168.351 104.399 168.273C111.859 163.179 114.435 153.254 110.15 145.301C108.415 142.083 105.768 139.547 101.735 139.047C89.1081 137.478 98.0333 127.967 93.4316 120.307C88.1324 111.481 78.8432 114.832 75.6095 107.869C71.11 98.1869 57.77 93.0648 56.3574 104.731Z" fill="#DBE6F7"/>
<path d="M67.7757 114.999L102.544 169.539C103.051 169.192 103.556 168.849 104.052 168.509L69.3165 114.019C69.046 113.594 68.4809 113.468 68.0561 113.739C67.6302 114.009 67.5052 114.574 67.7757 114.999Z" fill="#BBD4F2"/>
<path d="M336.597 340.002C332.921 352.359 320.579 351.975 320.842 362.008C321.105 372.038 314.8 379.655 306.136 377.817C297.469 375.977 291.194 374.139 287.24 384.118C283.288 394.097 270.684 399.086 265.694 391.207C264.45 389.247 263.109 387.121 261.796 385.037C261.437 384.468 261.08 383.901 260.728 383.342C260.645 383.213 260.563 383.083 260.483 382.955C255.201 374.569 256.945 363.454 264.733 357.325C267.886 354.844 271.657 353.449 275.933 354.708C289.327 358.647 284.5 345.176 292.479 339.478C301.668 332.912 309.551 340.344 315.849 334.749C324.61 326.969 340.273 327.643 336.597 340.002Z" fill="#BBD4F2"/>
<path d="M320.619 345.343L261.797 385.036C261.438 384.467 261.081 383.9 260.729 383.341L319.497 343.684C319.955 343.375 320.578 343.495 320.887 343.954C321.197 344.411 321.078 345.035 320.619 345.343Z" fill="#A4C8F2"/>
<path d="M315.264 294.369C316.711 306.319 305.999 310.579 309.954 319.074C313.909 327.566 311.343 336.433 303.239 338.08C295.133 339.727 289.075 340.487 289.4 350.503C289.727 360.519 280.787 369.478 273.585 364.586C271.791 363.37 269.851 362.049 267.952 360.752C267.434 360.397 266.916 360.044 266.407 359.697C266.289 359.616 266.17 359.537 266.053 359.456C258.411 354.239 255.772 344.073 260.161 335.926C261.939 332.63 264.65 330.032 268.78 329.52C281.714 327.913 272.571 318.172 277.286 310.324C282.714 301.284 292.229 304.717 295.542 297.585C300.153 287.666 313.817 282.419 315.264 294.369Z" fill="#DBE6F7"/>
<path d="M303.567 304.886L267.954 360.753C267.435 360.399 266.917 360.045 266.408 359.698L301.99 303.882C302.267 303.446 302.846 303.318 303.281 303.595C303.716 303.872 303.846 304.45 303.567 304.886Z" fill="#BBD4F2"/>
<path d="M478.689 261.185C481.963 261.185 484.628 263.849 484.628 267.124C484.628 270.399 481.963 273.064 478.689 273.064C475.414 273.064 472.749 270.399 472.749 267.124C472.749 263.849 475.414 261.185 478.689 261.185ZM478.689 263.047C476.441 263.047 474.613 264.876 474.613 267.123C474.613 269.37 476.441 271.199 478.689 271.199C480.937 271.199 482.764 269.37 482.764 267.123C482.765 264.876 480.937 263.047 478.689 263.047Z" fill="#4F60D9"/>
<path d="M472.648 230.998C475.923 230.998 478.587 233.662 478.587 236.937C478.587 240.212 475.923 242.876 472.648 242.876C469.373 242.876 466.709 240.212 466.709 236.937C466.708 233.663 469.373 230.998 472.648 230.998ZM472.648 232.861C470.4 232.861 468.572 234.69 468.572 236.937C468.572 239.184 470.401 241.013 472.648 241.013C474.896 241.013 476.724 239.184 476.724 236.937C476.724 234.69 474.895 232.861 472.648 232.861Z" fill="#707FFF"/>
<path d="M454.583 222.63C454.583 223.144 455.001 223.561 455.515 223.561H459.623C460.138 223.561 460.554 223.144 460.554 222.63C460.554 222.116 460.137 221.699 459.623 221.699H455.515C455 221.698 454.583 222.115 454.583 222.63Z" fill="#1D38C8"/>
<path d="M447.394 222.63C447.394 223.144 447.811 223.561 448.325 223.561H452.433C452.948 223.561 453.365 223.144 453.365 222.63C453.365 222.116 452.947 221.699 452.433 221.699H448.325C447.811 221.698 447.394 222.115 447.394 222.63Z" fill="#1D38C8"/>
<path d="M453.04 216.869V220.56C453.04 221.075 453.457 221.492 453.972 221.492C454.487 221.492 454.903 221.075 454.903 220.56V216.869C454.903 216.355 454.486 215.938 453.972 215.938C453.457 215.937 453.04 216.355 453.04 216.869Z" fill="#1D38C8"/>
<path d="M453.04 224.713V228.404C453.04 228.918 453.457 229.335 453.972 229.335C454.487 229.335 454.903 228.918 454.903 228.404V224.713C454.903 224.198 454.486 223.781 453.972 223.781C453.457 223.78 453.04 224.198 453.04 224.713Z" fill="#1D38C8"/>
<path d="M461.278 254.358C461.278 254.872 461.696 255.289 462.209 255.289H466.318C466.833 255.289 467.249 254.872 467.249 254.358C467.249 253.843 466.832 253.426 466.318 253.426H462.209C461.696 253.426 461.278 253.843 461.278 254.358Z" fill="#707FFF"/>
<path d="M454.088 254.358C454.088 254.872 454.505 255.29 455.02 255.29H459.129C459.644 255.29 460.061 254.872 460.061 254.358C460.061 253.843 459.644 253.426 459.129 253.426H455.02C454.505 253.426 454.088 253.843 454.088 254.358Z" fill="#707FFF"/>
<path d="M459.738 248.59V252.281C459.738 252.795 460.155 253.212 460.669 253.212C461.184 253.212 461.6 252.795 461.6 252.281V248.59C461.6 248.076 461.183 247.659 460.669 247.659C460.155 247.659 459.738 248.076 459.738 248.59Z" fill="#707FFF"/>
<path d="M459.738 256.431V260.122C459.738 260.636 460.155 261.054 460.669 261.054C461.184 261.054 461.6 260.636 461.6 260.122V256.431C461.6 255.917 461.183 255.5 460.669 255.5C460.155 255.5 459.738 255.917 459.738 256.431Z" fill="#707FFF"/>
<path d="M28.4326 117.468C28.4326 120.743 25.7683 123.408 22.4933 123.408C19.2183 123.408 16.554 120.743 16.554 117.468C16.554 114.193 19.2183 111.529 22.4933 111.529C25.7683 111.529 28.4326 114.193 28.4326 117.468ZM18.4175 117.468C18.4175 119.715 20.2463 121.544 22.4933 121.544C24.7414 121.544 26.5691 119.715 26.5691 117.468C26.5691 115.221 24.7404 113.393 22.4933 113.393C20.2463 113.393 18.4175 115.22 18.4175 117.468Z" fill="#4F60D9"/>
<path d="M34.4745 87.2811C34.4745 90.556 31.8102 93.2203 28.5353 93.2203C25.2603 93.2203 22.596 90.556 22.596 87.2811C22.596 84.0061 25.2603 81.3418 28.5353 81.3418C31.8102 81.3418 34.4745 84.0061 34.4745 87.2811ZM24.4595 87.2811C24.4595 89.5281 26.2882 91.3568 28.5353 91.3568C30.7834 91.3568 32.611 89.5281 32.611 87.2811C32.611 85.034 30.7823 83.2053 28.5353 83.2053C26.2882 83.2042 24.4595 85.0329 24.4595 87.2811Z" fill="#1D38C8"/>
<path d="M46.6018 72.9749C46.6018 73.4889 46.1845 73.9061 45.6706 73.9061H41.5622C41.0483 73.9061 40.631 73.4889 40.631 72.9749C40.631 72.4599 41.0483 72.0437 41.5622 72.0437H45.6706C46.1845 72.0437 46.6018 72.461 46.6018 72.9749Z" fill="#4F60D9"/>
<path d="M53.7919 72.9749C53.7919 73.4889 53.3746 73.9061 52.8607 73.9061H48.7523C48.2373 73.9061 47.8211 73.4889 47.8211 72.9749C47.8211 72.4599 48.2384 72.0437 48.7523 72.0437H52.8607C53.3746 72.0437 53.7919 72.461 53.7919 72.9749Z" fill="#4F60D9"/>
<path d="M48.1471 67.2088V70.8999C48.1471 71.415 47.7299 71.8322 47.2159 71.8322C46.7009 71.8322 46.2847 71.415 46.2847 70.8999V67.2088C46.2847 66.6948 46.7019 66.2776 47.2159 66.2776C47.7299 66.2765 48.1471 66.6937 48.1471 67.2088Z" fill="#4F60D9"/>
<path d="M48.1471 75.0528V78.7439C48.1471 79.2579 47.7299 79.6751 47.2159 79.6751C46.7009 79.6751 46.2847 79.2579 46.2847 78.7439V75.0528C46.2847 74.5377 46.7019 74.1216 47.2159 74.1216C47.7299 74.1216 48.1471 74.5377 48.1471 75.0528Z" fill="#4F60D9"/>
<path d="M39.9015 104.701C39.9015 105.215 39.4843 105.632 38.9703 105.632H34.8619C34.3469 105.632 33.9307 105.215 33.9307 104.701C33.9307 104.186 34.348 103.77 34.8619 103.77H38.9703C39.4843 103.768 39.9015 104.186 39.9015 104.701Z" fill="#707FFF"/>
<path d="M47.0901 104.701C47.0901 105.215 46.6729 105.632 46.1578 105.632H42.0495C41.5344 105.632 41.1172 105.215 41.1172 104.701C41.1172 104.186 41.5344 103.77 42.0495 103.77H46.1578C46.6729 103.768 47.0901 104.186 47.0901 104.701Z" fill="#707FFF"/>
<path d="M41.4441 98.9363V102.627C41.4441 103.141 41.0269 103.559 40.5129 103.559C39.9979 103.559 39.5817 103.141 39.5817 102.627V98.9363C39.5817 98.4224 39.9989 98.0051 40.5129 98.0051C41.0269 98.0051 41.4441 98.4224 41.4441 98.9363Z" fill="#707FFF"/>
<path d="M41.4441 106.78V110.471C41.4441 110.985 41.0269 111.403 40.5129 111.403C39.9979 111.403 39.5817 110.985 39.5817 110.471V106.78C39.5817 106.266 39.9989 105.849 40.5129 105.849C41.0269 105.848 41.4441 106.265 41.4441 106.78Z" fill="#707FFF"/>
<path d="M391.97 119.36V134.352C391.97 136.333 393.578 137.941 395.559 137.941H422.78L430.998 140.89C431.842 141.193 432.649 140.363 432.325 139.528L429.217 131.5V119.36C429.217 117.378 427.609 115.771 425.626 115.771H395.559C393.577 115.771 391.97 117.378 391.97 119.36Z" fill="#4F60D9"/>
<g opacity="0.5">
<path d="M415.612 127.279C415.612 128.713 416.775 129.876 418.209 129.876C419.643 129.876 420.806 128.713 420.806 127.279C420.806 125.845 419.643 124.682 418.209 124.682C416.775 124.683 415.612 125.845 415.612 127.279Z" fill="#707FFF"/>
<path d="M407.393 127.279C407.393 128.713 408.556 129.876 409.99 129.876C411.425 129.876 412.587 128.713 412.587 127.279C412.587 125.845 411.425 124.682 409.99 124.682C408.556 124.683 407.393 125.845 407.393 127.279Z" fill="#707FFF"/>
<path d="M399.174 127.279C399.174 128.713 400.336 129.876 401.77 129.876C403.205 129.876 404.367 128.713 404.367 127.279C404.367 125.845 403.205 124.682 401.77 124.682C400.336 124.682 399.174 125.845 399.174 127.279Z" fill="#707FFF"/>
</g>
<path d="M98.7912 116.799V397.045C98.7912 405.83 105.911 412.95 114.696 412.95H254.252C258.666 412.95 262.656 411.154 265.539 408.253C268.393 405.376 270.156 401.418 270.156 397.045V116.799C270.156 108.014 263.037 100.895 254.252 100.895H114.696C112.099 100.895 109.647 101.517 107.482 102.622C102.322 105.25 98.7912 110.611 98.7912 116.799Z" fill="#3B3E7D"/>
<path d="M104.713 116.799V397.045C104.713 405.83 111.832 412.949 120.617 412.949H260.174C264.587 412.949 268.577 411.153 271.46 408.253C274.313 405.376 276.078 401.417 276.078 397.045V116.799C276.078 108.014 268.959 100.895 260.174 100.895H120.617C118.02 100.895 115.569 101.516 113.404 102.621C108.243 105.25 104.713 110.611 104.713 116.799Z" fill="#18285D"/>
<path d="M101.699 169.821H99.8929C97.6219 169.821 95.7813 167.98 95.7813 165.709V148.623C95.7813 146.352 97.6219 144.511 99.8929 144.511H101.699V169.821Z" fill="#18285D"/>
<path d="M101.699 202.919H99.8929C97.6219 202.919 95.7813 201.079 95.7813 198.808V181.721C95.7813 179.45 97.6219 177.61 99.8929 177.61H101.699V202.919Z" fill="#18285D"/>
<path d="M276.082 169.822H277.497C279.277 169.822 280.719 168.379 280.719 166.6V147.734C280.719 145.955 279.277 144.512 277.497 144.512H276.082V169.822Z" fill="#18285D"/>
<path d="M268.148 115.837V398.006C268.148 398.979 267.951 399.905 267.592 400.747C266.522 403.26 264.039 405.012 261.143 405.012H119.661C115.796 405.012 112.656 401.882 112.656 398.005V115.837C112.656 115.446 112.686 115.06 112.751 114.685C113.145 112.302 114.75 110.323 116.909 109.388C117.36 109.198 117.829 109.051 118.32 108.959C118.752 108.872 119.203 108.829 119.661 108.829H261.143C265.011 108.829 268.148 111.969 268.148 115.837Z" fill="white"/>
<path d="M268.146 115.838V130.305H112.653V115.838C112.653 115.446 112.683 115.061 112.748 114.686C113.142 112.303 114.747 110.323 116.906 109.389C117.357 109.199 117.827 109.052 118.317 108.959C118.749 108.873 119.2 108.829 119.659 108.829H261.14C265.009 108.829 268.146 111.969 268.146 115.838Z" fill="#DBE6F7"/>
<path d="M243.595 108.822L236.38 119.799C234.367 122.861 230.949 124.706 227.284 124.706H157.557C153.892 124.706 150.473 122.862 148.461 119.799L141.246 108.822C141.246 107.684 142.176 106.752 143.317 106.752H241.525C242.662 106.752 243.595 107.685 243.595 108.822Z" fill="#18285D"/>
<path opacity="0.3" d="M217.158 116.76H156.624C155.627 116.76 154.811 115.944 154.811 114.947V114.157C154.811 113.161 155.627 112.345 156.624 112.345H217.158C218.155 112.345 218.971 113.161 218.971 114.157V114.947C218.972 115.945 218.156 116.76 217.158 116.76Z" fill="#DBE6F7"/>
<path opacity="0.3" d="M230.681 114.406C230.681 115.869 229.496 117.055 228.032 117.055C226.569 117.055 225.383 115.87 225.383 114.406C225.383 112.944 226.569 111.757 228.032 111.757C229.496 111.757 230.681 112.943 230.681 114.406Z" fill="#DBE6F7"/>
<path d="M125.942 304.106C125.942 305.399 126.99 306.446 128.283 306.446H184.221C185.513 306.446 186.562 305.399 186.562 304.106C186.562 302.814 185.514 301.765 184.221 301.765H128.283C126.99 301.766 125.942 302.814 125.942 304.106Z" fill="#DBE6F7"/>
<path d="M196.894 304.106C196.894 305.399 197.941 306.446 199.234 306.446H255.174C256.466 306.446 257.514 305.399 257.514 304.106C257.514 302.814 256.467 301.765 255.174 301.765H199.234C197.941 301.766 196.894 302.814 196.894 304.106Z" fill="#DBE6F7"/>
<path d="M125.942 317.152C125.942 318.445 126.99 319.493 128.283 319.493H184.221C185.513 319.493 186.562 318.445 186.562 317.152C186.562 315.86 185.514 314.812 184.221 314.812H128.283C126.99 314.813 125.942 315.86 125.942 317.152Z" fill="#DBE6F7"/>
<path d="M196.894 317.152C196.894 318.445 197.941 319.493 199.234 319.493H255.174C256.466 319.493 257.514 318.445 257.514 317.152C257.514 315.86 256.467 314.812 255.174 314.812H199.234C197.941 314.813 196.894 315.86 196.894 317.152Z" fill="#DBE6F7"/>
<path d="M125.942 330.201C125.942 331.493 126.99 332.541 128.283 332.541H184.221C185.513 332.541 186.562 331.494 186.562 330.201C186.562 328.909 185.514 327.86 184.221 327.86H128.283C126.99 327.861 125.942 328.909 125.942 330.201Z" fill="#DBE6F7"/>
<path d="M196.894 330.201C196.894 331.493 197.941 332.541 199.234 332.541H255.174C256.466 332.541 257.514 331.494 257.514 330.201C257.514 328.909 256.467 327.86 255.174 327.86H199.234C197.941 327.861 196.894 328.909 196.894 330.201Z" fill="#DBE6F7"/>
<path d="M125.942 343.25C125.942 344.542 126.99 345.59 128.283 345.59H184.221C185.513 345.59 186.562 344.543 186.562 343.25C186.562 341.958 185.514 340.909 184.221 340.909H128.283C126.99 340.909 125.942 341.958 125.942 343.25Z" fill="#DBE6F7"/>
<path d="M196.894 343.25C196.894 344.542 197.941 345.59 199.234 345.59H255.174C256.466 345.59 257.514 344.543 257.514 343.25C257.514 341.958 256.467 340.909 255.174 340.909H199.234C197.941 340.909 196.894 341.958 196.894 343.25Z" fill="#DBE6F7"/>
<path d="M161.735 373.671H129.942C127.746 373.671 125.968 371.891 125.968 369.696V365.81C125.968 363.614 127.747 361.834 129.942 361.834H161.734C163.93 361.834 165.709 363.614 165.709 365.81V369.696C165.709 371.891 163.93 373.671 161.735 373.671Z" fill="#DBE6F7"/>
<path d="M207.993 373.671H176.202C174.006 373.671 172.226 371.891 172.226 369.696V365.81C172.226 363.614 174.006 361.834 176.202 361.834H207.993C210.189 361.834 211.968 363.614 211.968 365.81V369.696C211.969 371.891 210.189 373.671 207.993 373.671Z" fill="#DBE6F7"/>
<path d="M253.542 373.671H221.75C219.555 373.671 217.775 371.891 217.775 369.696V365.81C217.775 363.614 219.555 361.834 221.75 361.834H253.542C255.737 361.834 257.517 363.614 257.517 365.81V369.696C257.517 371.891 255.737 373.671 253.542 373.671Z" fill="#DBE6F7"/>
<path d="M268.145 172.378V278.93H134.31V172.378H140.465L140.408 172.318L140.476 172.378H268.145Z" fill="#DBE6F7"/>
<path d="M296.024 164.144H141.771V270.697H296.024V164.144Z" fill="#1D38C8"/>
<path d="M302.199 164.144H147.947V270.697H302.199V164.144Z" fill="#4F60D9"/>
<path d="M147.87 164.084L219.294 238.431C222.427 241.692 227.644 241.692 230.776 238.431L302.201 164.084L230.329 228.052C227.311 230.737 222.761 230.737 219.743 228.052L147.87 164.084Z" fill="#1D38C8"/>
<path d="M210.212 219.287L152.415 270.697H147.947V267.98L206.89 215.554L210.212 219.287Z" fill="#1D38C8"/>
<path d="M302.201 268.341V270.697H297.328L239.53 219.287L242.852 215.554L302.201 268.341Z" fill="#1D38C8"/>
<path d="M147.941 164.143L219.984 228.216C222.883 230.794 227.253 230.794 230.152 228.216L302.195 164.143H147.941Z" fill="#707FFF"/>
<g opacity="0.5">
<path d="M223.204 174.12H169.812C168.036 174.12 166.596 172.681 166.596 170.904C166.596 169.127 168.036 167.688 169.812 167.688H223.204C224.98 167.688 226.42 169.127 226.42 170.904C226.42 172.681 224.98 174.12 223.204 174.12Z" fill="#707FFF"/>
</g>
<g opacity="0.5">
<path d="M239.545 174.12H234.142C232.365 174.12 230.926 172.681 230.926 170.904C230.926 169.127 232.365 167.688 234.142 167.688H239.545C241.322 167.688 242.762 169.127 242.762 170.904C242.762 172.681 241.322 174.12 239.545 174.12Z" fill="#707FFF"/>
</g>
<path d="M278.001 173.12H261.726C257.413 173.12 253.916 169.623 253.916 165.309V149.034C253.916 144.722 257.413 141.225 261.725 141.225H278.001C282.315 141.225 285.81 144.722 285.81 149.034V165.309C285.81 169.624 282.314 173.12 278.001 173.12Z" fill="#1D38C8"/>
<path d="M280.819 173.12H264.544C260.231 173.12 256.734 169.623 256.734 165.309V149.034C256.734 144.722 260.231 141.225 264.543 141.225H280.818C285.132 141.225 288.628 144.722 288.628 149.034V165.309C288.628 169.624 285.132 173.12 280.819 173.12Z" fill="#4F60D9"/>
<path d="M273.473 147.169L273.29 160.703H271.156L270.973 147.169H273.473ZM272.223 166.146C271.769 166.146 271.38 165.983 271.055 165.659C270.73 165.334 270.568 164.945 270.568 164.491C270.568 164.037 270.73 163.648 271.055 163.323C271.38 162.998 271.769 162.836 272.223 162.836C272.677 162.836 273.066 162.998 273.391 163.323C273.716 163.648 273.878 164.037 273.878 164.491C273.878 164.791 273.801 165.067 273.648 165.318C273.501 165.57 273.302 165.772 273.051 165.925C272.805 166.072 272.53 166.146 272.223 166.146Z" fill="white"/>
<path d="M332.299 394.899L331.691 405.864L340.586 406.059L341.674 394.54L332.299 394.899Z" fill="#FDA893"/>
<path d="M335.218 404.322C335.218 404.322 339.798 403.285 341.051 403.356C342.304 403.429 350.346 413.138 353.152 413.798C358.242 414.996 357.945 423.003 354.809 423.282C345.74 424.089 330.445 419.691 330.445 419.691C330.445 419.691 329.412 409.363 330.153 406.162C330.892 402.963 332.66 405.175 335.218 404.322Z" fill="#707FFF"/>
<path d="M342.359 413.378C342.196 413.407 342.024 413.372 341.879 413.268C341.6 413.065 341.539 412.674 341.742 412.394C341.81 412.301 343.43 410.098 345.357 409.383C347.922 408.429 349.661 410.014 349.734 410.081C349.987 410.316 350 410.712 349.764 410.965C349.53 411.218 349.133 411.232 348.88 410.996C348.833 410.954 347.618 409.88 345.792 410.556C344.222 411.138 342.768 413.11 342.754 413.131C342.655 413.266 342.512 413.349 342.359 413.378Z" fill="#FEFDFF"/>
<path d="M340.703 411.42C340.541 411.449 340.368 411.414 340.223 411.31C339.944 411.107 339.882 410.715 340.086 410.436C340.154 410.343 341.774 408.14 343.701 407.425C346.268 406.471 348.005 408.054 348.078 408.124C348.331 408.359 348.344 408.755 348.108 409.007C347.874 409.261 347.477 409.275 347.224 409.038C347.176 408.995 345.961 407.922 344.136 408.598C342.558 409.183 341.112 411.152 341.098 411.173C340.999 411.308 340.856 411.391 340.703 411.42Z" fill="#FEFDFF"/>
<path d="M344.713 415.08C344.551 415.109 344.377 415.076 344.232 414.97C343.953 414.767 343.891 414.376 344.096 414.095C344.163 414.002 345.783 411.8 347.711 411.085C350.277 410.129 352.015 411.715 352.087 411.782C352.341 412.018 352.354 412.413 352.118 412.667C351.883 412.92 351.487 412.934 351.233 412.697C351.186 412.655 349.971 411.581 348.145 412.257C346.568 412.843 345.121 414.812 345.107 414.831C345.008 414.968 344.866 415.053 344.713 415.08Z" fill="#FEFDFF"/>
<path d="M365.01 261.285C365.01 261.285 364.825 263.86 364.488 268.13C364.401 269.26 364.304 270.51 364.195 271.868C363.043 286.2 360.816 312.115 358.382 330.5C354.97 356.274 344.223 398.629 344.223 398.629L333.129 398.249L332.032 398.205L329.403 398.118C329.403 398.118 331.25 371.323 333.608 348.059C335.161 332.717 336.085 296.414 336.53 273.487C336.759 261.665 336.867 253.396 336.867 253.396L365.01 261.285Z" fill="#3B3E7D"/>
<path d="M365.013 261.285C365.013 261.285 364.828 263.86 364.491 268.13C364.404 269.26 364.306 270.51 364.198 271.868C359.08 272.824 345.009 273.487 336.533 273.487C336.762 261.665 336.87 253.396 336.87 253.396L365.013 261.285Z" fill="#18285D"/>
<path d="M342.847 267.945C342.837 268.825 341.815 352.35 333.133 398.248L332.036 398.204C340.729 352.448 341.75 268.803 341.761 267.934L342.847 267.945Z" fill="#18285D"/>
<path d="M401.877 397L401.513 406.891L392.471 406.413L392.266 395.909L401.877 397Z" fill="#FDA893"/>
<path d="M399.211 406.434C399.211 406.434 401.181 403.868 402.714 404.002C404.246 404.135 415.944 413.721 419.987 414.558C424.032 415.394 423.199 418.369 422.433 419.884C421.667 421.399 390.093 418.831 390.093 418.831C390.093 418.831 389.364 409.411 390.44 406.549C391.516 403.685 396.029 407.069 399.211 406.434Z" fill="#707FFF"/>
<path d="M405.656 413.098C405.512 413.138 405.352 413.123 405.213 413.04C404.942 412.88 404.853 412.533 405.012 412.262C405.065 412.172 406.335 410.039 408.015 409.224C410.249 408.136 411.96 409.416 412.031 409.471C412.28 409.661 412.328 410.018 412.137 410.267C411.947 410.516 411.59 410.564 411.34 410.373C411.293 410.338 410.103 409.475 408.511 410.247C407.143 410.91 406.002 412.821 405.991 412.84C405.914 412.971 405.792 413.059 405.656 413.098Z" fill="#FEFDFF"/>
<path d="M403.987 411.474C403.844 411.514 403.683 411.499 403.544 411.418C403.274 411.258 403.183 410.91 403.343 410.64C403.396 410.549 404.667 408.416 406.345 407.601C408.581 406.514 410.291 407.793 410.362 407.848C410.611 408.038 410.659 408.396 410.468 408.645C410.278 408.893 409.92 408.941 409.671 408.75C409.625 408.715 408.433 407.851 406.842 408.624C405.467 409.291 404.333 411.198 404.322 411.218C404.245 411.347 404.123 411.435 403.987 411.474Z" fill="#FEFDFF"/>
<path d="M407.932 414.43C407.787 414.472 407.627 414.455 407.488 414.374C407.218 414.214 407.127 413.866 407.287 413.596C407.34 413.506 408.611 411.373 410.29 410.558C412.527 409.47 414.236 410.749 414.308 410.804C414.556 410.995 414.603 411.352 414.413 411.601C414.223 411.85 413.865 411.897 413.617 411.706C413.57 411.671 412.377 410.809 410.787 411.58C409.413 412.247 408.278 414.154 408.267 414.174C408.189 414.303 408.067 414.392 407.932 414.43Z" fill="#FEFDFF"/>
<path d="M403.524 399.58L394.333 398.897L393.237 398.821L391.004 398.653C391.004 398.653 385.358 344.915 383.603 330.601C382.076 318.165 374.948 290.224 370.319 272.839C369.008 267.904 367.896 263.819 367.164 261.18C366.605 259.105 366.275 257.925 366.275 257.925L397.002 254.949C397.002 254.949 397.088 255.624 397.229 256.839C397.528 259.325 398.103 264.089 398.797 270.076C400.716 286.372 403.635 311.733 404.766 324.643C407.666 357.887 403.524 399.58 403.524 399.58Z" fill="#3B3E7D"/>
<path d="M398.797 270.08L370.319 272.842C369.008 267.906 367.896 263.822 367.164 261.183L397.23 256.843C397.528 259.329 398.103 264.092 398.797 270.08Z" fill="#18285D"/>
<path d="M394.331 398.896L393.236 398.82C392.702 382.203 391.071 340.7 387.742 323.106C383.557 300.928 373.936 268.633 373.837 268.307L374.883 267.997C374.982 268.324 384.62 300.673 388.81 322.907C392.161 340.612 393.806 382.313 394.331 398.896Z" fill="#18285D"/>
<path d="M398.527 179.201C399.006 183.39 399.512 187.408 399.958 190.776C400.676 196.206 401.231 199.938 401.231 199.938L405.634 214.123C407.141 218.976 412.63 221.323 417.181 219.065C417.258 219.029 417.339 218.988 417.418 218.949C425.276 214.92 420.375 199.411 420.375 199.411L418.862 199.341C418.195 197.647 416.396 193.328 414.108 187.904C413.831 187.238 413.542 186.552 413.251 185.858C412.764 184.705 412.261 183.513 411.748 182.295C411.019 180.568 410.266 178.788 409.506 176.996C403.903 163.751 397.936 149.734 397.936 149.734C395.804 150.83 397.01 165.868 398.527 179.201Z" fill="#FDA893"/>
<path d="M398.527 179.2C399.006 183.389 399.512 187.407 399.958 190.775C405.787 188.812 409.608 185.033 411.748 182.294C411.019 180.567 410.266 178.787 409.506 176.995L398.527 179.2Z" fill="#FD857D"/>
<path d="M410.81 204.736C410.844 204.739 410.873 204.739 410.907 204.738C411.213 204.73 411.476 204.501 411.515 204.189C412.443 196.733 413.44 191.215 414.113 187.905C413.836 187.24 413.545 186.554 413.255 185.86C412.619 188.779 411.39 194.996 410.263 204.033C410.221 204.376 410.464 204.69 410.81 204.736Z" fill="#FD857D"/>
<path d="M415.885 176.419C415.885 176.419 414.621 178 412.385 179.756C409.682 181.893 404.675 184.563 399.666 184.734C398.608 166.936 397.584 149.897 396.176 145.511C398.556 148.303 410.625 163.794 415.885 176.419Z" fill="#707FFF"/>
<path d="M411.962 205.061C411.962 205.061 412.486 187.198 416.169 183.284C419.85 179.37 423.277 177.812 426.849 177.826C430.42 177.84 433.79 178.175 433.618 179.649C433.618 179.649 441.773 178.147 445.501 180.153C449.229 182.159 434.792 184.485 430.492 184.736C426.191 184.986 423.997 187.464 423.904 190.035C423.813 192.606 421.876 209.675 421.876 209.675L411.962 205.061Z" fill="#FDA893"/>
<path d="M402.633 261.52C378.619 268.257 354.443 268.855 330.071 263.367C329.821 256.457 329.332 233.236 329.212 209.277C329.212 208.017 329.202 206.745 329.202 205.474V203.649C329.191 203.019 329.191 202.377 329.191 201.747C329.191 201.106 329.191 200.476 329.18 199.846C329.191 199.215 329.18 198.585 329.191 197.944C329.18 197.336 329.191 196.727 329.18 196.119C329.18 195.488 329.18 194.847 329.191 194.228C329.191 193.598 329.202 192.957 329.202 192.327C329.202 191.685 329.201 191.055 329.212 190.425C329.212 189.817 329.212 189.208 329.223 188.6C329.223 187.393 329.234 186.176 329.245 184.992V184.807C329.256 183.992 329.256 183.178 329.278 182.373C329.484 163.684 330.125 148.668 331.559 146.581C335.026 141.551 351.259 133.814 356.214 130.152L356.225 130.945C356.225 130.945 359.485 135.031 363.027 134.629C366.243 134.281 368.623 130.478 369.014 129.794C371.567 131.5 377.424 134.205 383.118 137.106C388.801 140.008 394.31 143.083 396.178 145.517C397.765 147.603 399.08 163.5 400.101 183.004V183.058C400.123 183.427 400.134 183.786 400.155 184.155V184.21C400.166 184.481 400.188 184.764 400.199 185.057C400.231 185.633 400.264 186.209 400.286 186.796C400.318 187.393 400.351 188.002 400.373 188.61C400.405 189.241 400.427 189.871 400.47 190.512C400.492 191.142 400.514 191.772 400.557 192.413C400.579 193.033 400.612 193.663 400.633 194.304C400.666 194.902 400.688 195.51 400.71 196.119C400.742 196.76 400.764 197.39 400.796 198.031C400.818 198.65 400.851 199.281 400.872 199.922C400.894 200.552 400.927 201.193 400.949 201.823C400.981 202.421 401.003 203.029 401.025 203.638C401.068 204.909 401.122 206.17 401.166 207.441C402.057 231.313 402.546 254.544 402.633 261.52Z" fill="#707FFF"/>
<path d="M352.623 148.418C352.38 148.37 352.191 148.163 352.175 147.905C352.155 147.596 352.39 147.329 352.699 147.309C366.884 146.396 371.753 135.69 371.801 135.583C371.926 135.299 372.257 135.17 372.54 135.295C372.823 135.419 372.953 135.749 372.829 136.033C372.778 136.15 371.532 138.949 368.431 141.89C365.577 144.597 360.543 147.928 352.771 148.428C352.719 148.432 352.669 148.428 352.623 148.418Z" fill="#4F60D9"/>
<path d="M400.555 192.409L329.186 194.227C329.19 193.592 329.194 192.957 329.2 192.321C329.204 191.686 329.199 191.051 329.214 190.426L400.375 188.614C400.401 189.238 400.429 189.872 400.465 190.507C400.49 191.141 400.518 191.775 400.555 192.409Z" fill="#4F60D9"/>
<path d="M400.872 199.919L329.191 201.745C329.186 201.11 329.19 200.475 329.185 199.85C329.189 199.214 329.184 198.58 329.188 197.944L400.713 196.122C400.741 196.756 400.767 197.391 400.793 198.026C400.819 198.65 400.845 199.285 400.872 199.919Z" fill="#4F60D9"/>
<path d="M401.167 207.439L329.216 209.272C329.215 208.012 329.204 206.742 329.203 205.472L401.019 203.642C401.071 204.911 401.125 206.169 401.167 207.439Z" fill="#4F60D9"/>
<path d="M392.551 173.074C394.701 175.832 397.9 182.122 399.338 185.03C399.534 185.429 399.696 185.765 399.82 186.019C399.983 186.352 400.073 186.546 400.081 186.56C400.128 186.659 400.198 186.738 400.285 186.793C400.258 186.21 400.229 185.631 400.199 185.054C400.187 184.768 400.17 184.482 400.156 184.201L400.155 184.154C399.86 183.562 399.513 182.866 399.124 182.102C397.493 178.909 395.171 174.609 393.436 172.384C393.246 172.14 392.893 172.098 392.649 172.288C392.403 172.478 392.363 172.832 392.551 173.074Z" fill="#4F60D9"/>
<path d="M380.38 243.248C380.673 243.24 380.913 243.007 380.925 242.71C380.937 242.401 380.697 242.14 380.387 242.127C364.575 241.494 354.956 233.734 349.67 227.337C343.923 220.381 341.898 213.477 341.879 213.408C341.793 213.111 341.483 212.938 341.185 213.024C340.888 213.108 340.715 213.419 340.801 213.717C340.883 214.006 342.894 220.882 348.775 228.015C354.208 234.605 364.095 242.597 380.343 243.248C380.355 243.249 380.368 243.249 380.38 243.248Z" fill="#4F60D9"/>
<path d="M371.649 233.439C371.897 233.432 372.118 233.261 372.179 233.009C372.252 232.708 372.067 232.405 371.766 232.331C357.955 228.973 355.015 217.584 354.987 217.469C354.913 217.168 354.609 216.983 354.309 217.057C354.008 217.13 353.823 217.433 353.897 217.734C353.928 217.859 354.668 220.831 357.213 224.267C359.554 227.428 363.934 231.582 371.501 233.422C371.551 233.434 371.6 233.44 371.649 233.439Z" fill="#4F60D9"/>
<path d="M336.578 171.114C334.492 173.928 331.46 180.295 330.091 183.24C329.907 183.642 329.755 183.99 329.635 184.24C329.483 184.576 329.396 184.772 329.396 184.794C329.363 184.87 329.309 184.935 329.244 184.989V184.805C329.255 183.99 329.255 183.175 329.276 182.371C329.537 181.773 329.874 181.067 330.233 180.306C331.786 177.079 334.003 172.722 335.676 170.451C335.861 170.201 336.209 170.147 336.459 170.331C336.709 170.516 336.763 170.875 336.578 171.114Z" fill="#4F60D9"/>
<path d="M405.677 181.695L454.333 180.455C455.721 180.42 456.817 179.267 456.782 177.878L456.745 176.442C456.71 175.054 455.557 173.958 454.168 173.993L405.512 175.232C404.124 175.268 403.028 176.421 403.063 177.81L403.1 179.246C403.136 180.635 404.29 181.731 405.677 181.695Z" fill="#18285D"/>
<path d="M456.833 180.389L465.961 142.344C466.474 140.207 464.821 138.165 462.624 138.221L440.421 138.786C438.923 138.824 437.633 139.854 437.264 141.307L427.161 181.145L456.833 180.389Z" fill="#3B3E7D"/>
<path d="M437.265 141.308L427.246 180.817L424.709 180.881L434.728 141.372C435.1 139.919 436.386 138.888 437.886 138.849L440.423 138.784C438.924 138.824 437.637 139.855 437.265 141.308Z" fill="#18285D"/>
<g opacity="0.5">
<path d="M443.488 161.412C442.976 163.92 444.579 165.9 447.072 165.836C449.565 165.773 452.001 163.689 452.515 161.181C453.027 158.675 451.424 156.694 448.931 156.757C446.438 156.821 444.002 158.905 443.488 161.412Z" fill="#3B3E7D"/>
</g>
<path d="M346.376 104.272C346.376 104.272 344.901 105.031 344.478 102.135C344.055 99.239 345.228 98.7207 344.356 97.3484C343.485 95.976 342.881 94.1777 344.243 92.8879C345.606 91.5971 342.721 88.4275 344.297 86.7835C345.873 85.1395 348.48 84.7331 349.479 82.8935C350.478 81.055 352.043 77.5443 356.989 77.4889C361.934 77.4324 363.619 81.3745 366.207 80.2618C368.794 79.1503 370.701 78.5429 373.788 80.6269C376.875 82.711 373.739 85.7198 376.6 87.1117C379.46 88.5036 377.321 92.813 380.605 95.2404C383.08 97.0702 380.74 104.513 375.797 103.523C370.854 102.532 346.376 104.272 346.376 104.272Z" fill="#18285D"/>
<path d="M347.632 105.424C347.632 105.424 344.821 101.869 342.876 104.918C340.931 107.967 344.015 116.746 348.909 114.459L347.632 105.424Z" fill="#FD857D"/>
<path d="M347.757 111.75C347.575 111.755 347.404 111.639 347.347 111.455C346.51 108.742 343.65 107.705 343.622 107.695C343.405 107.618 343.289 107.38 343.367 107.162C343.443 106.943 343.682 106.829 343.899 106.905C344.033 106.952 347.184 108.083 348.148 111.208C348.216 111.429 348.092 111.664 347.87 111.731C347.834 111.744 347.796 111.749 347.757 111.75Z" fill="#F05B56"/>
<path d="M344.865 110.446C344.787 110.448 344.708 110.429 344.637 110.385C344.439 110.265 344.377 110.008 344.497 109.81C344.516 109.778 344.997 109.001 346.034 108.505C346.242 108.405 346.493 108.493 346.592 108.702C346.691 108.911 346.603 109.159 346.395 109.259C345.594 109.643 345.215 110.24 345.212 110.245C345.134 110.372 345.002 110.443 344.865 110.446Z" fill="#F05B56"/>
<path d="M375.649 104.712C375.649 104.712 378.275 101.017 380.374 103.963C382.472 106.909 379.839 115.834 374.835 113.8L375.649 104.712Z" fill="#FD857D"/>
<path d="M375.845 111.038C376.027 111.033 376.192 110.908 376.239 110.722C376.937 107.97 379.74 106.79 379.768 106.778C379.982 106.69 380.085 106.446 379.997 106.233C379.91 106.019 379.665 105.916 379.452 106.003C379.321 106.057 376.232 107.347 375.429 110.517C375.372 110.741 375.508 110.968 375.732 111.026C375.77 111.034 375.808 111.039 375.845 111.038Z" fill="#F05B56"/>
<path d="M378.67 109.585C378.748 109.583 378.825 109.56 378.894 109.512C379.085 109.382 379.134 109.122 379.005 108.931C378.983 108.899 378.462 108.147 377.403 107.705C377.191 107.616 376.944 107.717 376.856 107.93C376.767 108.143 376.868 108.389 377.081 108.477C377.901 108.819 378.31 109.395 378.313 109.4C378.396 109.524 378.533 109.588 378.67 109.585Z" fill="#F05B56"/>
<path d="M368.754 121.468L368.978 130.271C368.978 130.271 366.466 134.822 362.923 135.217C359.384 135.617 356.125 131.527 356.125 131.527L355.893 122.414L368.754 121.468Z" fill="#FDA893"/>
<path d="M368.755 121.468L368.855 125.374C366.539 128.079 362.326 128.847 356.041 128.082L355.896 122.415L368.755 121.468Z" fill="#FD857D"/>
<path d="M377.461 98.6219C377.385 102.047 377.168 106.333 376.603 109.771C376.462 110.629 376.298 111.436 376.112 112.161C374.424 118.694 370.074 129.937 356.982 125.634C351.201 123.735 348.382 117.421 347.034 110.96C346.119 106.572 345.884 102.122 345.861 98.937C345.842 95.686 347.539 92.6718 350.325 90.9973C357.872 86.4609 365.993 87.8734 371.366 89.7836C375.094 91.1071 377.549 94.6733 377.461 98.6219Z" fill="#FDA893"/>
<path d="M356.509 106.348C356.533 107.288 356.068 108.062 355.47 108.077C354.872 108.092 354.369 107.342 354.345 106.403C354.322 105.463 354.787 104.689 355.384 104.674C355.981 104.659 356.485 105.408 356.509 106.348Z" fill="#18285D"/>
<path d="M369.505 106.016C369.529 106.956 369.063 107.73 368.466 107.745C367.868 107.76 367.365 107.011 367.341 106.071C367.317 105.131 367.782 104.357 368.38 104.342C368.977 104.327 369.481 105.077 369.505 106.016Z" fill="#18285D"/>
<path d="M372.071 100.347C372.071 100.347 367.556 98.6942 364.152 100.269L364.545 102.175C364.545 102.175 369.586 101.618 372.158 102.585C372.367 101.842 372.381 101.097 372.071 100.347Z" fill="#18285D"/>
<path d="M350.817 100.896C350.817 100.896 355.276 99.0023 358.781 100.412L358.483 102.349C358.483 102.349 353.383 102.048 350.846 103.152C350.597 102.416 350.545 101.667 350.817 100.896Z" fill="#18285D"/>
<path d="M362.34 113.135C361.641 113.231 360.91 113.056 360.796 113.027C360.572 112.97 360.437 112.742 360.495 112.519C360.551 112.295 360.779 112.159 361.003 112.217C361.399 112.317 362.33 112.431 362.687 112.143C362.756 112.087 362.846 111.984 362.837 111.729C362.786 110.261 361.717 105.466 361.706 105.417C361.656 105.192 361.797 104.968 362.023 104.917C362.249 104.866 362.472 105.008 362.523 105.234C362.568 105.434 363.62 110.154 363.674 111.699C363.695 112.281 363.434 112.616 363.212 112.795C362.968 112.99 362.657 113.091 362.34 113.135Z" fill="#FD857D"/>
<path d="M356.343 115.613C356.728 117.324 357.945 120.459 361.772 120.361C365.609 120.263 366.611 117.345 366.93 115.343L356.343 115.613Z" fill="white"/>
<path d="M361.788 122.955C362.87 122.927 363.774 122.356 363.812 122.331C364.006 122.206 364.063 121.947 363.938 121.753C363.813 121.558 363.554 121.502 363.36 121.626C363.353 121.63 362.609 122.096 361.766 122.117C360.992 122.136 360.24 121.712 360.233 121.707C360.033 121.591 359.777 121.658 359.661 121.858C359.545 122.058 359.612 122.313 359.812 122.43C359.85 122.454 360.766 122.981 361.788 122.955Z" fill="#FD857D"/>
<path d="M377.461 98.6219C377.385 102.047 377.168 106.333 376.602 109.771L374.729 109.687C374.729 109.687 375.108 106.786 375.269 104.899C375.43 103.012 375.696 99.4847 374.079 99.087C372.467 98.6925 373.305 94.6559 371.03 92.9728C368.757 91.2853 363.766 89.8771 360.531 91.985C357.295 94.0887 353.528 93.0673 352.023 93.4574C350.514 93.8431 348.509 95.9869 349.115 97.9254C349.725 99.8606 348.083 101.091 347.729 103.12C347.374 105.15 348.81 110.555 348.81 110.555L347.033 110.96C346.118 106.572 345.884 102.122 345.861 98.937C345.841 95.686 347.539 92.6718 350.325 90.9973C357.872 86.4609 365.993 87.8734 371.365 89.7836C375.093 91.1071 377.549 94.6733 377.461 98.6219Z" fill="#18285D"/>
<path d="M332.587 252.153L328.121 258.249C328.121 258.249 325.535 256.63 322.025 253.816C322.015 253.805 322.015 253.805 322.004 253.794C316.658 249.524 310.166 241.594 306.107 233.437C299.769 220.7 302.641 211.563 302.641 211.563C303.271 205.435 306.705 196.944 309.975 187.697C311.17 184.34 312.257 181.417 313.018 179.363L323.003 181.656L327.274 184.286L325.633 188.621C322.808 197.98 319.613 207.183 315.338 215.933C316.305 224.506 319.928 234.855 324.112 241.201C328.436 247.785 332.587 252.153 332.587 252.153Z" fill="#FDA893"/>
<path d="M332.589 252.154L328.123 258.249C328.123 258.249 325.537 256.63 322.027 253.816C322.016 253.805 322.016 253.805 322.005 253.794C321.234 249.187 321.701 242.679 324.113 241.201C328.438 247.786 332.589 252.154 332.589 252.154Z" fill="#FD857D"/>
<path d="M330.202 245.12C331.101 245.178 335.893 245.416 335.374 243.777C334.803 241.969 330.1 239.851 330.1 239.851C330.1 239.851 330.073 239.759 330.118 239.637L330.067 239.25L329.86 235.363C328.951 235.37 328.117 235.547 327.665 235.687C325.604 236.325 325.886 241.04 325.886 241.04C325.886 241.04 323.287 241.969 323.382 243.871C323.477 245.775 325.571 246.061 325.571 246.061C325.571 246.061 322.711 247.488 323.379 249.106C324.048 250.724 326.215 251.2 326.215 251.2C326.215 251.2 323.762 252.818 324.619 253.96C325.475 255.102 327.475 255.674 327.475 255.674C327.475 255.674 325.763 257.99 327.503 259.253C329.242 260.515 331.799 260.242 333.444 259.67C335.09 259.099 334.804 257.005 331.568 255.482C331.568 255.482 334.423 255.768 335.85 253.389C337.041 251.405 334.004 250.547 331.414 250.206C333.449 250.343 336.961 250.285 337.564 248.344C338.354 245.799 331.303 245.198 330.202 245.12Z" fill="#FDA893"/>
<path d="M327.275 184.286L325.634 188.621C322.32 188.827 316.387 188.925 309.976 187.697C311.171 184.34 312.258 181.417 313.019 179.363L323.004 181.656L327.275 184.286Z" fill="#FD857D"/>
<path d="M331.556 146.582C331.556 146.582 316.494 161.229 307.62 182.497C314.575 184.746 321.16 186.338 327.273 187.099C327.995 185.124 331.798 176.951 335.165 171.181L331.556 146.582Z" fill="#707FFF"/>
<path d="M209.744 31.4604L209.76 31.4137C210.013 30.8563 210.243 30.2913 210.449 29.7273C213.484 21.4454 213.783 4.44581 194.91 0.424366C194.91 0.424366 179.356 -3.20917 172.437 10.7882C172.437 10.7882 169.322 17.2729 167.109 21.9833C167.109 21.9833 165.252 31.8809 155.913 32.7546C146.574 33.6282 141.366 37.2139 142.263 44.1311C143.161 51.0483 141.724 49.9476 135.259 55.7966C128.794 61.6457 124.283 72.5843 129.861 79.784C135.438 86.9837 156.306 69.9494 169.669 77.5609C183.032 85.1724 205.471 82.9471 208.08 72.116C210.688 61.286 200.237 54.1483 200.793 48.6469C201.35 43.1466 208.05 36.7238 209.744 31.4604Z" fill="#29245D"/>
<path d="M214.818 100.895L201.486 100.906L195.042 88.3773L194.314 86.943L191.565 81.6079C191.565 81.6079 192.117 58.8983 197.941 55.8015L214.818 100.895Z" fill="#707FFF"/>
<path d="M195.041 88.3768L194.313 86.9426C195.596 84.3456 197.812 78.3694 196.052 70.6764C195.976 70.3178 196.193 69.9701 196.541 69.8941C196.889 69.818 197.247 70.0353 197.323 70.383C199.409 79.5103 196.28 86.2145 195.041 88.3768Z" fill="#4F60D9"/>
<path d="M218.091 99.3182C218.091 99.3182 219.24 104.27 221.197 105.633C223.154 106.997 222.659 100.073 222.659 100.073C222.659 100.073 223.318 108.429 225.343 108.653C227.369 108.877 226.961 100.742 226.961 100.742C226.961 100.742 228.269 106.335 229.804 106.661C231.339 106.988 231.285 101.03 231.285 101.03C231.285 101.03 232.771 105.357 233.907 105.733C235.043 106.109 235.593 101.082 234.955 98.5206C234.316 95.9596 231.128 97.5145 231.128 97.5145C231.128 97.5145 228.115 96.6441 227.07 97.6818C227.07 97.6818 224.369 96.5083 222.856 97.2678C222.856 97.27 218.445 95.9965 218.091 99.3182Z" fill="#FDA893"/>
<path d="M195.649 66.6682C196.16 71.0471 197.55 75.4695 195.692 82.4345C195.106 84.6403 194.193 86.4006 192.476 89.4213V89.4321C192.465 89.4321 192.465 89.4321 192.465 89.4321C192.389 89.606 192.291 89.769 192.183 89.9428C192.15 90.2579 192.107 90.5622 192.074 90.8664C190.955 98.6246 191.248 94.5065 191.379 100.906H151.219L151.512 85.0097L151.577 81.6196L152.153 50.4129L164.833 49.2938H164.844L167.028 49.0982L167.159 49.0764L170.571 48.7831C170.875 48.7505 171.168 48.7287 171.472 48.707C176.069 48.4245 180.676 49.1416 184.99 50.8041L185.131 50.8584L187.032 51.5865V51.5973L187.152 51.6408L189.01 52.3579L197.942 55.8024C197.485 57.8126 196.062 64.6472 195.649 66.6682Z" fill="#707FFF"/>
<path d="M156.576 73.4591L151.512 85.0094L151.578 81.6193L155.381 72.9375C155.522 72.6115 155.913 72.4594 156.239 72.6007C156.565 72.7419 156.717 73.1331 156.576 73.4591Z" fill="#4F60D9"/>
<path d="M164.844 49.2893C168.986 57.6364 179.127 66.9636 184.323 64.0853C187.52 62.3185 188.826 56.514 189.014 52.3545L187.152 51.6396L187.039 51.5972V51.5939L185.138 50.8616L184.993 50.8051C180.684 49.1448 176.076 48.4298 171.478 48.7134C171.321 48.7351 171.163 48.7558 171.006 48.7775C170.862 48.7949 170.719 48.8134 170.578 48.8307L167.162 49.0861L167.03 49.097L164.844 49.2893Z" fill="#FDA893"/>
<path d="M192.188 89.948C192.15 90.2565 192.107 90.563 192.075 90.8683C189.874 91.3377 182.968 92.308 171.227 89.497C169.705 89.1319 168.1 88.7038 166.415 88.2007C166.068 88.0997 165.874 87.7357 165.975 87.3891C166.079 87.0479 166.444 86.849 166.786 86.9533C183.722 91.9842 192.368 89.459 192.455 89.4351C192.465 89.4329 192.47 89.4297 192.479 89.4275C192.383 89.5959 192.289 89.7698 192.188 89.948Z" fill="#4F60D9"/>
<path d="M203.286 30.2351C203.286 30.2351 207.023 27.8947 207.973 31.2728C208.924 34.6521 203.375 41.6464 199.385 38.0292L203.286 30.2351Z" fill="#FD857D"/>
<path d="M201.68 38.2235C201.511 38.6962 201.757 39.2156 202.23 39.3851C202.702 39.5535 203.222 39.3079 203.391 38.8352C203.56 38.3626 203.314 37.8421 202.841 37.6737C202.369 37.5053 201.848 37.7508 201.68 38.2235Z" fill="white"/>
<path d="M201.287 35.9348C201.459 35.9968 201.657 35.9446 201.766 35.7957C203.37 33.5976 206.406 33.5585 206.436 33.5585C206.666 33.5574 206.847 33.377 206.838 33.1553C206.83 32.9337 206.637 32.7544 206.407 32.7544C206.265 32.7544 202.923 32.7892 201.076 35.3209C200.945 35.5002 200.994 35.7512 201.184 35.8827C201.216 35.9044 201.251 35.9218 201.287 35.9348Z" fill="#F05B56"/>
<path d="M204.435 35.6627C204.509 35.6888 204.589 35.6964 204.67 35.679C204.894 35.6323 205.03 35.4183 204.975 35.2009C204.966 35.1651 204.737 34.3078 203.896 33.533C203.727 33.3766 203.462 33.3777 203.305 33.5363C203.147 33.6939 203.158 33.9481 203.326 34.1046C203.976 34.7044 204.161 35.365 204.163 35.3715C204.199 35.5095 204.304 35.616 204.435 35.6627Z" fill="#F05B56"/>
<path d="M177.505 39.8032L174.017 49.5694C174.017 49.5694 177.305 54.6927 180.738 56.2628C184.165 57.8351 186.879 54.0972 186.879 54.0972L190.126 45.008L177.505 39.8032Z" fill="#FDA893"/>
<path d="M177.162 40.7605L175.77 44.6559C177.204 48.1417 181.089 50.5821 187.663 51.8914L189.781 45.9641L177.162 40.7605Z" fill="#FD857D"/>
<path d="M203.505 34.5007C203.056 35.4037 202.58 36.3153 202.069 37.2107C198.679 43.1597 192.212 48.585 186.729 47.9244C174.888 46.4977 173.414 36.2708 173.929 29.2993C173.987 28.5245 174.638 27.8476 174.783 26.9577C175.126 24.8508 175.129 22.318 175.74 20.0383C176.164 18.4584 176.616 16.9122 177.04 15.5203C178.24 11.5977 181.742 8.84977 185.731 8.71177C191.481 8.5075 199.693 9.65275 205.418 16.4874C207.532 19.0115 208.173 22.5157 207.098 25.7157C206.275 28.1594 205.08 31.3138 203.505 34.5007Z" fill="#FDA893"/>
<path d="M188.385 34.639C188.181 34.5662 188.054 34.3543 188.093 34.1348C188.137 33.8892 188.371 33.7251 188.617 33.7697L190.165 34.0457L190.067 27.9663C190.063 27.7174 190.262 27.511 190.512 27.5066C190.76 27.5034 190.967 27.7011 190.97 27.951L191.085 35.1268L188.457 34.6574C188.433 34.6542 188.408 34.6477 188.385 34.639Z" fill="#FD857D"/>
<path d="M203.108 22.2951C206.692 25.7776 203.516 30.3771 204.051 33.4456C204.084 33.6445 204.172 33.7097 204.305 33.6608C205.924 30.4173 207.144 27.2032 207.981 24.7117C209.075 21.4476 208.362 17.8564 206.114 15.2497C200.027 8.19343 191.39 6.93082 185.353 7.07642C181.165 7.17313 177.517 9.94609 176.299 13.9469C175.869 15.366 175.411 16.9437 174.983 18.5551C175.543 19.232 177.21 20.0448 176.874 21.2129C175.987 24.302 175.396 26.4219 176.092 26.4676C177.264 26.5415 179.232 23.1187 178.86 20.3186C178.86 20.3186 180.408 19.0756 184.945 18.9626C190.766 18.818 196.733 17.6587 196.733 17.6587C196.733 17.6587 199.094 17.1827 200.295 16.1733C200.297 16.1744 200.379 19.6428 203.108 22.2951Z" fill="#29245D"/>
<path d="M196.176 29.6408C195.842 30.5785 196.054 31.5108 196.649 31.7238C197.245 31.9367 198 31.3489 198.334 30.4123C198.669 29.4756 198.457 28.5433 197.862 28.3304C197.265 28.1163 196.511 28.7042 196.176 29.6408Z" fill="#29245D"/>
<path d="M183.882 25.2442C183.547 26.1819 183.759 27.1142 184.355 27.3272C184.95 27.5401 185.705 26.9523 186.04 26.0157C186.374 25.0779 186.163 24.1456 185.567 23.9338C184.972 23.7219 184.217 24.3065 183.882 25.2442Z" fill="#29245D"/>
<path d="M201.475 25.8856C200.668 25.4064 199.014 24.5013 197.122 23.8993C196.624 23.7406 196.098 23.971 196.026 24.3861L196.023 24.3969C195.966 24.7284 196.226 25.0587 196.629 25.1695C197.937 25.5281 201.26 26.7385 202.645 27.7534C202.768 27.5448 202.704 27.2525 202.559 26.9656C202.342 26.531 201.946 26.1648 201.475 25.8856Z" fill="#29245D"/>
<path d="M184.058 19.8942C184.988 20.0224 186.846 20.344 188.701 21.0525C189.189 21.2383 189.457 21.7457 189.255 22.1163L189.25 22.125C189.088 22.4205 188.679 22.5161 188.294 22.3521C187.048 21.8185 183.695 20.695 181.978 20.6266C182.012 20.3864 182.244 20.1984 182.537 20.0637C182.978 19.8594 183.515 19.8192 184.058 19.8942Z" fill="#29245D"/>
<path d="M192.197 38.8572C191.349 40.2361 189.32 42.6059 185.79 41.3444C182.251 40.0807 182.154 37.2175 182.43 35.3682L192.197 38.8572Z" fill="white"/>
<path d="M184.924 43.9243C185.943 44.2883 187.038 44.0613 187.085 44.0515C187.324 44.0004 187.476 43.7646 187.425 43.5256C187.374 43.2865 187.14 43.1344 186.9 43.1844C186.892 43.1866 185.999 43.368 185.222 43.0898C184.381 42.79 183.786 42.075 183.781 42.0674C183.626 41.8783 183.347 41.8501 183.157 42.0054C182.968 42.1597 182.94 42.4379 183.094 42.627C183.125 42.665 183.845 43.5386 184.924 43.9243Z" fill="#FD857D"/>
<path d="M176.912 20.7853C176.912 20.7853 175.217 16.0869 172.516 18.0731C169.816 20.0594 169.551 28.6815 174.546 28.3392L176.912 20.7853Z" fill="#FDA893"/>
<path d="M171.767 27.5413C171.599 28.014 171.844 28.5334 172.317 28.7029C172.79 28.8713 173.31 28.6257 173.478 28.1531C173.647 27.6804 173.401 27.1599 172.929 26.9915C172.455 26.822 171.935 27.0687 171.767 27.5413Z" fill="white"/>
<path d="M174.455 25.6122C174.296 25.5557 174.187 25.397 174.199 25.2199C174.381 22.5936 172.255 20.7432 172.233 20.7247C172.071 20.5856 172.052 20.3412 172.19 20.1782C172.329 20.0152 172.573 19.9956 172.736 20.1336C172.836 20.2184 175.183 22.2492 174.974 25.2732C174.958 25.4872 174.774 25.648 174.56 25.6328C174.523 25.6306 174.488 25.623 174.455 25.6122Z" fill="#FD857D"/>
<path d="M172.391 23.5164C172.324 23.4925 172.262 23.4491 172.214 23.3882C172.084 23.2187 172.115 22.9753 172.285 22.8438C172.313 22.8221 172.989 22.3114 174.05 22.2288C174.263 22.2114 174.45 22.3723 174.467 22.5852C174.483 22.7982 174.323 22.9851 174.11 23.0025C173.29 23.0666 172.763 23.4556 172.757 23.4599C172.65 23.5414 172.512 23.5588 172.391 23.5164Z" fill="#FD857D"/>
<path d="M190.068 25.9792C190.16 25.726 190.191 25.4631 190.169 25.2088C190.115 24.5112 189.671 23.8756 188.974 23.6093L182.825 21.258C182.342 21.0733 181.831 21.1026 181.393 21.2982C181.153 21.4058 180.938 21.5622 180.761 21.7632C180.612 21.9284 180.491 22.1207 180.408 22.338L180.107 23.1236C179.597 24.4558 179.633 25.927 180.204 27.1657C180.776 28.3957 181.638 29.252 182.77 29.7127L182.932 29.7746C184.248 30.2777 185.68 30.2408 186.972 29.6681C188.283 29.0879 189.286 28.0306 189.798 26.6909L190.052 26.0259C190.059 26.0118 190.065 25.9944 190.068 25.9792ZM189.074 26.4138C188.636 27.5602 187.778 28.462 186.66 28.9575C185.555 29.4465 184.332 29.478 183.21 29.0488L183.062 28.9923C182.12 28.6076 181.396 27.884 180.912 26.8398C180.426 25.7923 180.398 24.5373 180.832 23.4007L181.133 22.6151C181.35 22.049 181.982 21.7676 182.547 21.9838L188.696 24.3352C189.259 24.5503 189.545 25.1838 189.327 25.7488L189.074 26.4138Z" fill="white"/>
<path d="M203.2 30.5152C203.228 30.2511 203.195 29.986 203.112 29.7383C202.937 29.2308 202.548 28.7995 202.009 28.593L195.858 26.2406C195.145 25.9678 194.367 26.1612 193.86 26.6741C193.689 26.8447 193.549 27.0512 193.457 27.287C193.449 27.2978 193.446 27.3076 193.441 27.3195L193.14 28.1051C192.631 29.4373 192.669 30.9096 193.24 32.1483C193.81 33.3772 194.674 34.2346 195.804 34.6942L195.968 34.7572C197.284 35.2603 198.716 35.2234 200.008 34.6507C201.316 34.0705 202.322 33.0132 202.834 31.6735L203.088 31.0085C203.15 30.8488 203.188 30.6825 203.2 30.5152ZM202.108 31.3986C201.67 32.5449 200.812 33.4468 199.691 33.9412C198.59 34.4312 197.366 34.4627 196.245 34.0335L196.095 33.976C195.153 33.5902 194.429 32.8676 193.945 31.8234C193.461 30.776 193.431 29.521 193.865 28.3844L194.166 27.5988C194.382 27.0327 195.017 26.7513 195.58 26.9675L201.731 29.3199C202.294 29.5351 202.579 30.1686 202.362 30.7336L202.108 31.3986Z" fill="white"/>
<path d="M181.393 21.2963C180.891 20.7497 179.523 19.4806 177.198 18.7896V19.6088C179.117 20.2347 180.293 21.2778 180.761 21.7614C180.916 21.92 180.995 22.02 180.999 22.0243L181.614 21.5527C181.6 21.5332 181.527 21.4386 181.393 21.2963Z" fill="white"/>
<path d="M189.797 25.9594L189.821 25.1836C189.87 25.1847 191.021 25.2238 192.14 25.6519C193.33 26.1072 193.957 26.7667 193.983 26.7939L193.417 27.3252C193.413 27.3209 192.876 26.7646 191.862 26.3767C190.87 25.9974 189.808 25.9594 189.797 25.9594Z" fill="white"/>
<path d="M205.617 29.9299C204.172 29.6387 202.863 29.7517 202.778 29.7593L202.849 30.5319C202.871 30.5308 204.215 30.4167 205.617 30.7264V29.9299Z" fill="white"/>
<path d="M183.996 100.949C183.996 100.949 184.246 105.9 182.674 107.265C181.101 108.629 179.642 101.705 179.642 101.705C179.642 101.705 181.342 110.061 179.38 110.284C177.418 110.508 175.528 102.373 175.528 102.373C175.528 102.373 175.8 107.967 174.357 108.293C172.914 108.62 171.285 102.661 171.285 102.661C171.285 102.661 171.021 106.989 169.991 107.365C168.961 107.741 166.991 102.713 166.906 100.153C166.821 97.5921 170.448 99.147 170.448 99.147C170.448 99.147 173.216 98.2778 174.553 99.3144C174.553 99.3144 176.923 98.1409 178.651 98.9004C178.653 98.9004 182.705 97.6269 183.996 100.949Z" fill="#FDA893"/>
<path d="M161.879 100.893L133.356 100.904C133.334 100.893 133.269 100.654 133.269 100.643C132.769 93.0694 137.561 80.3129 140.908 69.1646C143.125 61.7867 146.037 52.9093 152.154 50.4102C153.23 51.6815 155.218 56.9188 155.36 59.5918C155.685 66.0461 154.871 72.8698 153.675 76.4555C151.948 81.606 149.785 87.8755 148.21 93.0259C148.21 93.0259 148.21 93.0368 148.199 93.0694C148.166 93.2107 148.058 93.7213 148.058 93.7322C148.101 93.7431 148.384 93.8952 148.883 94.1777C150.742 95.21 155.599 97.9373 161.879 100.893Z" fill="#707FFF"/>
<path d="M148.881 94.1796C145.893 95.5704 141.666 98.5042 141.623 98.5368C141.503 98.6237 141.373 98.6563 141.254 98.6563C141.047 98.6563 140.841 98.5585 140.71 98.3738C140.504 98.0804 140.58 97.6784 140.873 97.472C141.058 97.3416 145.133 94.5164 148.197 93.0713C148.164 93.2125 148.056 93.7232 148.056 93.7341C148.099 93.745 148.382 93.8971 148.881 94.1796Z" fill="#4F60D9"/>
<path d="M170.572 48.7766C170.572 48.7766 172.744 58.6634 180.524 59.2067C188.304 59.75 189.009 51.8908 189.009 51.8908" stroke="white" stroke-width="1.3039" stroke-miterlimit="10" stroke-linecap="round"/>
<path d="M445.154 372.703C445.154 372.703 444.268 373.57 442.451 373.703C441.902 373.748 441.272 373.723 440.545 373.576C439.773 373.436 438.9 373.161 437.931 372.703C437.931 372.703 438.351 354.838 431.128 342.532C423.904 330.227 414.34 313.23 421.99 304.513C429.641 295.797 441.966 307.912 446.002 328.313C450.045 348.717 445.154 372.703 445.154 372.703Z" fill="#4F60D9"/>
<path d="M442.45 373.704C441.901 373.749 441.271 373.724 440.544 373.577C442.865 341.864 428.468 317.368 428.322 317.119C428.048 316.666 428.195 316.08 428.647 315.805C429.1 315.537 429.687 315.684 429.96 316.137C430.113 316.386 444.815 341.366 442.45 373.704Z" fill="#1D38C8"/>
<path d="M469.933 343.871C453.031 371.197 454.198 377.516 454.198 377.516L451.979 377.12L450.092 376.789L447.401 376.311C445.902 364.19 455.211 312.961 471.807 312.961C488.704 312.961 475.691 334.569 469.933 343.871Z" fill="#4F60D9"/>
<path d="M469.295 328.147C469.135 328.416 454.982 353.664 451.978 377.12L450.091 376.788C453.177 352.955 467.472 327.478 467.624 327.204C467.885 326.746 468.473 326.586 468.931 326.847C469.391 327.109 469.55 327.689 469.295 328.147Z" fill="#1D38C8"/>
<path d="M437.777 375.128L435.832 375.651L433.971 376.155L432.855 376.455C432.924 376.213 432.077 374.121 420.186 358.233C415.277 351.666 402.18 334.006 414.187 331.04C425.198 328.324 438.095 365.978 437.777 375.128Z" fill="#4F60D9"/>
<path d="M435.834 375.651L433.973 376.155C430.542 360.846 416.624 342.057 416.471 341.852C416.158 341.432 416.247 340.832 416.669 340.514C417.09 340.201 417.689 340.285 418.008 340.712C418.62 341.54 432.303 359.992 435.834 375.651Z" fill="#1D38C8"/>
<path d="M461.328 415.55C461.328 418.609 423.524 418.609 423.524 415.55V370.6C423.524 370.135 423.901 369.758 424.366 369.758H460.484C460.949 369.758 461.326 370.135 461.326 370.6L461.328 415.55Z" fill="#3B3E7D"/>
<path d="M69.0587 416.671H41.8877C38.1922 416.671 34.9172 413.844 33.7752 409.668L22.252 367.529C21.7804 365.805 22.7921 364.013 24.3133 363.873C45.293 361.941 66.0685 361.939 86.6364 363.867C88.1554 364.01 89.1649 365.8 88.6944 367.523L77.1701 409.667C76.0292 413.844 72.7542 416.671 69.0587 416.671Z" fill="#3B3E7D"/>
<path d="M86.282 366.935C86.282 368.056 72.5715 368.965 55.6588 368.965C38.7461 368.965 25.0356 368.056 25.0356 366.935C25.0356 365.814 38.7461 364.905 55.6588 364.905C72.5715 364.905 86.282 365.815 86.282 366.935Z" fill="#18285D"/>
<path d="M90.3405 309.983C79.3204 307.079 62.4827 329.953 57.3693 352.254V319.762C59.9401 315.204 64.8406 308.345 73.7386 301.099C87.5762 289.829 100.314 275.366 89.2746 272.459C78.9292 269.733 63.4563 289.728 57.3693 310.638V268.912C59.1523 266.144 62.0731 262.513 66.7421 258.71C75.463 251.607 83.4907 242.493 76.5333 240.66C70.4952 239.069 61.6862 249.758 57.3693 261.812V248.289C58.0831 244.105 59.0915 238.13 61.859 232.021C68.2731 217.868 71.7382 203.285 63.2813 204.37C54.8169 205.456 49.3285 230.664 53.9574 250.016V256.976C50.8302 242.813 40.1034 228.147 33.1015 229.991C26.1441 231.824 34.1718 240.938 42.8927 248.041C49.5306 253.448 52.6372 258.508 53.9574 261.23V294.1C48.9428 271.687 31.9856 248.554 20.9068 251.472C9.8671 254.38 22.6051 268.844 36.4427 280.112C46.8989 288.629 51.8375 296.609 53.9574 300.95V340.367C48.5973 318.363 32.0736 296.158 21.2067 299.021C10.167 301.929 19.6344 312.499 35.1856 325.283C45.7537 333.971 51.4148 343.14 53.9574 348.124V366.69C55.1907 367.036 56.3457 367.034 57.3693 366.69V359.303C59.5326 354.927 64.4755 347.038 74.8056 338.626C88.6422 327.354 101.38 312.89 90.3405 309.983Z" fill="#4F60D9"/>
</svg>
