<svg width="39" height="39" viewBox="0 0 39 39" fill="none" xmlns="http://www.w3.org/2000/svg">
<path fill-rule="evenodd" clip-rule="evenodd" d="M33.087 30.1917C32.4279 30.8263 31.5539 31.2345 30.5909 31.3034L27.9294 31.4938C22.3169 31.8953 16.6828 31.8953 11.0703 31.4938L8.61008 31.3178C6.66654 31.1787 5.06346 29.7419 4.71324 27.8252C4.00366 23.9416 3.88218 19.9733 4.35288 16.0536L4.79567 12.3663C5.05844 10.1781 6.91485 8.53125 9.11882 8.53125H12.8426C14.659 8.53125 16.1723 9.82875 16.5062 11.5474L30.0172 11.5474C32.14 11.5474 33.9482 13.0899 34.2828 15.1862L34.3869 15.8385C34.4088 15.9756 34.4299 16.1128 34.4502 16.25H34.9962C37.3888 16.25 39.0338 18.6547 38.1666 20.8847L36.1363 26.1056C35.5058 27.7268 34.4481 29.1365 33.087 30.1917ZM31.8758 15.5704L31.9799 16.2227C31.9813 16.2318 31.9828 16.2409 31.9842 16.25H16.8518C15.0063 16.25 13.3506 17.3845 12.6844 19.1056L8.89513 28.8944L8.78403 28.8865C7.94963 28.8268 7.2614 28.21 7.11105 27.3871C6.44539 23.7439 6.33144 20.0213 6.77299 16.3442L7.21578 12.6569C7.33146 11.6937 8.14864 10.9688 9.11882 10.9688H12.8426C13.5577 10.9688 14.1374 11.5484 14.1374 12.2635C14.1374 13.2142 14.9081 13.9849 15.8588 13.9849H30.0172C30.9421 13.9849 31.73 14.657 31.8758 15.5704ZM11.4385 29.0762C16.8709 29.4557 22.3235 29.4511 27.7554 29.0625L30.417 28.8721L30.7332 28.8425L30.7309 28.8386C32.1618 28.0312 33.269 26.7533 33.8645 25.2221L35.8948 20.0012C36.1407 19.3691 35.6744 18.6875 34.9962 18.6875H16.8518C16.0129 18.6875 15.2603 19.2032 14.9575 19.9855L11.4385 29.0762Z" fill="#26D6EB"/>
</svg>
