<svg width="205" height="77" viewBox="0 0 205 77" fill="none" xmlns="http://www.w3.org/2000/svg">
<path d="M4.17153 12.6196C4.22295 12.5768 4.27151 12.5358 4.32341 12.493C4.2996 12.4887 4.27818 12.4868 4.26008 12.4868C4.17677 12.4868 4.1482 12.5301 4.17153 12.6196Z" fill="url(#paint0_linear_23_38)"/>
<path d="M199.094 12.4925C199.146 12.5354 199.195 12.5763 199.247 12.6191C199.27 12.5296 199.24 12.4863 199.157 12.4863C199.139 12.4863 199.118 12.4882 199.094 12.4925Z" fill="url(#paint1_linear_23_38)"/>
<path d="M36.7219 15.6517C36.7219 15.692 36.7091 15.735 36.7039 15.7757C36.7115 17.7906 36.7371 19.8087 36.7143 21.8236C36.7091 22.2807 36.8502 22.4856 37.4137 22.5731C45.2375 23.7925 51.5929 29.1405 52.8738 35.928C53.7118 40.3769 52.5563 44.4653 49.3533 48.1354C48.9814 48.5584 48.7741 48.4855 48.4405 48.178C47.5977 47.401 46.7365 46.6387 45.9113 45.8513C45.5706 45.5224 45.1987 45.3942 44.6711 45.3984C41.9237 45.4155 39.1745 45.4003 36.4271 45.3961H32.4192C33.8567 46.6496 35.1557 47.7791 36.4527 48.9086C38.0644 50.2595 39.669 51.62 41.2934 52.9629C41.6753 53.2766 41.6781 53.4365 41.1425 53.597C39.9122 53.966 38.6923 54.3697 37.391 54.5258C36.8549 54.5897 36.7143 54.7752 36.7191 55.2195C36.7446 57.2136 36.7167 59.2052 36.7091 61.1997C36.8118 61.6904 36.4579 62.3609 36.8757 62.6363C37.2831 62.9027 38.0213 62.5848 38.6104 62.5019C40.7194 62.2071 42.7466 61.6649 44.7529 61.063C46.0088 60.4989 47.3465 60.066 48.5484 59.4149C48.7944 59.28 48.9534 59.3396 49.1323 59.4934C49.7967 60.0636 50.4653 60.6272 51.1339 61.1931C51.8953 61.804 52.6793 62.3969 53.4123 63.031C53.7606 63.3324 54.1221 63.4351 54.609 63.4351C58.4196 63.4351 62.2279 63.4564 66.0385 63.4649C66.2765 63.4649 66.5301 63.5288 66.9555 63.3111C66.0792 62.6344 65.2563 61.998 64.4315 61.3597C61.7537 59.1645 59.0854 56.9595 56.3849 54.7818C55.9235 54.4104 55.8672 54.1686 56.2978 53.7526C58.4603 51.6626 59.9338 49.2242 61.0667 46.6709C63.0526 42.1959 63.3015 37.5846 61.979 32.9559C60.434 27.5478 57.0535 23.0667 51.8437 19.5584C49.5913 18.0409 47.0772 16.8986 44.4558 15.9058C42.4953 15.3101 40.4914 14.8487 38.4415 14.5265C37.9347 14.4456 37.5812 14.3897 37.3338 14.3897C36.765 14.3897 36.7536 14.685 36.7219 15.6517Z" fill="url(#paint2_linear_23_38)"/>
<path d="M31.3854 14.2278C31.0883 14.2708 30.7807 14.2666 30.4835 14.3092C23.5437 15.3081 17.5962 17.8449 12.8576 22.2408C7.8063 26.9292 5.50044 32.4778 5.36179 38.7121C5.35186 41.9573 6.09477 45.0808 7.64258 48.0354C10.6152 53.6995 15.4076 57.9483 22.1341 60.6379C25.0021 61.7844 28.0182 62.5065 31.1701 62.8288C32.2362 62.9376 32.5107 62.7327 32.5159 61.8573C32.5234 60.6592 32.5206 59.4597 32.5159 58.262C32.5107 57.4424 32.3436 57.2693 31.3651 57.1562C27.9387 56.7629 24.748 55.8175 21.8733 54.2186C14.2668 49.9845 10.1898 42.6107 12.1862 34.6938C12.9243 31.7671 14.3874 29.1172 16.6479 26.7858C19.779 23.5534 23.795 21.4548 28.5818 20.3618C30.7603 19.8644 30.7476 19.8791 30.7372 21.6834C30.7348 22.1145 30.5294 22.2512 30.0709 22.3454C20.4916 24.2945 13.5494 32.0638 14.9023 40.5543C15.4971 44.2929 17.36 47.5229 20.4661 50.213C23.3544 52.7129 26.9086 54.2886 31.0343 54.9208C31.8544 55.0467 32.3517 54.8716 32.4771 54.3639C32.5949 53.8855 32.2925 53.6356 31.411 53.4837C26.8366 52.7025 23.0776 50.7917 20.2408 47.7127C17.3014 44.5234 16.0763 40.8812 16.6171 36.8799C16.9195 34.6469 17.7163 32.5337 19.2055 30.6139C22.152 26.8156 26.2191 24.4118 31.5799 23.5771C32.1951 23.481 32.513 23.2099 32.5107 22.6804C32.5078 21.5447 32.5258 20.4091 32.5031 19.273C32.4898 18.6413 32.0673 18.3616 31.3107 18.4576C27.9415 18.8887 24.7456 19.7253 21.7962 21.1965C12.5888 25.7931 8.00409 34.5807 10.6152 43.2491C13.027 51.2465 19.3205 56.1506 28.8203 58.2814C29.4406 58.4201 30.3269 58.2407 30.6321 58.6974C30.9141 59.118 30.714 59.763 30.7163 60.3095C30.7215 61.343 30.7163 61.3515 29.4662 61.1333C22.4033 59.9016 16.717 56.8741 12.3731 52.0684C10.3279 49.8033 8.93676 47.2542 8.04242 44.566C7.08894 41.7032 6.91481 38.7353 7.335 35.7594C7.76324 32.7386 8.83691 29.8814 10.6516 27.2538C12.163 25.0605 14.0624 23.1011 16.3583 21.4189C19.7714 18.9185 23.6279 17.1228 28.0613 16.2351C29.2352 15.9999 30.4324 15.8418 31.6187 15.6497C32.2107 15.5541 32.5206 15.2338 32.4563 14.7577C32.4009 14.3489 32.0966 14.2041 31.6939 14.2041C31.596 14.2041 31.4924 14.2126 31.3854 14.2278Z" fill="url(#paint3_linear_23_38)"/>
<path d="M167.459 50.9737C167.457 51.4592 167.707 51.4767 168.134 51.472C169.433 51.4555 170.733 51.4275 172.029 51.4801C172.798 51.5118 173.056 51.3594 173.045 50.6383C172.995 47.2232 173.019 43.8073 173.031 40.3922C173.032 40.1528 172.884 39.8741 173.192 39.6309C179.252 43.988 185.304 48.3395 191.381 52.7085C191.499 52.6124 191.545 52.5921 191.545 52.5717C191.553 45.4175 191.554 38.2629 191.574 31.1082C191.576 30.6294 191.313 30.6029 190.886 30.6071C189.52 30.6208 188.151 30.6483 186.786 30.5976C186.084 30.5712 185.951 30.7869 185.955 31.3429C185.983 34.7873 185.973 38.2321 185.961 41.677C185.96 41.914 186.106 42.1942 185.798 42.4222C179.728 38.057 173.67 33.6999 167.472 29.2415C167.472 36.6171 167.477 43.7954 167.459 50.9737ZM70.1387 30.5981C68.9131 30.654 67.6786 30.653 66.4525 30.5976C65.7323 30.565 65.5511 30.7406 65.5592 31.3628C65.5994 34.5701 65.5781 37.7774 65.5781 40.9851C65.5781 44.2511 65.5819 47.5175 65.5724 50.7835C65.5715 51.1905 65.526 51.482 66.2249 51.4801C73.8055 51.4564 81.3865 51.4592 88.967 51.4772C89.5774 51.4786 89.6957 51.2998 89.6791 50.8237C89.6417 49.7061 89.6195 48.5851 89.6858 47.4702C89.725 46.8149 89.5211 46.6379 88.7403 46.6422C86.2518 46.6573 83.7633 46.6573 81.2748 46.6568C78.2653 46.6568 75.2563 46.6568 72.2477 46.6828C71.2602 46.6918 71.1021 46.4174 71.1087 45.6546C71.1471 40.9175 71.1073 36.1799 71.1494 31.4428C71.1556 30.7879 70.9531 30.5939 70.3185 30.5939C70.2617 30.5939 70.2021 30.5953 70.1387 30.5981ZM115.589 31.1854C115.628 32.3324 115.661 33.4836 115.58 34.6273C115.532 35.3225 115.809 35.4318 116.543 35.428C121.666 35.3996 126.789 35.4086 131.912 35.4157C133.466 35.4171 134.053 35.8505 134.087 36.9711C134.125 38.2217 133.539 38.7044 131.916 38.7067C126.758 38.7133 121.602 38.7124 116.444 38.7048C115.936 38.7044 115.575 38.6641 115.582 39.3138C115.623 43.1689 115.61 47.025 115.592 50.88C115.589 51.3244 115.699 51.4924 116.259 51.4772C117.624 51.4413 118.993 51.4247 120.356 51.482C121.081 51.5122 121.173 51.2681 121.166 50.7338C121.135 48.5562 121.172 46.3781 121.139 44.2005C121.131 43.6795 121.248 43.4699 121.914 43.5016C123.003 43.5541 124.1 43.5432 125.192 43.5039C125.76 43.4836 126.124 43.6606 126.493 44.0178C128.901 46.3469 131.332 48.6575 133.762 50.9695C133.981 51.1782 134.134 51.4682 134.551 51.4678C136.887 51.4621 139.223 51.4649 141.746 51.4649C138.915 48.7625 136.225 46.1955 133.425 43.5215C133.907 43.442 134.241 43.3904 134.574 43.3308C137.165 42.8642 138.8 41.5492 139.403 39.3053C139.676 38.2903 139.706 37.2654 139.631 36.2348C139.368 32.6532 137.036 30.6677 132.871 30.6294C129.495 30.5991 126.119 30.6024 122.743 30.6057C120.586 30.6076 118.429 30.6095 116.272 30.6029C116.269 30.6029 116.265 30.6029 116.261 30.6029C115.739 30.6029 115.573 30.7202 115.589 31.1854ZM97.9571 55.6934C97.5909 57.3353 97.1546 58.9655 96.7685 60.6037C96.6081 61.2827 96.9985 61.594 97.8161 61.5903C98.0461 61.5571 98.3201 61.5368 98.5808 61.4739C98.8193 61.4161 98.8439 61.2254 98.8368 61.0418C98.8316 60.9093 98.903 60.6997 98.6366 60.7286C97.5402 60.8483 97.9751 60.1849 98.0537 59.8148C98.3362 58.4871 98.6925 57.1716 99.0019 55.8476C99.045 55.6631 99.3048 55.3441 98.8051 55.3205C98.6863 55.3148 98.5595 55.2949 98.4407 55.2949C98.2235 55.2949 98.0314 55.3602 97.9571 55.6934ZM129.281 55.9948C129.201 56.318 129.421 56.3142 129.637 56.3109C129.692 56.3099 129.747 56.3094 129.797 56.3137C130.44 56.3733 130.364 55.9342 130.432 55.6153C130.499 55.2987 130.294 55.3086 130.098 55.3186C130.033 55.3219 129.969 55.3252 129.916 55.3162C129.846 55.3053 129.784 55.3001 129.729 55.3001C129.233 55.3001 129.35 55.7198 129.281 55.9948ZM80.9024 55.8268C80.4916 57.6992 79.9976 59.5579 79.5259 61.4544C80.3237 61.6598 80.7188 61.5254 80.7879 60.827C80.8423 60.2762 81.0543 59.7377 81.1816 59.1912C81.3046 58.6636 81.6633 58.2883 82.1876 58.0304C82.5098 57.8724 82.8628 57.6931 83.2314 57.9325C83.5693 58.152 83.6138 58.4596 83.5262 58.8027C83.3445 59.5201 83.1604 60.2374 83.019 60.9609C82.9816 61.1526 82.6617 61.5269 83.2593 61.5245C83.319 61.5245 83.3828 61.5306 83.4477 61.5368C83.7065 61.5609 83.9791 61.5855 84.0477 61.2051C84.2299 60.1915 84.6477 59.2106 84.6808 58.1771C84.7135 57.1702 84.1239 56.8366 82.9726 57.0471C82.5439 57.1262 82.1256 57.7077 81.7669 57.3079C81.5705 57.0883 81.8677 56.5399 81.9425 56.1396C81.9533 56.0818 81.9869 56.0189 81.9713 55.9664C81.9046 55.743 82.3934 55.3612 81.7196 55.3087C81.6538 55.3034 81.5923 55.3001 81.5346 55.3001C81.1939 55.3001 80.9947 55.4085 80.9024 55.8268ZM67.1382 56.185C67.0781 56.5654 67.1443 57.0864 66.3792 57.1494C66.1279 57.1702 66.0948 57.6869 66.2623 57.7186C67.0648 57.8691 66.6006 58.3106 66.5547 58.5969C66.454 59.2342 66.2519 59.8588 66.109 60.492C65.9325 61.2713 66.2557 61.6078 67.2655 61.5992C67.4827 61.5524 67.8144 61.4923 68.138 61.4081C68.4305 61.3324 68.4215 61.1152 68.4149 60.9046C68.4092 60.7357 68.3406 60.607 68.1201 60.6538C67.0114 60.8899 67.2196 60.3259 67.379 59.7708C67.4775 59.4297 67.5518 59.0828 67.6256 58.7369C67.7335 58.2311 67.7212 57.6595 68.6519 57.7763C68.942 57.8128 68.9813 57.5232 69.0305 57.3282C69.0787 57.1385 68.9406 57.0571 68.7418 57.0789C67.8891 57.173 68.1409 56.7377 68.1986 56.3236C68.2294 56.1027 68.6221 55.7284 68.0174 55.6205C67.9223 55.6034 67.8352 55.5949 67.7562 55.5949C67.4037 55.5949 67.2049 55.77 67.1382 56.185ZM87.8043 57.3978C87.6572 57.4659 87.5271 57.5606 87.3804 57.6481C87.1731 57.4617 87.4769 57.0382 86.875 57.0533C86.3318 57.0675 86.2892 57.314 86.2097 57.6472C85.9097 58.9092 85.5912 60.1679 85.2714 61.462C86.0791 61.6589 86.4647 61.5098 86.5315 60.8171C86.584 60.2663 86.7931 59.7268 86.9261 59.1808C87.0539 58.6551 87.4206 58.2808 87.9473 58.0295C88.2695 57.8762 88.6315 57.6983 88.9987 57.9282C89.3488 58.1487 89.3469 58.4738 89.2656 58.8079C89.0891 59.5267 88.9017 60.2436 88.7559 60.9671C88.7162 61.1653 88.4162 61.524 89.0119 61.5311C89.3753 61.5354 89.7373 61.6139 89.8168 61.1095C89.9309 60.3841 90.1959 59.6772 90.3307 58.9536C90.4457 58.3361 90.793 57.6131 90.0123 57.1636C89.7596 57.0178 89.5055 56.9601 89.2533 56.9601C88.7583 56.9601 88.269 57.182 87.8043 57.3978ZM161.765 57.6282C161.618 57.4356 161.884 57.0211 161.281 57.0571C160.831 57.0845 160.724 57.2407 160.648 57.5729C160.388 58.7246 160.089 59.8693 159.814 61.0182C159.768 61.2108 159.5 61.5051 160.011 61.525C160.36 61.5392 160.78 61.6499 160.88 61.1578C161.009 60.5227 161.195 59.8962 161.328 59.2617C161.411 58.8694 161.598 58.5292 161.931 58.2661C162.285 57.986 162.704 57.6841 163.204 57.8856C163.754 58.1066 163.603 58.5879 163.52 58.983C163.373 59.6748 163.197 60.3633 162.997 61.0451C162.878 61.4521 163.035 61.5306 163.487 61.5462C164.208 61.5718 164.062 61.0825 164.175 60.7688C164.498 59.8669 164.313 58.7989 165.342 58.1322C165.671 57.9192 166.044 57.6883 166.459 57.9027C166.865 58.1118 166.851 58.4871 166.763 58.8491C166.589 59.5669 166.399 60.2824 166.252 61.0035C166.216 61.18 165.965 61.5183 166.468 61.5217C166.759 61.5226 167.178 61.6996 167.279 61.2306C167.503 60.1934 167.819 59.1666 167.957 58.1218C168.072 57.2449 167.423 56.8777 166.391 57.0367C165.755 57.1342 165.351 57.5293 164.858 57.8118C164.461 57.2492 164.082 56.9729 163.57 56.9729C163.112 56.9729 162.547 57.1938 161.765 57.6282ZM77.6861 56.9752C76.0593 56.9956 74.6326 58.2306 74.5924 59.6331C74.5673 60.3883 74.811 61.0466 75.6386 61.4062C76.5859 61.8164 77.4978 61.6295 78.3315 61.1317C78.5885 60.9784 79.0707 60.7712 78.8681 60.5076C78.6221 60.1882 78.1555 60.1442 77.7301 60.4934C77.3776 60.7821 76.9148 60.9377 76.4132 60.7267C75.8894 60.5057 75.719 60.1059 75.7242 59.6341C75.7318 58.9049 76.0588 58.3205 76.8225 57.9675C77.3038 57.7451 77.864 57.6613 78.227 58.0607C78.6741 58.5533 79.2514 58.3205 79.4345 58.0901C79.7416 57.7044 79.1979 57.4513 78.8544 57.2383C78.5251 57.0344 78.1285 56.9752 77.7363 56.9752C77.7197 56.9752 77.7031 56.9752 77.6861 56.9752ZM151.95 56.9904C150.746 57.1143 149.854 57.6306 149.318 58.5822C148.696 59.6861 148.995 60.8947 150.018 61.3934C151.084 61.913 152.592 61.516 153.361 60.509C152.938 60.235 152.563 60.157 152.105 60.5218C151.716 60.8313 151.212 60.9529 150.697 60.6586C150.022 60.2743 149.943 59.2532 150.532 58.5112C151.107 57.7858 152.052 57.553 152.686 58.1014C153.206 58.55 153.698 58.2694 153.902 58.0555C154.139 57.8071 153.696 57.4896 153.402 57.3032C153.052 57.0812 152.649 56.9762 152.224 56.9762C152.134 56.9762 152.042 56.9809 151.95 56.9904ZM184.126 57.0112C183.651 57.0784 183.209 57.2236 182.808 57.4636C182.694 57.5317 182.413 57.8052 182.428 57.4513C182.444 57.0722 182.242 57.0741 182.009 57.0765C181.959 57.0765 181.908 57.077 181.857 57.0736C181.391 57.0443 181.418 57.3524 181.357 57.5998C181.089 58.691 180.808 59.7808 180.571 60.8772C180.526 61.084 180.072 61.4559 180.753 61.5297C181.188 61.5765 181.542 61.5491 181.618 61.0414C181.709 60.4319 181.91 59.8357 182.043 59.23C182.158 58.6995 182.508 58.3181 183.026 58.0536C183.343 57.8909 183.706 57.7082 184.078 57.9027C184.497 58.1199 184.476 58.4814 184.386 58.8457C184.209 59.564 184.026 60.2819 183.877 61.0044C183.84 61.1833 183.576 61.5169 184.082 61.5202C184.372 61.5226 184.799 61.7095 184.906 61.2448C185.146 60.2081 185.394 59.1727 185.6 58.3021C185.624 57.4125 185.213 56.9861 184.462 56.9861C184.357 56.9861 184.244 56.9942 184.126 57.0112ZM144.556 57.0117C144.081 57.0789 143.639 57.2237 143.239 57.464C143.124 57.5326 142.844 57.8043 142.859 57.4503C142.876 57.0703 142.674 57.0732 142.44 57.076C142.39 57.0765 142.338 57.077 142.287 57.0736C141.82 57.0443 141.849 57.3538 141.788 57.6008C141.52 58.6924 141.239 59.7817 141.002 60.8786C140.957 61.0854 140.504 61.4573 141.186 61.5302C141.622 61.5765 141.974 61.5472 142.05 61.0399C142.14 60.4305 142.341 59.8338 142.475 59.2286C142.6 58.665 142.982 58.2708 143.548 58.0101C143.873 57.8601 144.242 57.6964 144.596 57.9509C144.886 58.1601 144.91 58.453 144.836 58.7601C144.653 59.5077 144.464 60.254 144.308 61.0059C144.271 61.1852 144.008 61.5183 144.515 61.5202C144.804 61.5216 145.23 61.709 145.338 61.2439C145.578 60.2071 145.826 59.1718 146.031 58.3021C146.055 57.4125 145.644 56.9861 144.894 56.9861C144.788 56.9861 144.675 56.9946 144.556 57.0117ZM127.516 57.1479C127.182 57.2729 126.889 57.4806 126.417 57.7427C126.468 57.3703 126.598 57.05 126.024 57.0604C125.574 57.0689 125.461 57.2322 125.386 57.5686C125.127 58.7204 124.826 59.865 124.552 61.0144C124.506 61.2051 124.232 61.5056 124.743 61.5221C125.046 61.5316 125.46 61.6797 125.577 61.2415C125.646 60.9846 125.725 60.7286 125.777 60.4688C126.008 59.3057 126.099 58.0773 127.923 57.8677C128.258 57.8293 128.303 57.4158 128.22 57.2042C128.169 57.0736 128.07 57.0306 127.956 57.0306C127.809 57.0306 127.638 57.1025 127.516 57.1479ZM115.045 57.5653C114.758 58.5964 114.154 59.5144 113.269 60.5928C113.072 59.4079 112.874 58.4625 112.771 57.509C112.716 56.9956 112.357 57.0746 111.993 57.0765C111.427 57.0793 111.658 57.4262 111.698 57.6429C111.874 58.6002 112.08 59.5522 112.271 60.5071C112.559 61.9456 112.553 61.9754 111.023 62.6672C110.74 62.795 110.72 62.9213 110.768 63.1475C110.838 63.474 111.066 63.4816 111.368 63.4229C111.965 63.307 112.442 63.0146 112.781 62.6024C114.022 61.0939 115.195 59.5465 116.002 57.8227C116.097 57.6192 116.55 57.2686 116.014 57.1011C115.898 57.0647 115.782 57.0429 115.671 57.0429C115.395 57.0429 115.154 57.1782 115.045 57.5653ZM134.344 57.6027C133.99 58.6499 133.353 59.5882 132.476 60.6671C132.315 59.4817 132.14 58.5065 132.067 57.5256C132.034 57.0727 131.769 57.0732 131.448 57.0736C131.406 57.0736 131.362 57.0736 131.318 57.0722C130.759 57.0595 130.946 57.3883 130.983 57.6174C131.155 58.692 131.329 59.7671 131.544 60.836C131.593 61.0773 131.383 61.4862 131.926 61.5264C132.399 61.5609 132.832 61.569 133.167 61.1379C133.982 60.0884 134.801 59.044 135.283 57.8416C135.375 57.6126 135.797 57.2766 135.302 57.102C135.193 57.0637 135.09 57.0443 134.994 57.0443C134.696 57.0443 134.469 57.2326 134.344 57.6027ZM189.861 57.6268C189.541 58.6428 188.955 59.5494 188.111 60.5918C187.916 59.4566 187.708 58.5429 187.62 57.6211C187.572 57.1276 187.331 57.05 186.853 57.0699C186.204 57.0973 186.503 57.4792 186.543 57.7063C186.71 58.6636 186.926 59.6147 187.115 60.5701C187.384 61.9267 187.324 62.0564 185.881 62.6568C185.528 62.8035 185.555 62.962 185.621 63.209C185.7 63.502 185.926 63.4688 186.172 63.4267C186.772 63.3231 187.254 63.0326 187.594 62.6209C188.84 61.1152 190.013 59.5669 190.824 57.8454C190.919 57.6448 191.425 57.2686 190.777 57.0869C190.675 57.0585 190.582 57.0448 190.5 57.0448C190.163 57.0448 189.974 57.2695 189.861 57.6268ZM128.881 57.5024C128.641 58.6797 128.318 59.8447 128.037 61.0163C127.991 61.207 127.719 61.5018 128.228 61.5235C128.571 61.5387 128.988 61.6565 129.1 61.1677C129.374 59.9648 129.676 58.7672 129.972 57.5421C129.959 57.3661 130.185 57.0713 129.684 57.0741C129.647 57.0746 129.611 57.0741 129.575 57.0741C129.548 57.0736 129.522 57.0736 129.496 57.0736C129.205 57.0736 128.962 57.1039 128.881 57.5024Z" fill="url(#paint4_linear_23_38)"/>
<path d="M115.586 31.1836C115.625 32.3306 115.657 33.4819 115.577 34.6256C115.529 35.3207 115.806 35.43 116.539 35.4262C121.662 35.3978 126.786 35.4068 131.909 35.4139C133.463 35.4153 134.05 35.8488 134.083 36.9693C134.121 38.2199 133.535 38.7026 131.912 38.7049C126.755 38.7116 121.598 38.7106 116.441 38.703C115.932 38.7026 115.571 38.6624 115.578 39.3121C115.619 43.1671 115.607 47.0232 115.588 50.8783C115.586 51.3226 115.696 51.4906 116.255 51.4754C117.621 51.4395 118.989 51.4229 120.353 51.4802C121.077 51.5104 121.169 51.2663 121.162 50.732C121.131 48.5544 121.168 46.3763 121.135 44.1987C121.128 43.6777 121.244 43.4681 121.91 43.4998C123 43.5523 124.097 43.5414 125.188 43.5022C125.757 43.4818 126.121 43.6588 126.49 44.016C128.898 46.3451 131.329 48.6557 133.758 50.9677C133.978 51.1764 134.131 51.4664 134.548 51.466C136.884 51.4603 139.22 51.4631 141.743 51.4631C138.911 48.7607 136.222 46.1937 133.421 43.5197C133.903 43.4402 134.238 43.3886 134.571 43.329C137.162 42.8624 138.796 41.5474 139.4 39.3035C139.673 38.2885 139.702 37.2636 139.627 36.233C139.365 32.6514 137.032 30.6659 132.867 30.6276C129.492 30.5973 126.116 30.6006 122.74 30.6034C120.583 30.6058 118.426 30.6077 116.269 30.6011C116.265 30.6011 116.261 30.6011 116.258 30.6011C115.736 30.6011 115.57 30.7184 115.586 31.1836Z" fill="url(#paint5_linear_23_38)"/>
<path d="M97.3712 30.7067C93.0656 31.038 90.6026 32.9553 90.0192 36.2483C89.502 39.1669 89.5512 42.1371 89.917 45.0534C90.4167 49.0344 92.6714 50.9186 97.2888 51.362C100.27 51.6488 103.309 51.6402 106.292 51.3667C110.77 50.9565 113.108 48.9766 113.706 45.3492C113.941 43.9211 113.874 42.4707 113.762 41.0284C113.762 39.7343 113.843 38.4354 113.747 37.1459C113.48 33.5657 110.998 31.2424 106.88 30.7768C105.267 30.5941 103.643 30.5165 102.02 30.5165C100.466 30.5165 98.9133 30.588 97.3712 30.7067ZM98.3762 46.5984C96.4248 46.4692 95.4278 45.5266 95.353 43.8312C95.2716 41.9824 95.2735 40.127 95.3497 38.2778C95.4235 36.4872 96.5274 35.5252 98.6388 35.4448C100.749 35.3643 102.87 35.3634 104.98 35.4457C107.133 35.5295 108.179 36.5237 108.249 38.3734C108.283 39.2833 108.255 40.1952 108.255 41.1065C108.252 41.1065 108.25 41.1065 108.247 41.1065C108.247 42.0179 108.283 42.9297 108.24 43.8392C108.161 45.4798 107.228 46.4361 105.325 46.5866C104.183 46.6769 103.035 46.7181 101.886 46.7181C100.715 46.7181 99.5426 46.6755 98.3762 46.5984Z" fill="url(#paint6_linear_23_38)"/>
<path d="M149.083 30.702C144.445 31.0507 142.132 33.0074 141.58 36.9978C141.208 39.6803 141.204 42.4191 141.584 45.1026C142.144 49.0571 144.399 50.9758 149.014 51.3648C152.13 51.627 155.299 51.6596 158.421 51.308C162.442 50.8552 164.547 49.075 165.304 45.6458C165.638 44.1344 165.506 42.5951 165.427 41.0667C165.427 39.7432 165.515 38.4145 165.41 37.0967C165.129 33.5572 162.639 31.24 158.593 30.78C156.968 30.595 155.333 30.517 153.699 30.5174C152.156 30.5174 150.614 30.587 149.083 30.702ZM150.092 46.6007C148.096 46.5023 147.085 45.5209 147.017 43.7848C146.944 41.9649 146.945 40.1398 147.013 38.3194C147.081 36.4905 148.204 35.5148 150.36 35.44C152.437 35.3676 154.523 35.3657 156.6 35.4405C158.798 35.52 159.852 36.5161 159.919 38.4202C159.95 39.3008 159.924 40.1833 159.924 41.0649C159.922 41.0649 159.92 41.0649 159.918 41.0649C159.918 41.9757 159.951 42.8881 159.911 43.798C159.836 45.4854 158.89 46.4805 156.94 46.5875C155.771 46.6523 154.598 46.6835 153.424 46.6835C152.312 46.6835 151.199 46.6551 150.092 46.6007Z" fill="url(#paint7_linear_23_38)"/>
<path d="M167.459 50.9745C167.458 51.46 167.708 51.4775 168.135 51.4728C169.433 51.4562 170.734 51.4283 172.03 51.4808C172.798 51.5125 173.057 51.3602 173.046 50.639C172.996 47.224 173.02 43.808 173.032 40.393C173.032 40.1536 172.885 39.8749 173.193 39.6316C179.253 43.9888 185.305 48.3403 191.381 52.7092C191.5 52.6132 191.546 52.5928 191.546 52.5725C191.554 45.4183 191.555 38.2636 191.575 31.109C191.577 30.6301 191.314 30.6036 190.887 30.6079C189.52 30.6216 188.151 30.649 186.787 30.5984C186.085 30.5719 185.952 30.7877 185.956 31.3437C185.983 34.7881 185.973 38.2329 185.961 41.6777C185.961 41.9148 186.106 42.1949 185.798 42.423C179.729 38.0578 173.671 33.7007 167.472 29.2422C167.472 36.6179 167.478 43.7962 167.459 50.9745Z" fill="url(#paint8_linear_23_38)"/>
<path d="M70.1387 30.5975C68.9131 30.6534 67.6786 30.6524 66.4525 30.5971C65.7323 30.5644 65.5511 30.74 65.5592 31.3622C65.5994 34.5695 65.5781 37.7768 65.5781 40.9846C65.5781 44.2505 65.5819 47.517 65.5724 50.7829C65.5715 51.1899 65.526 51.4814 66.2249 51.4795C73.8055 51.4558 81.3865 51.4587 88.967 51.4766C89.5774 51.4781 89.6957 51.2992 89.6791 50.8232C89.6417 49.7055 89.6195 48.5845 89.6858 47.4697C89.725 46.8143 89.5211 46.6373 88.7403 46.6416C86.2518 46.6567 83.7633 46.6567 81.2748 46.6567C78.2653 46.6562 75.2563 46.6562 72.2477 46.6823C71.2602 46.6913 71.1021 46.4168 71.1087 45.654C71.1471 40.9169 71.1073 36.1793 71.1494 31.4422C71.1556 30.7873 70.9531 30.5933 70.3185 30.5933C70.2622 30.5933 70.2021 30.5947 70.1387 30.5975Z" fill="url(#paint9_linear_23_38)"/>
<path d="M161.762 57.6282C161.615 57.4356 161.881 57.0211 161.278 57.0571C160.829 57.0845 160.721 57.2407 160.645 57.5729C160.385 58.7246 160.086 59.8693 159.811 61.0182C159.765 61.2108 159.497 61.5051 160.008 61.525C160.357 61.5392 160.777 61.6499 160.877 61.1578C161.006 60.5228 161.192 59.8963 161.325 59.2617C161.408 58.8694 161.595 58.5292 161.928 58.2661C162.282 57.986 162.701 57.6841 163.201 57.8857C163.751 58.1066 163.6 58.5879 163.517 58.983C163.37 59.6748 163.194 60.3633 162.994 61.0452C162.875 61.4521 163.032 61.5306 163.485 61.5463C164.205 61.5718 164.059 61.0825 164.172 60.7688C164.495 59.8669 164.31 58.7989 165.339 58.1322C165.668 57.9192 166.041 57.6883 166.456 57.9027C166.862 58.1118 166.848 58.4871 166.76 58.8491C166.586 59.5669 166.396 60.2824 166.249 61.0035C166.213 61.18 165.962 61.5184 166.465 61.5217C166.756 61.5226 167.175 61.6996 167.276 61.2306C167.5 60.1934 167.816 59.1666 167.954 58.1218C168.069 57.2449 167.42 56.8778 166.388 57.0367C165.752 57.1342 165.348 57.5293 164.855 57.8118C164.458 57.2487 164.079 56.9729 163.567 56.9729C163.109 56.9729 162.544 57.1938 161.762 57.6282Z" fill="url(#paint10_linear_23_38)"/>
<path d="M107.161 57.2178C106.106 57.6668 105.497 58.431 105.364 59.4257C105.136 61.1192 106.317 61.8967 108.175 61.3128C108.355 61.2555 108.535 61.0918 108.713 61.2849C108.869 61.4528 108.711 61.6222 108.641 61.7722C108.189 62.7366 106.738 63.0338 105.759 62.3003C105.381 62.0174 105.208 62.1087 104.94 62.3193C104.545 62.6278 104.951 62.7863 105.131 62.9415C105.316 63.1014 105.563 63.2306 105.811 63.3077C107.468 63.8254 109.423 62.9614 109.843 61.4893C110.193 60.2651 110.472 59.0254 110.749 57.787C110.8 57.5618 111.188 57.2135 110.611 57.0848C110.101 56.9712 109.849 57.2078 109.81 57.797C109.302 57.2282 108.764 56.9835 108.194 56.9835C107.861 56.9835 107.517 57.0668 107.161 57.2178ZM107.637 60.8183C106.918 60.8121 106.424 60.2632 106.468 59.5198C106.522 58.6104 107.415 57.7643 108.302 57.8154C109.039 57.8575 109.413 58.2612 109.408 58.8626C109.4 59.9093 108.549 60.8183 107.649 60.8183C107.645 60.8183 107.641 60.8183 107.637 60.8183ZM108.669 61.0582C108.664 61.044 108.709 61.0208 108.732 61.0024C108.753 61.0393 108.782 61.0771 108.791 61.1183C108.795 61.1339 108.751 61.1566 108.729 61.1756C108.707 61.1368 108.678 61.0994 108.669 61.0582Z" fill="url(#paint11_linear_23_38)"/>
<path d="M123.269 55.7922C123.18 56.4003 122.978 56.996 122.8 57.6944C121.633 56.7817 120.538 56.7902 119.492 57.6765C118.808 58.2575 118.446 58.9631 118.465 59.8106C118.5 61.3465 119.97 62.0776 121.501 61.3125C121.765 61.1814 122.066 60.6774 122.277 61.3882C122.347 61.6186 122.748 61.6006 123.014 61.5453C123.41 61.4629 123.455 61.1156 123.363 60.9046C123.124 60.3538 123.395 59.8678 123.507 59.3658C123.759 58.2415 124.064 57.1257 124.319 56.0014C124.372 55.7714 124.723 55.4113 124.13 55.3204C124.029 55.3053 123.931 55.2944 123.839 55.2944C123.551 55.2944 123.327 55.3995 123.269 55.7922ZM119.589 59.6355C119.586 58.7137 120.508 57.7725 121.406 57.8113C122.144 57.8435 122.462 58.2571 122.547 58.7501C122.526 59.882 121.711 60.8033 120.796 60.8218C120.787 60.8218 120.779 60.8218 120.771 60.8218C120.114 60.8218 119.591 60.2984 119.589 59.6355Z" fill="url(#paint12_linear_23_38)"/>
<path d="M171.007 57.3337C170.857 57.4075 170.76 57.6583 170.485 57.3517C170.083 56.9031 169.643 56.8468 169.47 57.5608C169.009 59.4555 168.536 61.3468 168.067 63.2419C168.862 63.4932 169.242 63.2983 169.334 62.5932C169.406 62.0523 169.597 61.5228 169.74 60.9626C170.842 61.7164 171.636 61.8129 172.551 61.2881C173.452 60.7714 173.989 60.0474 174.066 59.1001C174.126 58.3629 173.992 57.6687 173.219 57.2267C172.91 57.0502 172.601 56.9764 172.295 56.9764C171.86 56.9764 171.43 57.124 171.007 57.3337ZM171.103 60.8107C170.379 60.7511 170.011 60.3285 170.021 59.7342C170.038 58.6477 170.857 57.7993 171.952 57.8106C172.659 57.8764 172.946 58.3704 172.959 59.0168C172.975 59.8818 172.043 60.8145 171.195 60.8145C171.164 60.8145 171.133 60.8135 171.103 60.8107Z" fill="url(#paint13_linear_23_38)"/>
<path d="M80.9036 55.8277C80.4928 57.7001 79.9988 59.5588 79.527 61.4554C80.3248 61.6607 80.72 61.5263 80.789 60.8279C80.8435 60.2771 81.0555 59.7386 81.1827 59.1921C81.3058 58.6645 81.6644 58.2892 82.1887 58.0314C82.511 57.8733 82.864 57.694 83.2326 57.9334C83.5705 58.153 83.6149 58.4605 83.5274 58.8036C83.3457 59.521 83.1616 60.2383 83.0201 60.9618C82.9828 61.1535 82.6629 61.5278 83.2605 61.5254C83.3201 61.5254 83.384 61.5315 83.4489 61.5377C83.7077 61.5618 83.9802 61.5864 84.0489 61.206C84.231 60.1924 84.6489 59.2115 84.682 58.178C84.7146 57.1711 84.125 56.8375 82.9738 57.0481C82.5451 57.1271 82.1268 57.7086 81.7681 57.3088C81.5717 57.0892 81.8689 56.5408 81.9436 56.1405C81.9545 56.0827 81.9881 56.0198 81.9725 55.9673C81.9058 55.7439 82.3946 55.3621 81.7208 55.3096C81.655 55.3044 81.5935 55.301 81.5357 55.301C81.195 55.301 80.9958 55.4094 80.9036 55.8277Z" fill="url(#paint14_linear_23_38)"/>
<path d="M176.521 57.1587C175.187 57.6419 174.338 59.175 174.704 60.3892C174.969 61.2665 175.827 61.7193 176.874 61.5708C177.404 61.4955 177.798 61.2244 178.277 60.9324C178.313 61.4264 178.611 61.6228 179.139 61.5561C179.509 61.5092 179.584 61.2438 179.541 61.0323C179.298 59.8318 179.893 58.7434 180.14 57.6135C180.269 57.0253 179.941 57.083 179.498 57.0669C178.977 57.048 179.155 57.5141 178.863 57.6627C178.468 57.19 177.986 56.9794 177.447 56.9794C177.154 56.9794 176.843 57.0418 176.521 57.1587ZM176.964 60.8108C176.107 60.79 175.835 60.27 175.765 59.7121C175.768 58.7027 176.694 57.7601 177.589 57.8094C178.315 57.8501 178.707 58.2404 178.71 58.8475C178.717 59.8777 177.896 60.8113 176.996 60.8108C176.986 60.8108 176.975 60.8108 176.964 60.8108Z" fill="url(#paint15_linear_23_38)"/>
<path d="M87.8008 57.3976C87.6536 57.4657 87.5235 57.5603 87.3768 57.6479C87.1695 57.4615 87.4733 57.0379 86.8714 57.0531C86.3282 57.0673 86.2856 57.3138 86.2061 57.6469C85.9061 58.9089 85.5876 60.1676 85.2678 61.4618C86.0755 61.6587 86.4611 61.5096 86.5279 60.8168C86.5804 60.2661 86.7895 59.7266 86.9225 59.1805C87.0503 58.6548 87.417 58.2805 87.9437 58.0293C88.2659 57.876 88.6279 57.698 88.9951 57.928C89.3452 58.1485 89.3434 58.4736 89.262 58.8077C89.0855 59.5265 88.8981 60.2433 88.7523 60.9668C88.7126 61.1651 88.4126 61.5238 89.0083 61.5309C89.3717 61.5352 89.7337 61.6137 89.8132 61.1093C89.9273 60.3839 90.1923 59.6769 90.3271 58.9534C90.4421 58.3359 90.7894 57.6129 90.0087 57.1633C89.756 57.0176 89.5019 56.9599 89.2497 56.9599C88.7547 56.9599 88.2654 57.1818 87.8008 57.3976Z" fill="url(#paint16_linear_23_38)"/>
<path d="M144.558 57.0115C144.083 57.0787 143.642 57.2235 143.241 57.4639C143.126 57.5325 142.846 57.8041 142.861 57.4502C142.878 57.0702 142.676 57.0731 142.442 57.0759C142.392 57.0764 142.34 57.0768 142.289 57.0735C141.822 57.0442 141.851 57.3537 141.79 57.6007C141.522 58.6923 141.241 59.7816 141.004 60.8785C140.959 61.0852 140.506 61.4572 141.188 61.53C141.624 61.5764 141.976 61.5471 142.052 61.0398C142.142 60.4304 142.343 59.8337 142.477 59.2284C142.602 58.6649 142.984 58.2707 143.55 58.01C143.875 57.86 144.244 57.6962 144.598 57.9508C144.888 58.16 144.913 58.4529 144.838 58.76C144.655 59.5076 144.466 60.2538 144.31 61.0057C144.273 61.1851 144.01 61.5182 144.517 61.5201C144.807 61.5215 145.232 61.7089 145.34 61.2438C145.58 60.207 145.828 59.1717 146.034 58.3019C146.057 57.4123 145.646 56.986 144.896 56.986C144.79 56.986 144.677 56.9945 144.558 57.0115Z" fill="url(#paint17_linear_23_38)"/>
<path d="M184.126 57.0117C183.652 57.0789 183.21 57.2241 182.809 57.464C182.695 57.5322 182.414 57.8057 182.429 57.4517C182.444 57.0727 182.243 57.0746 182.009 57.077C181.96 57.077 181.909 57.0774 181.858 57.0741C181.391 57.0448 181.418 57.3528 181.358 57.6003C181.09 58.6915 180.809 59.7813 180.572 60.8776C180.527 61.0844 180.073 61.4564 180.754 61.5302C181.188 61.577 181.543 61.5496 181.619 61.0418C181.71 60.4324 181.911 59.8361 182.044 59.2305C182.159 58.7 182.509 58.3186 183.026 58.0541C183.343 57.8913 183.706 57.7087 184.079 57.9032C184.497 58.1204 184.477 58.4819 184.387 58.8462C184.21 59.5645 184.027 60.2824 183.878 61.0049C183.841 61.1838 183.577 61.5174 184.083 61.5207C184.373 61.5231 184.799 61.71 184.907 61.2453C185.147 60.2085 185.395 59.1732 185.601 58.3025C185.625 57.4129 185.213 56.9866 184.463 56.9866C184.357 56.9866 184.245 56.9946 184.126 57.0117Z" fill="url(#paint18_linear_23_38)"/>
<path d="M189.862 57.6268C189.541 58.6428 188.956 59.5494 188.112 60.5918C187.916 59.4566 187.709 58.5429 187.62 57.6211C187.573 57.1276 187.332 57.05 186.854 57.0699C186.204 57.0973 186.503 57.4792 186.543 57.7063C186.711 58.6636 186.927 59.6147 187.115 60.5701C187.384 61.9267 187.324 62.0564 185.882 62.6568C185.529 62.8035 185.556 62.962 185.621 63.209C185.7 63.502 185.927 63.4688 186.172 63.4267C186.772 63.3231 187.254 63.0326 187.595 62.6209C188.841 61.1152 190.014 59.5669 190.824 57.8454C190.919 57.6448 191.425 57.2686 190.777 57.0869C190.675 57.0585 190.583 57.0448 190.5 57.0448C190.163 57.0448 189.975 57.2695 189.862 57.6268Z" fill="url(#paint19_linear_23_38)"/>
<path d="M115.045 57.5656C114.757 58.5967 114.153 59.5147 113.269 60.5931C113.072 59.4082 112.874 58.4628 112.771 57.5093C112.716 56.9959 112.357 57.0749 111.993 57.0768C111.426 57.0796 111.658 57.4265 111.697 57.6432C111.873 58.6005 112.08 59.5525 112.271 60.5074C112.559 61.9459 112.553 61.9758 111.023 62.6676C110.74 62.7953 110.72 62.9217 110.768 63.1478C110.838 63.4743 111.066 63.4819 111.368 63.4232C111.965 63.3073 112.442 63.0149 112.781 62.6027C114.021 61.0942 115.195 59.5469 116.002 57.823C116.097 57.6196 116.549 57.2689 116.014 57.1014C115.898 57.065 115.781 57.0432 115.67 57.0432C115.394 57.0432 115.154 57.1785 115.045 57.5656Z" fill="url(#paint20_linear_23_38)"/>
<path d="M69.7103 58.0745C68.7919 59.0975 68.8288 60.5427 69.7529 61.2136C70.7216 61.9177 72.3725 61.6783 73.4098 60.6808C73.4519 60.6401 73.4699 60.581 73.4987 60.5294C73.1003 60.2176 72.7629 60.236 72.3555 60.5729C71.9424 60.9155 71.3949 61.0116 70.8309 60.8299C70.2924 60.6562 70.1367 60.2195 70.1769 59.8239C70.2096 59.4997 70.4646 59.5513 70.7102 59.6019C70.8148 59.6242 70.9184 59.646 71.0022 59.6384C71.6116 59.584 72.2277 59.6086 72.8225 59.4368C73.5872 59.2158 74.0547 58.8108 73.9781 58.0754C73.9028 57.35 73.3019 57.0827 72.5765 57.0122C72.4378 56.9984 72.302 56.9918 72.1695 56.9918C71.1758 56.9918 70.344 57.3685 69.7103 58.0745ZM70.3184 58.9717C70.6615 58.1218 71.2411 57.6709 72.2045 57.6803C72.5415 57.6836 72.885 57.7802 72.9645 58.1365C73.0501 58.5207 72.8022 58.7545 72.417 58.8576C71.9996 58.9693 71.5747 59.0336 71.1148 59.0336C70.8611 59.0336 70.5971 59.0142 70.3184 58.9717Z" fill="url(#paint21_linear_23_38)"/>
<path d="M136.486 57.7378C135.306 58.6487 135.127 60.3451 136.095 61.1481C137.085 61.9691 138.86 61.6875 139.931 60.5405C139.488 60.1478 139.149 60.3314 138.713 60.6162C137.888 61.1542 136.988 60.9626 136.693 60.2637C136.511 59.8326 136.47 59.5473 137.213 59.6107C137.994 59.6765 138.792 59.6367 139.525 59.3504C140.139 59.1115 140.475 58.697 140.412 58.087C140.351 57.5036 139.935 57.1988 139.319 57.0649C139.063 57.0096 138.816 56.9831 138.576 56.9831C137.796 56.9831 137.102 57.2641 136.486 57.7378ZM136.838 58.7556C136.88 58.2635 137.807 57.6626 138.504 57.6753C138.968 57.6839 139.506 57.7955 139.388 58.2791C139.167 59.1858 138.18 58.8867 137.514 59.0561C137.429 59.0041 137.309 59.0183 137.195 59.0324C137.142 59.0391 137.089 59.0462 137.042 59.0462C136.912 59.0462 136.817 58.9955 136.838 58.7556Z" fill="url(#paint22_linear_23_38)"/>
<path d="M90.9947 59.6845C90.9706 60.8381 91.7329 61.5867 92.9603 61.6142C94.6023 61.6516 96.1127 60.4023 96.1638 58.9653C96.2045 57.8078 95.3698 56.9892 94.1277 56.9684C94.1107 56.9684 94.0936 56.9679 94.0771 56.9679C92.489 56.9684 91.0255 58.2517 90.9947 59.6845ZM93.2267 60.814C92.3343 60.7818 92.1498 60.223 92.111 59.6973C92.1275 58.6818 92.9665 57.8249 93.8655 57.8178C94.7774 57.8102 95.0135 58.3633 95.0471 58.9889C95.0949 59.8742 94.1622 60.815 93.2722 60.815C93.257 60.815 93.2419 60.8145 93.2267 60.814Z" fill="url(#paint23_linear_23_38)"/>
<path d="M99.6074 59.6526C99.571 60.8105 100.319 61.569 101.538 61.6116C103.178 61.6689 104.704 60.4334 104.773 58.993C104.828 57.8299 104.018 57.0094 102.774 56.9677C102.743 56.9668 102.711 56.9663 102.679 56.9663C101.123 56.9663 99.6524 58.2401 99.6074 59.6526ZM101.847 60.8119C100.953 60.7854 100.764 60.228 100.724 59.7037C100.736 58.6878 101.571 57.8284 102.47 57.8157C103.383 57.8029 103.622 58.3542 103.66 58.9797C103.712 59.8665 102.779 60.8124 101.884 60.8124C101.872 60.8124 101.859 60.8124 101.847 60.8119Z" fill="url(#paint24_linear_23_38)"/>
<path d="M154.141 59.662C154.108 60.818 154.86 61.5736 156.081 61.612C157.72 61.6636 159.244 60.4228 159.308 58.9848C159.359 57.8231 158.541 57.0021 157.298 56.9662C157.271 56.9657 157.243 56.9652 157.216 56.9652C155.651 56.9652 154.181 58.2433 154.141 59.662ZM156.333 60.8137C155.513 60.7607 155.28 60.2525 155.262 59.6402C155.233 58.7028 156.121 57.8056 157.23 57.8127C157.936 57.86 158.179 58.3895 158.192 59.0208C158.21 59.9038 157.284 60.8161 156.412 60.8161C156.386 60.8161 156.36 60.8151 156.333 60.8137Z" fill="url(#paint25_linear_23_38)"/>
<path d="M77.6868 56.9759C76.0599 56.9963 74.6333 58.2313 74.593 59.6338C74.568 60.389 74.8116 61.0472 75.6393 61.4069C76.5866 61.8171 77.4984 61.6302 78.3322 61.1324C78.5891 60.9791 79.0713 60.7719 78.8688 60.5083C78.6227 60.1889 78.1562 60.1449 77.7308 60.4941C77.3782 60.7827 76.9155 60.9384 76.4139 60.7274C75.8901 60.5064 75.7197 60.1065 75.7249 59.6348C75.7325 58.9056 76.0595 58.3212 76.8232 57.9682C77.3044 57.7458 77.8647 57.662 78.2276 58.0614C78.6748 58.554 79.2521 58.3212 79.4352 58.0908C79.7423 57.7051 79.1986 57.4519 78.8551 57.239C78.5257 57.0351 78.1292 56.9759 77.7369 56.9759C77.7204 56.9759 77.7038 56.9759 77.6868 56.9759Z" fill="url(#paint26_linear_23_38)"/>
<path d="M151.95 56.9916C150.746 57.1156 149.854 57.6318 149.317 58.5834C148.696 59.6874 148.994 60.8959 150.017 61.3946C151.083 61.9142 152.591 61.5172 153.36 60.5102C152.937 60.2363 152.563 60.1582 152.105 60.523C151.716 60.8325 151.212 60.9541 150.696 60.6598C150.022 60.2755 149.943 59.2544 150.531 58.5124C151.107 57.787 152.052 57.5542 152.686 58.1026C153.205 58.5512 153.698 58.2706 153.902 58.0567C154.139 57.8083 153.695 57.4908 153.402 57.3044C153.052 57.0824 152.648 56.9774 152.224 56.9774C152.133 56.9774 152.042 56.9821 151.95 56.9916Z" fill="url(#paint27_linear_23_38)"/>
<path d="M134.344 57.6015C133.991 58.6487 133.354 59.587 132.476 60.6659C132.315 59.4805 132.14 58.5053 132.067 57.5244C132.034 57.0715 131.769 57.072 131.448 57.072C131.405 57.072 131.362 57.0725 131.318 57.071C130.76 57.0583 130.946 57.3871 130.983 57.6162C131.155 58.6908 131.329 59.7659 131.545 60.8348C131.593 61.0761 131.383 61.485 131.926 61.5252C132.399 61.5597 132.833 61.5678 133.167 61.1367C133.982 60.0872 134.802 59.0428 135.283 57.8404C135.375 57.6114 135.797 57.2754 135.303 57.1008C135.193 57.0625 135.09 57.0431 134.995 57.0431C134.696 57.0431 134.469 57.2314 134.344 57.6015Z" fill="url(#paint28_linear_23_38)"/>
<path d="M67.1359 56.1842C67.0758 56.5647 67.142 57.0857 66.3769 57.1486C66.1256 57.1694 66.0925 57.6861 66.26 57.7178C67.0625 57.8683 66.5983 58.3098 66.5524 58.5961C66.4516 59.2335 66.2496 59.8581 66.1067 60.4912C65.9302 61.2706 66.2534 61.607 67.2632 61.5985C67.4804 61.5516 67.8121 61.4915 68.1357 61.4073C68.4282 61.3316 68.4192 61.1144 68.4126 60.9038C68.4069 60.7349 68.3383 60.6062 68.1178 60.653C67.0091 60.8892 67.2173 60.3251 67.3767 59.7701C67.4752 59.4289 67.5494 59.0821 67.6233 58.7362C67.7312 58.2303 67.7188 57.6587 68.6496 57.7756C68.9397 57.812 68.979 57.5224 69.0282 57.3275C69.0764 57.1377 68.9383 57.0563 68.7395 57.0781C67.8868 57.1723 68.1386 56.7369 68.1963 56.3229C68.2271 56.1019 68.6198 55.7276 68.0151 55.6197C67.92 55.6027 67.8329 55.5942 67.7539 55.5942C67.4013 55.5942 67.2026 55.7692 67.1359 56.1842Z" fill="url(#paint29_linear_23_38)"/>
<path d="M97.9568 55.6927C97.5906 57.3346 97.1543 58.9648 96.7682 60.603C96.6077 61.282 96.9981 61.5934 97.8158 61.5896C98.0458 61.5564 98.3198 61.5361 98.5805 61.4732C98.819 61.4154 98.8436 61.2247 98.8365 61.0411C98.8313 60.9086 98.9027 60.699 98.6363 60.7279C97.5399 60.8476 97.9748 60.1842 98.0533 59.8141C98.3358 58.4864 98.6921 57.1709 99.0016 55.8469C99.0447 55.6624 99.3045 55.3434 98.8048 55.3198C98.686 55.3141 98.5592 55.2942 98.4404 55.2942C98.2232 55.2942 98.0311 55.3595 97.9568 55.6927Z" fill="url(#paint30_linear_23_38)"/>
<path d="M127.519 57.1489C127.184 57.2738 126.891 57.4816 126.419 57.7437C126.47 57.3713 126.6 57.051 126.026 57.0614C125.576 57.0699 125.463 57.2331 125.388 57.5696C125.129 58.7213 124.828 59.866 124.554 61.0153C124.509 61.206 124.234 61.5065 124.745 61.5231C125.048 61.5325 125.462 61.6807 125.579 61.2425C125.648 60.9855 125.727 60.7295 125.779 60.4698C126.01 59.3067 126.101 58.0783 127.925 57.8686C128.26 57.8303 128.305 57.4167 128.222 57.2052C128.171 57.0746 128.072 57.0315 127.958 57.0315C127.811 57.0315 127.64 57.1035 127.519 57.1489Z" fill="url(#paint31_linear_23_38)"/>
<path d="M128.88 57.5034C128.64 58.6807 128.316 59.8457 128.036 61.0174C127.99 61.2081 127.718 61.5029 128.226 61.5246C128.57 61.5398 128.987 61.6576 129.099 61.1688C129.373 59.9659 129.674 58.7683 129.971 57.5432C129.958 57.3672 130.184 57.0724 129.683 57.0752C129.646 57.0757 129.61 57.0752 129.574 57.0752C129.547 57.0747 129.521 57.0747 129.495 57.0747C129.203 57.0747 128.961 57.105 128.88 57.5034Z" fill="url(#paint32_linear_23_38)"/>
<path d="M129.283 55.9956C129.203 56.3188 129.422 56.3155 129.638 56.3117C129.694 56.3108 129.748 56.3103 129.798 56.3146C130.442 56.3742 130.365 55.9351 130.433 55.6161C130.5 55.2996 130.295 55.3095 130.1 55.3195C130.034 55.3228 129.97 55.3261 129.918 55.3171C129.847 55.3062 129.785 55.301 129.73 55.301C129.235 55.301 129.351 55.7207 129.283 55.9956Z" fill="url(#paint33_linear_23_38)"/>
<path d="M108.666 61.0579C108.676 61.0994 108.705 61.137 108.727 61.176C108.749 61.157 108.793 61.1341 108.79 61.1184C108.781 61.077 108.752 61.0389 108.73 61.0008C108.707 61.0203 108.662 61.0437 108.666 61.0579Z" fill="url(#paint34_linear_23_38)"/>
<defs>
<linearGradient id="paint0_linear_23_38" x1="75.8693" y1="72.7266" x2="-20.7999" y2="-8.49115" gradientUnits="userSpaceOnUse">
<stop stop-color="#06718A"/>
<stop offset="0.0834" stop-color="#08768E"/>
<stop offset="0.1776" stop-color="#0F8398"/>
<stop offset="0.277" stop-color="#1199AA"/>
<stop offset="0.3794" stop-color="#13B7C3"/>
<stop offset="0.3816" stop-color="#16B8C4"/>
<stop offset="0.3851" stop-color="#17AEBC"/>
<stop offset="0.3953" stop-color="#0B93A7"/>
<stop offset="0.4071" stop-color="#0E7D96"/>
<stop offset="0.4208" stop-color="#0A6D89"/>
<stop offset="0.4378" stop-color="#0B6280"/>
<stop offset="0.4617" stop-color="#055B7A"/>
<stop offset="0.5279" stop-color="#065978"/>
<stop offset="0.5382" stop-color="#297475"/>
<stop offset="0.5511" stop-color="#508F73"/>
<stop offset="0.565" stop-color="#71A771"/>
<stop offset="0.5797" stop-color="#8CBB6F"/>
<stop offset="0.5956" stop-color="#A1CA6D"/>
<stop offset="0.6133" stop-color="#B0D46C"/>
<stop offset="0.6343" stop-color="#B9D76D"/>
<stop offset="0.6665" stop-color="#BCD86E"/>
<stop offset="0.691" stop-color="#B5D559"/>
<stop offset="0.721" stop-color="#B2D34C"/>
<stop offset="0.7595" stop-color="#B1D244"/>
<stop offset="0.8346" stop-color="#AFD243"/>
<stop offset="0.8525" stop-color="#BCD747"/>
<stop offset="0.8812" stop-color="#C8DB4B"/>
<stop offset="0.919" stop-color="#D1DE4C"/>
<stop offset="1" stop-color="#D2DF4E"/>
</linearGradient>
<linearGradient id="paint1_linear_23_38" x1="157.47" y1="-22.5265" x2="70.4241" y2="-95.6601" gradientUnits="userSpaceOnUse">
<stop stop-color="#06718A"/>
<stop offset="0.0834" stop-color="#08768E"/>
<stop offset="0.1776" stop-color="#0F8398"/>
<stop offset="0.277" stop-color="#1199AA"/>
<stop offset="0.3794" stop-color="#13B7C3"/>
<stop offset="0.3816" stop-color="#16B8C4"/>
<stop offset="0.3851" stop-color="#17AEBC"/>
<stop offset="0.3953" stop-color="#0B93A7"/>
<stop offset="0.4071" stop-color="#0E7D96"/>
<stop offset="0.4208" stop-color="#0A6D89"/>
<stop offset="0.4378" stop-color="#0B6280"/>
<stop offset="0.4617" stop-color="#055B7A"/>
<stop offset="0.5279" stop-color="#065978"/>
<stop offset="0.5382" stop-color="#297475"/>
<stop offset="0.5511" stop-color="#508F73"/>
<stop offset="0.565" stop-color="#71A771"/>
<stop offset="0.5797" stop-color="#8CBB6F"/>
<stop offset="0.5956" stop-color="#A1CA6D"/>
<stop offset="0.6133" stop-color="#B0D46C"/>
<stop offset="0.6343" stop-color="#B9D76D"/>
<stop offset="0.6665" stop-color="#BCD86E"/>
<stop offset="0.691" stop-color="#B5D559"/>
<stop offset="0.721" stop-color="#B2D34C"/>
<stop offset="0.7595" stop-color="#B1D244"/>
<stop offset="0.8346" stop-color="#AFD243"/>
<stop offset="0.8525" stop-color="#BCD747"/>
<stop offset="0.8812" stop-color="#C8DB4B"/>
<stop offset="0.919" stop-color="#D1DE4C"/>
<stop offset="1" stop-color="#D2DF4E"/>
</linearGradient>
<linearGradient id="paint2_linear_23_38" x1="70.9431" y1="63.3203" x2="-13.0052" y2="-7.2077" gradientUnits="userSpaceOnUse">
<stop stop-color="#06718A"/>
<stop offset="0.0834" stop-color="#08768E"/>
<stop offset="0.1776" stop-color="#0F8398"/>
<stop offset="0.277" stop-color="#1199AA"/>
<stop offset="0.3794" stop-color="#13B7C3"/>
<stop offset="0.3816" stop-color="#16B8C4"/>
<stop offset="0.3851" stop-color="#17AEBC"/>
<stop offset="0.3953" stop-color="#0B93A7"/>
<stop offset="0.4071" stop-color="#0E7D96"/>
<stop offset="0.4208" stop-color="#0A6D89"/>
<stop offset="0.4378" stop-color="#0B6280"/>
<stop offset="0.4617" stop-color="#055B7A"/>
<stop offset="0.5279" stop-color="#065978"/>
<stop offset="0.5382" stop-color="#297475"/>
<stop offset="0.5511" stop-color="#508F73"/>
<stop offset="0.565" stop-color="#71A771"/>
<stop offset="0.5797" stop-color="#8CBB6F"/>
<stop offset="0.5956" stop-color="#A1CA6D"/>
<stop offset="0.6133" stop-color="#B0D46C"/>
<stop offset="0.6343" stop-color="#B9D76D"/>
<stop offset="0.6665" stop-color="#BCD86E"/>
<stop offset="0.691" stop-color="#B5D559"/>
<stop offset="0.721" stop-color="#B2D34C"/>
<stop offset="0.7595" stop-color="#B1D244"/>
<stop offset="0.8346" stop-color="#AFD243"/>
<stop offset="0.8525" stop-color="#BCD747"/>
<stop offset="0.8812" stop-color="#C8DB4B"/>
<stop offset="0.919" stop-color="#D1DE4C"/>
<stop offset="1" stop-color="#D2DF4E"/>
</linearGradient>
<linearGradient id="paint3_linear_23_38" x1="62.8415" y1="68.4946" x2="-20.6232" y2="-1.62718" gradientUnits="userSpaceOnUse">
<stop stop-color="#06718A"/>
<stop offset="0.0834" stop-color="#08768E"/>
<stop offset="0.1776" stop-color="#0F8398"/>
<stop offset="0.277" stop-color="#1199AA"/>
<stop offset="0.3794" stop-color="#13B7C3"/>
<stop offset="0.3816" stop-color="#16B8C4"/>
<stop offset="0.3851" stop-color="#17AEBC"/>
<stop offset="0.3953" stop-color="#0B93A7"/>
<stop offset="0.4071" stop-color="#0E7D96"/>
<stop offset="0.4208" stop-color="#0A6D89"/>
<stop offset="0.4378" stop-color="#0B6280"/>
<stop offset="0.4617" stop-color="#055B7A"/>
<stop offset="0.5279" stop-color="#065978"/>
<stop offset="0.5382" stop-color="#297475"/>
<stop offset="0.5511" stop-color="#508F73"/>
<stop offset="0.565" stop-color="#71A771"/>
<stop offset="0.5797" stop-color="#8CBB6F"/>
<stop offset="0.5956" stop-color="#A1CA6D"/>
<stop offset="0.6133" stop-color="#B0D46C"/>
<stop offset="0.6343" stop-color="#B9D76D"/>
<stop offset="0.6665" stop-color="#BCD86E"/>
<stop offset="0.691" stop-color="#B5D559"/>
<stop offset="0.721" stop-color="#B2D34C"/>
<stop offset="0.7595" stop-color="#B1D244"/>
<stop offset="0.8346" stop-color="#AFD243"/>
<stop offset="0.8525" stop-color="#BCD747"/>
<stop offset="0.8812" stop-color="#C8DB4B"/>
<stop offset="0.919" stop-color="#D1DE4C"/>
<stop offset="1" stop-color="#D2DF4E"/>
</linearGradient>
<linearGradient id="paint4_linear_23_38" x1="60.9252" y1="39.895" x2="353.094" y2="66.5127" gradientUnits="userSpaceOnUse">
<stop stop-color="#06718A"/>
<stop offset="0.0834" stop-color="#08768E"/>
<stop offset="0.1776" stop-color="#0F8398"/>
<stop offset="0.277" stop-color="#1199AA"/>
<stop offset="0.3794" stop-color="#13B7C3"/>
<stop offset="0.3816" stop-color="#16B8C4"/>
<stop offset="0.3851" stop-color="#17AEBC"/>
<stop offset="0.3953" stop-color="#0B93A7"/>
<stop offset="0.4071" stop-color="#0E7D96"/>
<stop offset="0.4208" stop-color="#0A6D89"/>
<stop offset="0.4378" stop-color="#0B6280"/>
<stop offset="0.4617" stop-color="#055B7A"/>
<stop offset="0.5279" stop-color="#065978"/>
<stop offset="0.5382" stop-color="#297475"/>
<stop offset="0.5511" stop-color="#508F73"/>
<stop offset="0.565" stop-color="#71A771"/>
<stop offset="0.5797" stop-color="#8CBB6F"/>
<stop offset="0.5956" stop-color="#A1CA6D"/>
<stop offset="0.6133" stop-color="#B0D46C"/>
<stop offset="0.6343" stop-color="#B9D76D"/>
<stop offset="0.6665" stop-color="#BCD86E"/>
<stop offset="0.691" stop-color="#B5D559"/>
<stop offset="0.721" stop-color="#B2D34C"/>
<stop offset="0.7595" stop-color="#B1D244"/>
<stop offset="0.8346" stop-color="#AFD243"/>
<stop offset="0.8525" stop-color="#BCD747"/>
<stop offset="0.8812" stop-color="#C8DB4B"/>
<stop offset="0.919" stop-color="#D1DE4C"/>
<stop offset="1" stop-color="#D2DF4E"/>
</linearGradient>
<linearGradient id="paint5_linear_23_38" x1="61.8969" y1="35.3292" x2="351.831" y2="61.7433" gradientUnits="userSpaceOnUse">
<stop stop-color="#06718A"/>
<stop offset="0.0834" stop-color="#08768E"/>
<stop offset="0.1776" stop-color="#0F8398"/>
<stop offset="0.277" stop-color="#1199AA"/>
<stop offset="0.3794" stop-color="#13B7C3"/>
<stop offset="0.3816" stop-color="#16B8C4"/>
<stop offset="0.3851" stop-color="#17AEBC"/>
<stop offset="0.3953" stop-color="#0B93A7"/>
<stop offset="0.4071" stop-color="#0E7D96"/>
<stop offset="0.4208" stop-color="#0A6D89"/>
<stop offset="0.4378" stop-color="#0B6280"/>
<stop offset="0.4617" stop-color="#055B7A"/>
<stop offset="0.5279" stop-color="#065978"/>
<stop offset="0.5382" stop-color="#297475"/>
<stop offset="0.5511" stop-color="#508F73"/>
<stop offset="0.565" stop-color="#71A771"/>
<stop offset="0.5797" stop-color="#8CBB6F"/>
<stop offset="0.5956" stop-color="#A1CA6D"/>
<stop offset="0.6133" stop-color="#B0D46C"/>
<stop offset="0.6343" stop-color="#B9D76D"/>
<stop offset="0.6665" stop-color="#BCD86E"/>
<stop offset="0.691" stop-color="#B5D559"/>
<stop offset="0.721" stop-color="#B2D34C"/>
<stop offset="0.7595" stop-color="#B1D244"/>
<stop offset="0.8346" stop-color="#AFD243"/>
<stop offset="0.8525" stop-color="#BCD747"/>
<stop offset="0.8812" stop-color="#C8DB4B"/>
<stop offset="0.919" stop-color="#D1DE4C"/>
<stop offset="1" stop-color="#D2DF4E"/>
</linearGradient>
<linearGradient id="paint6_linear_23_38" x1="61.156" y1="37.3364" x2="353.054" y2="63.9294" gradientUnits="userSpaceOnUse">
<stop stop-color="#06718A"/>
<stop offset="0.0834" stop-color="#08768E"/>
<stop offset="0.1776" stop-color="#0F8398"/>
<stop offset="0.277" stop-color="#1199AA"/>
<stop offset="0.3794" stop-color="#13B7C3"/>
<stop offset="0.3816" stop-color="#16B8C4"/>
<stop offset="0.3851" stop-color="#17AEBC"/>
<stop offset="0.3953" stop-color="#0B93A7"/>
<stop offset="0.4071" stop-color="#0E7D96"/>
<stop offset="0.4208" stop-color="#0A6D89"/>
<stop offset="0.4378" stop-color="#0B6280"/>
<stop offset="0.4617" stop-color="#055B7A"/>
<stop offset="0.5279" stop-color="#065978"/>
<stop offset="0.5382" stop-color="#297475"/>
<stop offset="0.5511" stop-color="#508F73"/>
<stop offset="0.565" stop-color="#71A771"/>
<stop offset="0.5797" stop-color="#8CBB6F"/>
<stop offset="0.5956" stop-color="#A1CA6D"/>
<stop offset="0.6133" stop-color="#B0D46C"/>
<stop offset="0.6343" stop-color="#B9D76D"/>
<stop offset="0.6665" stop-color="#BCD86E"/>
<stop offset="0.691" stop-color="#B5D559"/>
<stop offset="0.721" stop-color="#B2D34C"/>
<stop offset="0.7595" stop-color="#B1D244"/>
<stop offset="0.8346" stop-color="#AFD243"/>
<stop offset="0.8525" stop-color="#BCD747"/>
<stop offset="0.8812" stop-color="#C8DB4B"/>
<stop offset="0.919" stop-color="#D1DE4C"/>
<stop offset="1" stop-color="#D2DF4E"/>
</linearGradient>
<linearGradient id="paint7_linear_23_38" x1="61.7788" y1="32.6839" x2="353.687" y2="59.2779" gradientUnits="userSpaceOnUse">
<stop stop-color="#06718A"/>
<stop offset="0.0834" stop-color="#08768E"/>
<stop offset="0.1776" stop-color="#0F8398"/>
<stop offset="0.277" stop-color="#1199AA"/>
<stop offset="0.3794" stop-color="#13B7C3"/>
<stop offset="0.3816" stop-color="#16B8C4"/>
<stop offset="0.3851" stop-color="#17AEBC"/>
<stop offset="0.3953" stop-color="#0B93A7"/>
<stop offset="0.4071" stop-color="#0E7D96"/>
<stop offset="0.4208" stop-color="#0A6D89"/>
<stop offset="0.4378" stop-color="#0B6280"/>
<stop offset="0.4617" stop-color="#055B7A"/>
<stop offset="0.5279" stop-color="#065978"/>
<stop offset="0.5382" stop-color="#297475"/>
<stop offset="0.5511" stop-color="#508F73"/>
<stop offset="0.565" stop-color="#71A771"/>
<stop offset="0.5797" stop-color="#8CBB6F"/>
<stop offset="0.5956" stop-color="#A1CA6D"/>
<stop offset="0.6133" stop-color="#B0D46C"/>
<stop offset="0.6343" stop-color="#B9D76D"/>
<stop offset="0.6665" stop-color="#BCD86E"/>
<stop offset="0.691" stop-color="#B5D559"/>
<stop offset="0.721" stop-color="#B2D34C"/>
<stop offset="0.7595" stop-color="#B1D244"/>
<stop offset="0.8346" stop-color="#AFD243"/>
<stop offset="0.8525" stop-color="#BCD747"/>
<stop offset="0.8812" stop-color="#C8DB4B"/>
<stop offset="0.919" stop-color="#D1DE4C"/>
<stop offset="1" stop-color="#D2DF4E"/>
</linearGradient>
<linearGradient id="paint8_linear_23_38" x1="63.1605" y1="30.4409" x2="352.422" y2="56.7937" gradientUnits="userSpaceOnUse">
<stop stop-color="#06718A"/>
<stop offset="0.0834" stop-color="#08768E"/>
<stop offset="0.1776" stop-color="#0F8398"/>
<stop offset="0.277" stop-color="#1199AA"/>
<stop offset="0.3794" stop-color="#13B7C3"/>
<stop offset="0.3816" stop-color="#16B8C4"/>
<stop offset="0.3851" stop-color="#17AEBC"/>
<stop offset="0.3953" stop-color="#0B93A7"/>
<stop offset="0.4071" stop-color="#0E7D96"/>
<stop offset="0.4208" stop-color="#0A6D89"/>
<stop offset="0.4378" stop-color="#0B6280"/>
<stop offset="0.4617" stop-color="#055B7A"/>
<stop offset="0.5279" stop-color="#065978"/>
<stop offset="0.5382" stop-color="#297475"/>
<stop offset="0.5511" stop-color="#508F73"/>
<stop offset="0.565" stop-color="#71A771"/>
<stop offset="0.5797" stop-color="#8CBB6F"/>
<stop offset="0.5956" stop-color="#A1CA6D"/>
<stop offset="0.6133" stop-color="#B0D46C"/>
<stop offset="0.6343" stop-color="#B9D76D"/>
<stop offset="0.6665" stop-color="#BCD86E"/>
<stop offset="0.691" stop-color="#B5D559"/>
<stop offset="0.721" stop-color="#B2D34C"/>
<stop offset="0.7595" stop-color="#B1D244"/>
<stop offset="0.8346" stop-color="#AFD243"/>
<stop offset="0.8525" stop-color="#BCD747"/>
<stop offset="0.8812" stop-color="#C8DB4B"/>
<stop offset="0.919" stop-color="#D1DE4C"/>
<stop offset="1" stop-color="#D2DF4E"/>
</linearGradient>
<linearGradient id="paint9_linear_23_38" x1="60.9138" y1="40.3653" x2="350.689" y2="66.765" gradientUnits="userSpaceOnUse">
<stop stop-color="#06718A"/>
<stop offset="0.0834" stop-color="#08768E"/>
<stop offset="0.1776" stop-color="#0F8398"/>
<stop offset="0.277" stop-color="#1199AA"/>
<stop offset="0.3794" stop-color="#13B7C3"/>
<stop offset="0.3816" stop-color="#16B8C4"/>
<stop offset="0.3851" stop-color="#17AEBC"/>
<stop offset="0.3953" stop-color="#0B93A7"/>
<stop offset="0.4071" stop-color="#0E7D96"/>
<stop offset="0.4208" stop-color="#0A6D89"/>
<stop offset="0.4378" stop-color="#0B6280"/>
<stop offset="0.4617" stop-color="#055B7A"/>
<stop offset="0.5279" stop-color="#065978"/>
<stop offset="0.5382" stop-color="#297475"/>
<stop offset="0.5511" stop-color="#508F73"/>
<stop offset="0.565" stop-color="#71A771"/>
<stop offset="0.5797" stop-color="#8CBB6F"/>
<stop offset="0.5956" stop-color="#A1CA6D"/>
<stop offset="0.6133" stop-color="#B0D46C"/>
<stop offset="0.6343" stop-color="#B9D76D"/>
<stop offset="0.6665" stop-color="#BCD86E"/>
<stop offset="0.691" stop-color="#B5D559"/>
<stop offset="0.721" stop-color="#B2D34C"/>
<stop offset="0.7595" stop-color="#B1D244"/>
<stop offset="0.8346" stop-color="#AFD243"/>
<stop offset="0.8525" stop-color="#BCD747"/>
<stop offset="0.8812" stop-color="#C8DB4B"/>
<stop offset="0.919" stop-color="#D1DE4C"/>
<stop offset="1" stop-color="#D2DF4E"/>
</linearGradient>
<linearGradient id="paint10_linear_23_38" x1="58.9616" y1="49.7427" x2="353.758" y2="76.5998" gradientUnits="userSpaceOnUse">
<stop stop-color="#06718A"/>
<stop offset="0.0834" stop-color="#08768E"/>
<stop offset="0.1776" stop-color="#0F8398"/>
<stop offset="0.277" stop-color="#1199AA"/>
<stop offset="0.3794" stop-color="#13B7C3"/>
<stop offset="0.3816" stop-color="#16B8C4"/>
<stop offset="0.3851" stop-color="#17AEBC"/>
<stop offset="0.3953" stop-color="#0B93A7"/>
<stop offset="0.4071" stop-color="#0E7D96"/>
<stop offset="0.4208" stop-color="#0A6D89"/>
<stop offset="0.4378" stop-color="#0B6280"/>
<stop offset="0.4617" stop-color="#055B7A"/>
<stop offset="0.5279" stop-color="#065978"/>
<stop offset="0.5382" stop-color="#297475"/>
<stop offset="0.5511" stop-color="#508F73"/>
<stop offset="0.565" stop-color="#71A771"/>
<stop offset="0.5797" stop-color="#8CBB6F"/>
<stop offset="0.5956" stop-color="#A1CA6D"/>
<stop offset="0.6133" stop-color="#B0D46C"/>
<stop offset="0.6343" stop-color="#B9D76D"/>
<stop offset="0.6665" stop-color="#BCD86E"/>
<stop offset="0.691" stop-color="#B5D559"/>
<stop offset="0.721" stop-color="#B2D34C"/>
<stop offset="0.7595" stop-color="#B1D244"/>
<stop offset="0.8346" stop-color="#AFD243"/>
<stop offset="0.8525" stop-color="#BCD747"/>
<stop offset="0.8812" stop-color="#C8DB4B"/>
<stop offset="0.919" stop-color="#D1DE4C"/>
<stop offset="1" stop-color="#D2DF4E"/>
</linearGradient>
<linearGradient id="paint11_linear_23_38" x1="58.3875" y1="55.6889" x2="355.387" y2="82.7468" gradientUnits="userSpaceOnUse">
<stop stop-color="#06718A"/>
<stop offset="0.0834" stop-color="#08768E"/>
<stop offset="0.1776" stop-color="#0F8398"/>
<stop offset="0.277" stop-color="#1199AA"/>
<stop offset="0.3794" stop-color="#13B7C3"/>
<stop offset="0.3816" stop-color="#16B8C4"/>
<stop offset="0.3851" stop-color="#17AEBC"/>
<stop offset="0.3953" stop-color="#0B93A7"/>
<stop offset="0.4071" stop-color="#0E7D96"/>
<stop offset="0.4208" stop-color="#0A6D89"/>
<stop offset="0.4378" stop-color="#0B6280"/>
<stop offset="0.4617" stop-color="#055B7A"/>
<stop offset="0.5279" stop-color="#065978"/>
<stop offset="0.5382" stop-color="#297475"/>
<stop offset="0.5511" stop-color="#508F73"/>
<stop offset="0.565" stop-color="#71A771"/>
<stop offset="0.5797" stop-color="#8CBB6F"/>
<stop offset="0.5956" stop-color="#A1CA6D"/>
<stop offset="0.6133" stop-color="#B0D46C"/>
<stop offset="0.6343" stop-color="#B9D76D"/>
<stop offset="0.6665" stop-color="#BCD86E"/>
<stop offset="0.691" stop-color="#B5D559"/>
<stop offset="0.721" stop-color="#B2D34C"/>
<stop offset="0.7595" stop-color="#B1D244"/>
<stop offset="0.8346" stop-color="#AFD243"/>
<stop offset="0.8525" stop-color="#BCD747"/>
<stop offset="0.8812" stop-color="#C8DB4B"/>
<stop offset="0.919" stop-color="#D1DE4C"/>
<stop offset="1" stop-color="#D2DF4E"/>
</linearGradient>
<linearGradient id="paint12_linear_23_38" x1="58.7248" y1="52.6878" x2="354.742" y2="79.6562" gradientUnits="userSpaceOnUse">
<stop stop-color="#06718A"/>
<stop offset="0.0834" stop-color="#08768E"/>
<stop offset="0.1776" stop-color="#0F8398"/>
<stop offset="0.277" stop-color="#1199AA"/>
<stop offset="0.3794" stop-color="#13B7C3"/>
<stop offset="0.3816" stop-color="#16B8C4"/>
<stop offset="0.3851" stop-color="#17AEBC"/>
<stop offset="0.3953" stop-color="#0B93A7"/>
<stop offset="0.4071" stop-color="#0E7D96"/>
<stop offset="0.4208" stop-color="#0A6D89"/>
<stop offset="0.4378" stop-color="#0B6280"/>
<stop offset="0.4617" stop-color="#055B7A"/>
<stop offset="0.5279" stop-color="#065978"/>
<stop offset="0.5382" stop-color="#297475"/>
<stop offset="0.5511" stop-color="#508F73"/>
<stop offset="0.565" stop-color="#71A771"/>
<stop offset="0.5797" stop-color="#8CBB6F"/>
<stop offset="0.5956" stop-color="#A1CA6D"/>
<stop offset="0.6133" stop-color="#B0D46C"/>
<stop offset="0.6343" stop-color="#B9D76D"/>
<stop offset="0.6665" stop-color="#BCD86E"/>
<stop offset="0.691" stop-color="#B5D559"/>
<stop offset="0.721" stop-color="#B2D34C"/>
<stop offset="0.7595" stop-color="#B1D244"/>
<stop offset="0.8346" stop-color="#AFD243"/>
<stop offset="0.8525" stop-color="#BCD747"/>
<stop offset="0.8812" stop-color="#C8DB4B"/>
<stop offset="0.919" stop-color="#D1DE4C"/>
<stop offset="1" stop-color="#D2DF4E"/>
</linearGradient>
<linearGradient id="paint13_linear_23_38" x1="58.3432" y1="49.9455" x2="354.526" y2="76.9288" gradientUnits="userSpaceOnUse">
<stop stop-color="#06718A"/>
<stop offset="0.0834" stop-color="#08768E"/>
<stop offset="0.1776" stop-color="#0F8398"/>
<stop offset="0.277" stop-color="#1199AA"/>
<stop offset="0.3794" stop-color="#13B7C3"/>
<stop offset="0.3816" stop-color="#16B8C4"/>
<stop offset="0.3851" stop-color="#17AEBC"/>
<stop offset="0.3953" stop-color="#0B93A7"/>
<stop offset="0.4071" stop-color="#0E7D96"/>
<stop offset="0.4208" stop-color="#0A6D89"/>
<stop offset="0.4378" stop-color="#0B6280"/>
<stop offset="0.4617" stop-color="#055B7A"/>
<stop offset="0.5279" stop-color="#065978"/>
<stop offset="0.5382" stop-color="#297475"/>
<stop offset="0.5511" stop-color="#508F73"/>
<stop offset="0.565" stop-color="#71A771"/>
<stop offset="0.5797" stop-color="#8CBB6F"/>
<stop offset="0.5956" stop-color="#A1CA6D"/>
<stop offset="0.6133" stop-color="#B0D46C"/>
<stop offset="0.6343" stop-color="#B9D76D"/>
<stop offset="0.6665" stop-color="#BCD86E"/>
<stop offset="0.691" stop-color="#B5D559"/>
<stop offset="0.721" stop-color="#B2D34C"/>
<stop offset="0.7595" stop-color="#B1D244"/>
<stop offset="0.8346" stop-color="#AFD243"/>
<stop offset="0.8525" stop-color="#BCD747"/>
<stop offset="0.8812" stop-color="#C8DB4B"/>
<stop offset="0.919" stop-color="#D1DE4C"/>
<stop offset="1" stop-color="#D2DF4E"/>
</linearGradient>
<linearGradient id="paint14_linear_23_38" x1="58.7768" y1="56.4127" x2="354.457" y2="83.3504" gradientUnits="userSpaceOnUse">
<stop stop-color="#06718A"/>
<stop offset="0.0834" stop-color="#08768E"/>
<stop offset="0.1776" stop-color="#0F8398"/>
<stop offset="0.277" stop-color="#1199AA"/>
<stop offset="0.3794" stop-color="#13B7C3"/>
<stop offset="0.3816" stop-color="#16B8C4"/>
<stop offset="0.3851" stop-color="#17AEBC"/>
<stop offset="0.3953" stop-color="#0B93A7"/>
<stop offset="0.4071" stop-color="#0E7D96"/>
<stop offset="0.4208" stop-color="#0A6D89"/>
<stop offset="0.4378" stop-color="#0B6280"/>
<stop offset="0.4617" stop-color="#055B7A"/>
<stop offset="0.5279" stop-color="#065978"/>
<stop offset="0.5382" stop-color="#297475"/>
<stop offset="0.5511" stop-color="#508F73"/>
<stop offset="0.565" stop-color="#71A771"/>
<stop offset="0.5797" stop-color="#8CBB6F"/>
<stop offset="0.5956" stop-color="#A1CA6D"/>
<stop offset="0.6133" stop-color="#B0D46C"/>
<stop offset="0.6343" stop-color="#B9D76D"/>
<stop offset="0.6665" stop-color="#BCD86E"/>
<stop offset="0.691" stop-color="#B5D559"/>
<stop offset="0.721" stop-color="#B2D34C"/>
<stop offset="0.7595" stop-color="#B1D244"/>
<stop offset="0.8346" stop-color="#AFD243"/>
<stop offset="0.8525" stop-color="#BCD747"/>
<stop offset="0.8812" stop-color="#C8DB4B"/>
<stop offset="0.919" stop-color="#D1DE4C"/>
<stop offset="1" stop-color="#D2DF4E"/>
</linearGradient>
<linearGradient id="paint15_linear_23_38" x1="59.0455" y1="48.4919" x2="353.769" y2="75.3424" gradientUnits="userSpaceOnUse">
<stop stop-color="#06718A"/>
<stop offset="0.0834" stop-color="#08768E"/>
<stop offset="0.1776" stop-color="#0F8398"/>
<stop offset="0.277" stop-color="#1199AA"/>
<stop offset="0.3794" stop-color="#13B7C3"/>
<stop offset="0.3816" stop-color="#16B8C4"/>
<stop offset="0.3851" stop-color="#17AEBC"/>
<stop offset="0.3953" stop-color="#0B93A7"/>
<stop offset="0.4071" stop-color="#0E7D96"/>
<stop offset="0.4208" stop-color="#0A6D89"/>
<stop offset="0.4378" stop-color="#0B6280"/>
<stop offset="0.4617" stop-color="#055B7A"/>
<stop offset="0.5279" stop-color="#065978"/>
<stop offset="0.5382" stop-color="#297475"/>
<stop offset="0.5511" stop-color="#508F73"/>
<stop offset="0.565" stop-color="#71A771"/>
<stop offset="0.5797" stop-color="#8CBB6F"/>
<stop offset="0.5956" stop-color="#A1CA6D"/>
<stop offset="0.6133" stop-color="#B0D46C"/>
<stop offset="0.6343" stop-color="#B9D76D"/>
<stop offset="0.6665" stop-color="#BCD86E"/>
<stop offset="0.691" stop-color="#B5D559"/>
<stop offset="0.721" stop-color="#B2D34C"/>
<stop offset="0.7595" stop-color="#B1D244"/>
<stop offset="0.8346" stop-color="#AFD243"/>
<stop offset="0.8525" stop-color="#BCD747"/>
<stop offset="0.8812" stop-color="#C8DB4B"/>
<stop offset="0.919" stop-color="#D1DE4C"/>
<stop offset="1" stop-color="#D2DF4E"/>
</linearGradient>
<linearGradient id="paint16_linear_23_38" x1="58.6754" y1="56.6214" x2="354.633" y2="83.5843" gradientUnits="userSpaceOnUse">
<stop stop-color="#06718A"/>
<stop offset="0.0834" stop-color="#08768E"/>
<stop offset="0.1776" stop-color="#0F8398"/>
<stop offset="0.277" stop-color="#1199AA"/>
<stop offset="0.3794" stop-color="#13B7C3"/>
<stop offset="0.3816" stop-color="#16B8C4"/>
<stop offset="0.3851" stop-color="#17AEBC"/>
<stop offset="0.3953" stop-color="#0B93A7"/>
<stop offset="0.4071" stop-color="#0E7D96"/>
<stop offset="0.4208" stop-color="#0A6D89"/>
<stop offset="0.4378" stop-color="#0B6280"/>
<stop offset="0.4617" stop-color="#055B7A"/>
<stop offset="0.5279" stop-color="#065978"/>
<stop offset="0.5382" stop-color="#297475"/>
<stop offset="0.5511" stop-color="#508F73"/>
<stop offset="0.565" stop-color="#71A771"/>
<stop offset="0.5797" stop-color="#8CBB6F"/>
<stop offset="0.5956" stop-color="#A1CA6D"/>
<stop offset="0.6133" stop-color="#B0D46C"/>
<stop offset="0.6343" stop-color="#B9D76D"/>
<stop offset="0.6665" stop-color="#BCD86E"/>
<stop offset="0.691" stop-color="#B5D559"/>
<stop offset="0.721" stop-color="#B2D34C"/>
<stop offset="0.7595" stop-color="#B1D244"/>
<stop offset="0.8346" stop-color="#AFD243"/>
<stop offset="0.8525" stop-color="#BCD747"/>
<stop offset="0.8812" stop-color="#C8DB4B"/>
<stop offset="0.919" stop-color="#D1DE4C"/>
<stop offset="1" stop-color="#D2DF4E"/>
</linearGradient>
<linearGradient id="paint17_linear_23_38" x1="58.6767" y1="51.5682" x2="354.321" y2="78.5026" gradientUnits="userSpaceOnUse">
<stop stop-color="#06718A"/>
<stop offset="0.0834" stop-color="#08768E"/>
<stop offset="0.1776" stop-color="#0F8398"/>
<stop offset="0.277" stop-color="#1199AA"/>
<stop offset="0.3794" stop-color="#13B7C3"/>
<stop offset="0.3816" stop-color="#16B8C4"/>
<stop offset="0.3851" stop-color="#17AEBC"/>
<stop offset="0.3953" stop-color="#0B93A7"/>
<stop offset="0.4071" stop-color="#0E7D96"/>
<stop offset="0.4208" stop-color="#0A6D89"/>
<stop offset="0.4378" stop-color="#0B6280"/>
<stop offset="0.4617" stop-color="#055B7A"/>
<stop offset="0.5279" stop-color="#065978"/>
<stop offset="0.5382" stop-color="#297475"/>
<stop offset="0.5511" stop-color="#508F73"/>
<stop offset="0.565" stop-color="#71A771"/>
<stop offset="0.5797" stop-color="#8CBB6F"/>
<stop offset="0.5956" stop-color="#A1CA6D"/>
<stop offset="0.6133" stop-color="#B0D46C"/>
<stop offset="0.6343" stop-color="#B9D76D"/>
<stop offset="0.6665" stop-color="#BCD86E"/>
<stop offset="0.691" stop-color="#B5D559"/>
<stop offset="0.721" stop-color="#B2D34C"/>
<stop offset="0.7595" stop-color="#B1D244"/>
<stop offset="0.8346" stop-color="#AFD243"/>
<stop offset="0.8525" stop-color="#BCD747"/>
<stop offset="0.8812" stop-color="#C8DB4B"/>
<stop offset="0.919" stop-color="#D1DE4C"/>
<stop offset="1" stop-color="#D2DF4E"/>
</linearGradient>
<linearGradient id="paint18_linear_23_38" x1="58.6511" y1="47.9617" x2="354.295" y2="74.896" gradientUnits="userSpaceOnUse">
<stop stop-color="#06718A"/>
<stop offset="0.0834" stop-color="#08768E"/>
<stop offset="0.1776" stop-color="#0F8398"/>
<stop offset="0.277" stop-color="#1199AA"/>
<stop offset="0.3794" stop-color="#13B7C3"/>
<stop offset="0.3816" stop-color="#16B8C4"/>
<stop offset="0.3851" stop-color="#17AEBC"/>
<stop offset="0.3953" stop-color="#0B93A7"/>
<stop offset="0.4071" stop-color="#0E7D96"/>
<stop offset="0.4208" stop-color="#0A6D89"/>
<stop offset="0.4378" stop-color="#0B6280"/>
<stop offset="0.4617" stop-color="#055B7A"/>
<stop offset="0.5279" stop-color="#065978"/>
<stop offset="0.5382" stop-color="#297475"/>
<stop offset="0.5511" stop-color="#508F73"/>
<stop offset="0.565" stop-color="#71A771"/>
<stop offset="0.5797" stop-color="#8CBB6F"/>
<stop offset="0.5956" stop-color="#A1CA6D"/>
<stop offset="0.6133" stop-color="#B0D46C"/>
<stop offset="0.6343" stop-color="#B9D76D"/>
<stop offset="0.6665" stop-color="#BCD86E"/>
<stop offset="0.691" stop-color="#B5D559"/>
<stop offset="0.721" stop-color="#B2D34C"/>
<stop offset="0.7595" stop-color="#B1D244"/>
<stop offset="0.8346" stop-color="#AFD243"/>
<stop offset="0.8525" stop-color="#BCD747"/>
<stop offset="0.8812" stop-color="#C8DB4B"/>
<stop offset="0.919" stop-color="#D1DE4C"/>
<stop offset="1" stop-color="#D2DF4E"/>
</linearGradient>
<linearGradient id="paint19_linear_23_38" x1="57.5747" y1="48.3468" x2="355.45" y2="75.4844" gradientUnits="userSpaceOnUse">
<stop stop-color="#06718A"/>
<stop offset="0.0834" stop-color="#08768E"/>
<stop offset="0.1776" stop-color="#0F8398"/>
<stop offset="0.277" stop-color="#1199AA"/>
<stop offset="0.3794" stop-color="#13B7C3"/>
<stop offset="0.3816" stop-color="#16B8C4"/>
<stop offset="0.3851" stop-color="#17AEBC"/>
<stop offset="0.3953" stop-color="#0B93A7"/>
<stop offset="0.4071" stop-color="#0E7D96"/>
<stop offset="0.4208" stop-color="#0A6D89"/>
<stop offset="0.4378" stop-color="#0B6280"/>
<stop offset="0.4617" stop-color="#055B7A"/>
<stop offset="0.5279" stop-color="#065978"/>
<stop offset="0.5382" stop-color="#297475"/>
<stop offset="0.5511" stop-color="#508F73"/>
<stop offset="0.565" stop-color="#71A771"/>
<stop offset="0.5797" stop-color="#8CBB6F"/>
<stop offset="0.5956" stop-color="#A1CA6D"/>
<stop offset="0.6133" stop-color="#B0D46C"/>
<stop offset="0.6343" stop-color="#B9D76D"/>
<stop offset="0.6665" stop-color="#BCD86E"/>
<stop offset="0.691" stop-color="#B5D559"/>
<stop offset="0.721" stop-color="#B2D34C"/>
<stop offset="0.7595" stop-color="#B1D244"/>
<stop offset="0.8346" stop-color="#AFD243"/>
<stop offset="0.8525" stop-color="#BCD747"/>
<stop offset="0.8812" stop-color="#C8DB4B"/>
<stop offset="0.919" stop-color="#D1DE4C"/>
<stop offset="1" stop-color="#D2DF4E"/>
</linearGradient>
<linearGradient id="paint20_linear_23_38" x1="58.1824" y1="55.2162" x2="356.077" y2="82.3555" gradientUnits="userSpaceOnUse">
<stop stop-color="#06718A"/>
<stop offset="0.0834" stop-color="#08768E"/>
<stop offset="0.1776" stop-color="#0F8398"/>
<stop offset="0.277" stop-color="#1199AA"/>
<stop offset="0.3794" stop-color="#13B7C3"/>
<stop offset="0.3816" stop-color="#16B8C4"/>
<stop offset="0.3851" stop-color="#17AEBC"/>
<stop offset="0.3953" stop-color="#0B93A7"/>
<stop offset="0.4071" stop-color="#0E7D96"/>
<stop offset="0.4208" stop-color="#0A6D89"/>
<stop offset="0.4378" stop-color="#0B6280"/>
<stop offset="0.4617" stop-color="#055B7A"/>
<stop offset="0.5279" stop-color="#065978"/>
<stop offset="0.5382" stop-color="#297475"/>
<stop offset="0.5511" stop-color="#508F73"/>
<stop offset="0.565" stop-color="#71A771"/>
<stop offset="0.5797" stop-color="#8CBB6F"/>
<stop offset="0.5956" stop-color="#A1CA6D"/>
<stop offset="0.6133" stop-color="#B0D46C"/>
<stop offset="0.6343" stop-color="#B9D76D"/>
<stop offset="0.6665" stop-color="#BCD86E"/>
<stop offset="0.691" stop-color="#B5D559"/>
<stop offset="0.721" stop-color="#B2D34C"/>
<stop offset="0.7595" stop-color="#B1D244"/>
<stop offset="0.8346" stop-color="#AFD243"/>
<stop offset="0.8525" stop-color="#BCD747"/>
<stop offset="0.8812" stop-color="#C8DB4B"/>
<stop offset="0.919" stop-color="#D1DE4C"/>
<stop offset="1" stop-color="#D2DF4E"/>
</linearGradient>
<linearGradient id="paint21_linear_23_38" x1="58.7975" y1="58.1322" x2="352.87" y2="84.9233" gradientUnits="userSpaceOnUse">
<stop stop-color="#06718A"/>
<stop offset="0.0834" stop-color="#08768E"/>
<stop offset="0.1776" stop-color="#0F8398"/>
<stop offset="0.277" stop-color="#1199AA"/>
<stop offset="0.3794" stop-color="#13B7C3"/>
<stop offset="0.3816" stop-color="#16B8C4"/>
<stop offset="0.3851" stop-color="#17AEBC"/>
<stop offset="0.3953" stop-color="#0B93A7"/>
<stop offset="0.4071" stop-color="#0E7D96"/>
<stop offset="0.4208" stop-color="#0A6D89"/>
<stop offset="0.4378" stop-color="#0B6280"/>
<stop offset="0.4617" stop-color="#055B7A"/>
<stop offset="0.5279" stop-color="#065978"/>
<stop offset="0.5382" stop-color="#297475"/>
<stop offset="0.5511" stop-color="#508F73"/>
<stop offset="0.565" stop-color="#71A771"/>
<stop offset="0.5797" stop-color="#8CBB6F"/>
<stop offset="0.5956" stop-color="#A1CA6D"/>
<stop offset="0.6133" stop-color="#B0D46C"/>
<stop offset="0.6343" stop-color="#B9D76D"/>
<stop offset="0.6665" stop-color="#BCD86E"/>
<stop offset="0.691" stop-color="#B5D559"/>
<stop offset="0.721" stop-color="#B2D34C"/>
<stop offset="0.7595" stop-color="#B1D244"/>
<stop offset="0.8346" stop-color="#AFD243"/>
<stop offset="0.8525" stop-color="#BCD747"/>
<stop offset="0.8812" stop-color="#C8DB4B"/>
<stop offset="0.919" stop-color="#D1DE4C"/>
<stop offset="1" stop-color="#D2DF4E"/>
</linearGradient>
<linearGradient id="paint22_linear_23_38" x1="59.1143" y1="52.109" x2="353.179" y2="78.8994" gradientUnits="userSpaceOnUse">
<stop stop-color="#06718A"/>
<stop offset="0.0834" stop-color="#08768E"/>
<stop offset="0.1776" stop-color="#0F8398"/>
<stop offset="0.277" stop-color="#1199AA"/>
<stop offset="0.3794" stop-color="#13B7C3"/>
<stop offset="0.3816" stop-color="#16B8C4"/>
<stop offset="0.3851" stop-color="#17AEBC"/>
<stop offset="0.3953" stop-color="#0B93A7"/>
<stop offset="0.4071" stop-color="#0E7D96"/>
<stop offset="0.4208" stop-color="#0A6D89"/>
<stop offset="0.4378" stop-color="#0B6280"/>
<stop offset="0.4617" stop-color="#055B7A"/>
<stop offset="0.5279" stop-color="#065978"/>
<stop offset="0.5382" stop-color="#297475"/>
<stop offset="0.5511" stop-color="#508F73"/>
<stop offset="0.565" stop-color="#71A771"/>
<stop offset="0.5797" stop-color="#8CBB6F"/>
<stop offset="0.5956" stop-color="#A1CA6D"/>
<stop offset="0.6133" stop-color="#B0D46C"/>
<stop offset="0.6343" stop-color="#B9D76D"/>
<stop offset="0.6665" stop-color="#BCD86E"/>
<stop offset="0.691" stop-color="#B5D559"/>
<stop offset="0.721" stop-color="#B2D34C"/>
<stop offset="0.7595" stop-color="#B1D244"/>
<stop offset="0.8346" stop-color="#AFD243"/>
<stop offset="0.8525" stop-color="#BCD747"/>
<stop offset="0.8812" stop-color="#C8DB4B"/>
<stop offset="0.919" stop-color="#D1DE4C"/>
<stop offset="1" stop-color="#D2DF4E"/>
</linearGradient>
<linearGradient id="paint23_linear_23_38" x1="58.9787" y1="56.1419" x2="352.359" y2="82.87" gradientUnits="userSpaceOnUse">
<stop stop-color="#06718A"/>
<stop offset="0.0834" stop-color="#08768E"/>
<stop offset="0.1776" stop-color="#0F8398"/>
<stop offset="0.277" stop-color="#1199AA"/>
<stop offset="0.3794" stop-color="#13B7C3"/>
<stop offset="0.3816" stop-color="#16B8C4"/>
<stop offset="0.3851" stop-color="#17AEBC"/>
<stop offset="0.3953" stop-color="#0B93A7"/>
<stop offset="0.4071" stop-color="#0E7D96"/>
<stop offset="0.4208" stop-color="#0A6D89"/>
<stop offset="0.4378" stop-color="#0B6280"/>
<stop offset="0.4617" stop-color="#055B7A"/>
<stop offset="0.5279" stop-color="#065978"/>
<stop offset="0.5382" stop-color="#297475"/>
<stop offset="0.5511" stop-color="#508F73"/>
<stop offset="0.565" stop-color="#71A771"/>
<stop offset="0.5797" stop-color="#8CBB6F"/>
<stop offset="0.5956" stop-color="#A1CA6D"/>
<stop offset="0.6133" stop-color="#B0D46C"/>
<stop offset="0.6343" stop-color="#B9D76D"/>
<stop offset="0.6665" stop-color="#BCD86E"/>
<stop offset="0.691" stop-color="#B5D559"/>
<stop offset="0.721" stop-color="#B2D34C"/>
<stop offset="0.7595" stop-color="#B1D244"/>
<stop offset="0.8346" stop-color="#AFD243"/>
<stop offset="0.8525" stop-color="#BCD747"/>
<stop offset="0.8812" stop-color="#C8DB4B"/>
<stop offset="0.919" stop-color="#D1DE4C"/>
<stop offset="1" stop-color="#D2DF4E"/>
</linearGradient>
<linearGradient id="paint24_linear_23_38" x1="59.042" y1="55.3617" x2="352.415" y2="82.0892" gradientUnits="userSpaceOnUse">
<stop stop-color="#06718A"/>
<stop offset="0.0834" stop-color="#08768E"/>
<stop offset="0.1776" stop-color="#0F8398"/>
<stop offset="0.277" stop-color="#1199AA"/>
<stop offset="0.3794" stop-color="#13B7C3"/>
<stop offset="0.3816" stop-color="#16B8C4"/>
<stop offset="0.3851" stop-color="#17AEBC"/>
<stop offset="0.3953" stop-color="#0B93A7"/>
<stop offset="0.4071" stop-color="#0E7D96"/>
<stop offset="0.4208" stop-color="#0A6D89"/>
<stop offset="0.4378" stop-color="#0B6280"/>
<stop offset="0.4617" stop-color="#055B7A"/>
<stop offset="0.5279" stop-color="#065978"/>
<stop offset="0.5382" stop-color="#297475"/>
<stop offset="0.5511" stop-color="#508F73"/>
<stop offset="0.565" stop-color="#71A771"/>
<stop offset="0.5797" stop-color="#8CBB6F"/>
<stop offset="0.5956" stop-color="#A1CA6D"/>
<stop offset="0.6133" stop-color="#B0D46C"/>
<stop offset="0.6343" stop-color="#B9D76D"/>
<stop offset="0.6665" stop-color="#BCD86E"/>
<stop offset="0.691" stop-color="#B5D559"/>
<stop offset="0.721" stop-color="#B2D34C"/>
<stop offset="0.7595" stop-color="#B1D244"/>
<stop offset="0.8346" stop-color="#AFD243"/>
<stop offset="0.8525" stop-color="#BCD747"/>
<stop offset="0.8812" stop-color="#C8DB4B"/>
<stop offset="0.919" stop-color="#D1DE4C"/>
<stop offset="1" stop-color="#D2DF4E"/>
</linearGradient>
<linearGradient id="paint25_linear_23_38" x1="59.4248" y1="50.428" x2="352.801" y2="77.1557" gradientUnits="userSpaceOnUse">
<stop stop-color="#06718A"/>
<stop offset="0.0834" stop-color="#08768E"/>
<stop offset="0.1776" stop-color="#0F8398"/>
<stop offset="0.277" stop-color="#1199AA"/>
<stop offset="0.3794" stop-color="#13B7C3"/>
<stop offset="0.3816" stop-color="#16B8C4"/>
<stop offset="0.3851" stop-color="#17AEBC"/>
<stop offset="0.3953" stop-color="#0B93A7"/>
<stop offset="0.4071" stop-color="#0E7D96"/>
<stop offset="0.4208" stop-color="#0A6D89"/>
<stop offset="0.4378" stop-color="#0B6280"/>
<stop offset="0.4617" stop-color="#055B7A"/>
<stop offset="0.5279" stop-color="#065978"/>
<stop offset="0.5382" stop-color="#297475"/>
<stop offset="0.5511" stop-color="#508F73"/>
<stop offset="0.565" stop-color="#71A771"/>
<stop offset="0.5797" stop-color="#8CBB6F"/>
<stop offset="0.5956" stop-color="#A1CA6D"/>
<stop offset="0.6133" stop-color="#B0D46C"/>
<stop offset="0.6343" stop-color="#B9D76D"/>
<stop offset="0.6665" stop-color="#BCD86E"/>
<stop offset="0.691" stop-color="#B5D559"/>
<stop offset="0.721" stop-color="#B2D34C"/>
<stop offset="0.7595" stop-color="#B1D244"/>
<stop offset="0.8346" stop-color="#AFD243"/>
<stop offset="0.8525" stop-color="#BCD747"/>
<stop offset="0.8812" stop-color="#C8DB4B"/>
<stop offset="0.919" stop-color="#D1DE4C"/>
<stop offset="1" stop-color="#D2DF4E"/>
</linearGradient>
<linearGradient id="paint26_linear_23_38" x1="58.807" y1="57.6247" x2="353.271" y2="84.4516" gradientUnits="userSpaceOnUse">
<stop stop-color="#06718A"/>
<stop offset="0.0834" stop-color="#08768E"/>
<stop offset="0.1776" stop-color="#0F8398"/>
<stop offset="0.277" stop-color="#1199AA"/>
<stop offset="0.3794" stop-color="#13B7C3"/>
<stop offset="0.3816" stop-color="#16B8C4"/>
<stop offset="0.3851" stop-color="#17AEBC"/>
<stop offset="0.3953" stop-color="#0B93A7"/>
<stop offset="0.4071" stop-color="#0E7D96"/>
<stop offset="0.4208" stop-color="#0A6D89"/>
<stop offset="0.4378" stop-color="#0B6280"/>
<stop offset="0.4617" stop-color="#055B7A"/>
<stop offset="0.5279" stop-color="#065978"/>
<stop offset="0.5382" stop-color="#297475"/>
<stop offset="0.5511" stop-color="#508F73"/>
<stop offset="0.565" stop-color="#71A771"/>
<stop offset="0.5797" stop-color="#8CBB6F"/>
<stop offset="0.5956" stop-color="#A1CA6D"/>
<stop offset="0.6133" stop-color="#B0D46C"/>
<stop offset="0.6343" stop-color="#B9D76D"/>
<stop offset="0.6665" stop-color="#BCD86E"/>
<stop offset="0.691" stop-color="#B5D559"/>
<stop offset="0.721" stop-color="#B2D34C"/>
<stop offset="0.7595" stop-color="#B1D244"/>
<stop offset="0.8346" stop-color="#AFD243"/>
<stop offset="0.8525" stop-color="#BCD747"/>
<stop offset="0.8812" stop-color="#C8DB4B"/>
<stop offset="0.919" stop-color="#D1DE4C"/>
<stop offset="1" stop-color="#D2DF4E"/>
</linearGradient>
<linearGradient id="paint27_linear_23_38" x1="59.0523" y1="50.8652" x2="353.53" y2="77.6933" gradientUnits="userSpaceOnUse">
<stop stop-color="#06718A"/>
<stop offset="0.0834" stop-color="#08768E"/>
<stop offset="0.1776" stop-color="#0F8398"/>
<stop offset="0.277" stop-color="#1199AA"/>
<stop offset="0.3794" stop-color="#13B7C3"/>
<stop offset="0.3816" stop-color="#16B8C4"/>
<stop offset="0.3851" stop-color="#17AEBC"/>
<stop offset="0.3953" stop-color="#0B93A7"/>
<stop offset="0.4071" stop-color="#0E7D96"/>
<stop offset="0.4208" stop-color="#0A6D89"/>
<stop offset="0.4378" stop-color="#0B6280"/>
<stop offset="0.4617" stop-color="#055B7A"/>
<stop offset="0.5279" stop-color="#065978"/>
<stop offset="0.5382" stop-color="#297475"/>
<stop offset="0.5511" stop-color="#508F73"/>
<stop offset="0.565" stop-color="#71A771"/>
<stop offset="0.5797" stop-color="#8CBB6F"/>
<stop offset="0.5956" stop-color="#A1CA6D"/>
<stop offset="0.6133" stop-color="#B0D46C"/>
<stop offset="0.6343" stop-color="#B9D76D"/>
<stop offset="0.6665" stop-color="#BCD86E"/>
<stop offset="0.691" stop-color="#B5D559"/>
<stop offset="0.721" stop-color="#B2D34C"/>
<stop offset="0.7595" stop-color="#B1D244"/>
<stop offset="0.8346" stop-color="#AFD243"/>
<stop offset="0.8525" stop-color="#BCD747"/>
<stop offset="0.8812" stop-color="#C8DB4B"/>
<stop offset="0.919" stop-color="#D1DE4C"/>
<stop offset="1" stop-color="#D2DF4E"/>
</linearGradient>
<linearGradient id="paint28_linear_23_38" x1="59.4003" y1="52.5354" x2="352.347" y2="79.2241" gradientUnits="userSpaceOnUse">
<stop stop-color="#06718A"/>
<stop offset="0.0834" stop-color="#08768E"/>
<stop offset="0.1776" stop-color="#0F8398"/>
<stop offset="0.277" stop-color="#1199AA"/>
<stop offset="0.3794" stop-color="#13B7C3"/>
<stop offset="0.3816" stop-color="#16B8C4"/>
<stop offset="0.3851" stop-color="#17AEBC"/>
<stop offset="0.3953" stop-color="#0B93A7"/>
<stop offset="0.4071" stop-color="#0E7D96"/>
<stop offset="0.4208" stop-color="#0A6D89"/>
<stop offset="0.4378" stop-color="#0B6280"/>
<stop offset="0.4617" stop-color="#055B7A"/>
<stop offset="0.5279" stop-color="#065978"/>
<stop offset="0.5382" stop-color="#297475"/>
<stop offset="0.5511" stop-color="#508F73"/>
<stop offset="0.565" stop-color="#71A771"/>
<stop offset="0.5797" stop-color="#8CBB6F"/>
<stop offset="0.5956" stop-color="#A1CA6D"/>
<stop offset="0.6133" stop-color="#B0D46C"/>
<stop offset="0.6343" stop-color="#B9D76D"/>
<stop offset="0.6665" stop-color="#BCD86E"/>
<stop offset="0.691" stop-color="#B5D559"/>
<stop offset="0.721" stop-color="#B2D34C"/>
<stop offset="0.7595" stop-color="#B1D244"/>
<stop offset="0.8346" stop-color="#AFD243"/>
<stop offset="0.8525" stop-color="#BCD747"/>
<stop offset="0.8812" stop-color="#C8DB4B"/>
<stop offset="0.919" stop-color="#D1DE4C"/>
<stop offset="1" stop-color="#D2DF4E"/>
</linearGradient>
<linearGradient id="paint29_linear_23_38" x1="58.8877" y1="57.8176" x2="352.169" y2="84.5367" gradientUnits="userSpaceOnUse">
<stop stop-color="#06718A"/>
<stop offset="0.0834" stop-color="#08768E"/>
<stop offset="0.1776" stop-color="#0F8398"/>
<stop offset="0.277" stop-color="#1199AA"/>
<stop offset="0.3794" stop-color="#13B7C3"/>
<stop offset="0.3816" stop-color="#16B8C4"/>
<stop offset="0.3851" stop-color="#17AEBC"/>
<stop offset="0.3953" stop-color="#0B93A7"/>
<stop offset="0.4071" stop-color="#0E7D96"/>
<stop offset="0.4208" stop-color="#0A6D89"/>
<stop offset="0.4378" stop-color="#0B6280"/>
<stop offset="0.4617" stop-color="#055B7A"/>
<stop offset="0.5279" stop-color="#065978"/>
<stop offset="0.5382" stop-color="#297475"/>
<stop offset="0.5511" stop-color="#508F73"/>
<stop offset="0.565" stop-color="#71A771"/>
<stop offset="0.5797" stop-color="#8CBB6F"/>
<stop offset="0.5956" stop-color="#A1CA6D"/>
<stop offset="0.6133" stop-color="#B0D46C"/>
<stop offset="0.6343" stop-color="#B9D76D"/>
<stop offset="0.6665" stop-color="#BCD86E"/>
<stop offset="0.691" stop-color="#B5D559"/>
<stop offset="0.721" stop-color="#B2D34C"/>
<stop offset="0.7595" stop-color="#B1D244"/>
<stop offset="0.8346" stop-color="#AFD243"/>
<stop offset="0.8525" stop-color="#BCD747"/>
<stop offset="0.8812" stop-color="#C8DB4B"/>
<stop offset="0.919" stop-color="#D1DE4C"/>
<stop offset="1" stop-color="#D2DF4E"/>
</linearGradient>
<linearGradient id="paint30_linear_23_38" x1="59.2146" y1="54.8988" x2="351.464" y2="81.5238" gradientUnits="userSpaceOnUse">
<stop stop-color="#06718A"/>
<stop offset="0.0834" stop-color="#08768E"/>
<stop offset="0.1776" stop-color="#0F8398"/>
<stop offset="0.277" stop-color="#1199AA"/>
<stop offset="0.3794" stop-color="#13B7C3"/>
<stop offset="0.3816" stop-color="#16B8C4"/>
<stop offset="0.3851" stop-color="#17AEBC"/>
<stop offset="0.3953" stop-color="#0B93A7"/>
<stop offset="0.4071" stop-color="#0E7D96"/>
<stop offset="0.4208" stop-color="#0A6D89"/>
<stop offset="0.4378" stop-color="#0B6280"/>
<stop offset="0.4617" stop-color="#055B7A"/>
<stop offset="0.5279" stop-color="#065978"/>
<stop offset="0.5382" stop-color="#297475"/>
<stop offset="0.5511" stop-color="#508F73"/>
<stop offset="0.565" stop-color="#71A771"/>
<stop offset="0.5797" stop-color="#8CBB6F"/>
<stop offset="0.5956" stop-color="#A1CA6D"/>
<stop offset="0.6133" stop-color="#B0D46C"/>
<stop offset="0.6343" stop-color="#B9D76D"/>
<stop offset="0.6665" stop-color="#BCD86E"/>
<stop offset="0.691" stop-color="#B5D559"/>
<stop offset="0.721" stop-color="#B2D34C"/>
<stop offset="0.7595" stop-color="#B1D244"/>
<stop offset="0.8346" stop-color="#AFD243"/>
<stop offset="0.8525" stop-color="#BCD747"/>
<stop offset="0.8812" stop-color="#C8DB4B"/>
<stop offset="0.919" stop-color="#D1DE4C"/>
<stop offset="1" stop-color="#D2DF4E"/>
</linearGradient>
<linearGradient id="paint31_linear_23_38" x1="58.1836" y1="53.0671" x2="356.061" y2="80.2048" gradientUnits="userSpaceOnUse">
<stop stop-color="#06718A"/>
<stop offset="0.0834" stop-color="#08768E"/>
<stop offset="0.1776" stop-color="#0F8398"/>
<stop offset="0.277" stop-color="#1199AA"/>
<stop offset="0.3794" stop-color="#13B7C3"/>
<stop offset="0.3816" stop-color="#16B8C4"/>
<stop offset="0.3851" stop-color="#17AEBC"/>
<stop offset="0.3953" stop-color="#0B93A7"/>
<stop offset="0.4071" stop-color="#0E7D96"/>
<stop offset="0.4208" stop-color="#0A6D89"/>
<stop offset="0.4378" stop-color="#0B6280"/>
<stop offset="0.4617" stop-color="#055B7A"/>
<stop offset="0.5279" stop-color="#065978"/>
<stop offset="0.5382" stop-color="#297475"/>
<stop offset="0.5511" stop-color="#508F73"/>
<stop offset="0.565" stop-color="#71A771"/>
<stop offset="0.5797" stop-color="#8CBB6F"/>
<stop offset="0.5956" stop-color="#A1CA6D"/>
<stop offset="0.6133" stop-color="#B0D46C"/>
<stop offset="0.6343" stop-color="#B9D76D"/>
<stop offset="0.6665" stop-color="#BCD86E"/>
<stop offset="0.691" stop-color="#B5D559"/>
<stop offset="0.721" stop-color="#B2D34C"/>
<stop offset="0.7595" stop-color="#B1D244"/>
<stop offset="0.8346" stop-color="#AFD243"/>
<stop offset="0.8525" stop-color="#BCD747"/>
<stop offset="0.8812" stop-color="#C8DB4B"/>
<stop offset="0.919" stop-color="#D1DE4C"/>
<stop offset="1" stop-color="#D2DF4E"/>
</linearGradient>
<linearGradient id="paint32_linear_23_38" x1="56.8302" y1="52.7274" x2="360.295" y2="80.3742" gradientUnits="userSpaceOnUse">
<stop stop-color="#06718A"/>
<stop offset="0.0834" stop-color="#08768E"/>
<stop offset="0.1776" stop-color="#0F8398"/>
<stop offset="0.277" stop-color="#1199AA"/>
<stop offset="0.3794" stop-color="#13B7C3"/>
<stop offset="0.3816" stop-color="#16B8C4"/>
<stop offset="0.3851" stop-color="#17AEBC"/>
<stop offset="0.3953" stop-color="#0B93A7"/>
<stop offset="0.4071" stop-color="#0E7D96"/>
<stop offset="0.4208" stop-color="#0A6D89"/>
<stop offset="0.4378" stop-color="#0B6280"/>
<stop offset="0.4617" stop-color="#055B7A"/>
<stop offset="0.5279" stop-color="#065978"/>
<stop offset="0.5382" stop-color="#297475"/>
<stop offset="0.5511" stop-color="#508F73"/>
<stop offset="0.565" stop-color="#71A771"/>
<stop offset="0.5797" stop-color="#8CBB6F"/>
<stop offset="0.5956" stop-color="#A1CA6D"/>
<stop offset="0.6133" stop-color="#B0D46C"/>
<stop offset="0.6343" stop-color="#B9D76D"/>
<stop offset="0.6665" stop-color="#BCD86E"/>
<stop offset="0.691" stop-color="#B5D559"/>
<stop offset="0.721" stop-color="#B2D34C"/>
<stop offset="0.7595" stop-color="#B1D244"/>
<stop offset="0.8346" stop-color="#AFD243"/>
<stop offset="0.8525" stop-color="#BCD747"/>
<stop offset="0.8812" stop-color="#C8DB4B"/>
<stop offset="0.919" stop-color="#D1DE4C"/>
<stop offset="1" stop-color="#D2DF4E"/>
</linearGradient>
<linearGradient id="paint33_linear_23_38" x1="59.1998" y1="49.3752" x2="354.262" y2="76.2566" gradientUnits="userSpaceOnUse">
<stop stop-color="#06718A"/>
<stop offset="0.0834" stop-color="#08768E"/>
<stop offset="0.1776" stop-color="#0F8398"/>
<stop offset="0.277" stop-color="#1199AA"/>
<stop offset="0.3794" stop-color="#13B7C3"/>
<stop offset="0.3816" stop-color="#16B8C4"/>
<stop offset="0.3851" stop-color="#17AEBC"/>
<stop offset="0.3953" stop-color="#0B93A7"/>
<stop offset="0.4071" stop-color="#0E7D96"/>
<stop offset="0.4208" stop-color="#0A6D89"/>
<stop offset="0.4378" stop-color="#0B6280"/>
<stop offset="0.4617" stop-color="#055B7A"/>
<stop offset="0.5279" stop-color="#065978"/>
<stop offset="0.5382" stop-color="#297475"/>
<stop offset="0.5511" stop-color="#508F73"/>
<stop offset="0.565" stop-color="#71A771"/>
<stop offset="0.5797" stop-color="#8CBB6F"/>
<stop offset="0.5956" stop-color="#A1CA6D"/>
<stop offset="0.6133" stop-color="#B0D46C"/>
<stop offset="0.6343" stop-color="#B9D76D"/>
<stop offset="0.6665" stop-color="#BCD86E"/>
<stop offset="0.691" stop-color="#B5D559"/>
<stop offset="0.721" stop-color="#B2D34C"/>
<stop offset="0.7595" stop-color="#B1D244"/>
<stop offset="0.8346" stop-color="#AFD243"/>
<stop offset="0.8525" stop-color="#BCD747"/>
<stop offset="0.8812" stop-color="#C8DB4B"/>
<stop offset="0.919" stop-color="#D1DE4C"/>
<stop offset="1" stop-color="#D2DF4E"/>
</linearGradient>
<linearGradient id="paint34_linear_23_38" x1="59.0185" y1="56.5596" x2="351.684" y2="83.222" gradientUnits="userSpaceOnUse">
<stop stop-color="#06718A"/>
<stop offset="0.0834" stop-color="#08768E"/>
<stop offset="0.1776" stop-color="#0F8398"/>
<stop offset="0.277" stop-color="#1199AA"/>
<stop offset="0.3794" stop-color="#13B7C3"/>
<stop offset="0.3816" stop-color="#16B8C4"/>
<stop offset="0.3851" stop-color="#17AEBC"/>
<stop offset="0.3953" stop-color="#0B93A7"/>
<stop offset="0.4071" stop-color="#0E7D96"/>
<stop offset="0.4208" stop-color="#0A6D89"/>
<stop offset="0.4378" stop-color="#0B6280"/>
<stop offset="0.4617" stop-color="#055B7A"/>
<stop offset="0.5279" stop-color="#065978"/>
<stop offset="0.5382" stop-color="#297475"/>
<stop offset="0.5511" stop-color="#508F73"/>
<stop offset="0.565" stop-color="#71A771"/>
<stop offset="0.5797" stop-color="#8CBB6F"/>
<stop offset="0.5956" stop-color="#A1CA6D"/>
<stop offset="0.6133" stop-color="#B0D46C"/>
<stop offset="0.6343" stop-color="#B9D76D"/>
<stop offset="0.6665" stop-color="#BCD86E"/>
<stop offset="0.691" stop-color="#B5D559"/>
<stop offset="0.721" stop-color="#B2D34C"/>
<stop offset="0.7595" stop-color="#B1D244"/>
<stop offset="0.8346" stop-color="#AFD243"/>
<stop offset="0.8525" stop-color="#BCD747"/>
<stop offset="0.8812" stop-color="#C8DB4B"/>
<stop offset="0.919" stop-color="#D1DE4C"/>
<stop offset="1" stop-color="#D2DF4E"/>
</linearGradient>
</defs>
</svg>
